<?xml version="1.0" standalone="no"?>
<!DOCTYPE svg PUBLIC "-//W3C//DTD SVG 20010904//EN"
 "http://www.w3.org/TR/2001/REC-SVG-20010904/DTD/svg10.dtd">
<svg version="1.0" xmlns="http://www.w3.org/2000/svg"
 width="300.000000pt" height="300.000000pt" viewBox="0 0 300.000000 300.000000"
 preserveAspectRatio="xMidYMid meet">
<metadata>
Created by potrace 1.10, written by Peter Selinger 2001-2011
</metadata>
<g transform="translate(0.000000,300.000000) scale(0.100000,-0.100000)"
fill="#51e6e4" stroke="none">
<path d="M1465 2780 l-30 -20 37 6 c24 4 52 1 78 -10 61 -24 61 -19 1 14 -30
17 -55 30 -55 30 -1 0 -14 -9 -31 -20z"/>
<path d="M1293 2682 l-162 -57 -90 -118 -89 -119 5 -176 5 -177 83 -85 c45
-47 101 -112 123 -146 l41 -61 133 -12 c73 -6 190 -18 259 -27 l126 -17 116
99 116 99 26 95 27 95 -40 132 c-21 73 -37 135 -34 138 19 18 33 -8 63 -115
19 -66 36 -120 39 -119 3 0 24 24 48 54 l42 54 0 103 0 103 -140 115 -139 115
-82 12 c-44 6 -121 25 -170 42 -49 17 -102 31 -117 30 -15 0 -100 -26 -189
-57z m257 7 c92 -34 140 -48 199 -55 31 -4 67 -11 80 -16 19 -7 119 -86 151
-118 3 -3 26 -21 52 -40 55 -41 65 -62 67 -151 1 -53 -3 -71 -19 -90 -19 -23
-21 -23 -34 -6 -8 10 -20 42 -26 70 -12 52 -43 97 -65 97 -7 0 -20 -9 -30 -20
-21 -23 -15 -78 17 -168 28 -77 27 -170 -1 -243 -17 -45 -33 -66 -79 -102 -31
-26 -75 -63 -97 -83 l-40 -36 -85 6 c-47 4 -114 11 -150 16 -36 5 -92 11 -125
14 -106 9 -146 18 -152 35 -10 28 -73 104 -141 169 -77 74 -79 83 -81 277 l-2
131 31 42 c17 23 39 51 50 62 10 10 25 32 34 47 28 55 64 76 219 129 83 28
157 52 162 53 6 0 35 -8 65 -20z"/>
<path d="M1718 2703 c12 -2 30 -2 40 0 9 3 -1 5 -23 4 -22 0 -30 -2 -17 -4z"/>
<path d="M1817 2691 c23 -4 50 -14 60 -22 10 -9 77 -64 149 -123 l131 -107 5
-109 6 -108 61 -59 62 -58 50 -172 49 -171 -46 -129 c-25 -70 -50 -133 -57
-140 -7 -7 -63 -44 -125 -82 l-112 -70 -153 -5 c-108 -5 -153 -10 -156 -19
-10 -34 -64 -143 -90 -180 -65 -96 -64 -87 -41 -289 11 -101 22 -191 24 -200
4 -19 -5 -23 -129 -51 -59 -14 -61 -14 -107 12 -45 24 -47 28 -43 61 3 19 12
86 21 148 19 139 13 199 -32 311 -19 47 -39 111 -46 143 -13 61 -17 64 -67 47
-28 -10 -50 -4 -227 62 l-196 74 -32 50 c-18 28 -48 77 -68 110 l-35 60 6 146
7 146 117 131 117 130 0 81 c0 61 4 89 18 109 l17 27 -35 -23 c-19 -12 -123
-75 -230 -139 -216 -129 -234 -142 -261 -195 -18 -35 -19 -66 -19 -588 0 -522
1 -553 19 -588 10 -20 30 -46 43 -58 35 -32 926 -556 972 -571 44 -16 103 -10
151 14 25 13 209 121 888 520 34 21 69 51 85 75 l27 42 3 550 c3 596 2 604
-51 654 -12 11 -101 67 -197 125 l-175 104 -3 40 c-3 39 -9 45 -155 163 -138
112 -155 123 -197 126 l-45 3 42 -8z m-936 -363 c3 -40 -1 -80 -9 -93 -4 -8
-50 -62 -102 -120 -52 -59 -101 -118 -108 -131 -7 -14 -15 -83 -19 -172 l-6
-150 67 -110 c36 -60 76 -116 88 -124 49 -32 376 -148 417 -148 34 0 43 -4 50
-22 47 -123 84 -234 88 -269 4 -23 -2 -111 -12 -195 -21 -176 -19 -186 58
-225 39 -20 47 -21 110 -11 87 15 131 34 151 64 16 25 15 43 -9 228 -2 19 -7
69 -10 110 l-7 75 52 80 c28 44 53 91 56 105 3 14 14 35 23 47 17 20 31 22
156 29 l137 7 122 73 c68 41 131 83 140 93 20 22 106 262 106 295 0 30 -90
338 -105 363 -8 11 -37 43 -65 71 -50 49 -57 65 -41 91 10 15 25 7 206 -103
114 -69 117 -71 139 -113 14 -28 16 -93 16 -574 0 -535 0 -542 -21 -579 -18
-31 -51 -55 -178 -131 -86 -51 -203 -120 -261 -155 -352 -209 -510 -300 -551
-317 -59 -25 -96 -19 -180 31 -35 21 -147 87 -249 147 -102 60 -218 129 -259
153 -41 25 -84 50 -95 56 -134 73 -291 175 -309 200 -22 31 -22 32 -25 576 -3
591 -2 601 50 642 46 35 362 226 376 227 6 1 13 -9 13 -21z"/>
<path d="M817 2391 c-98 -60 -181 -112 -185 -116 -10 -11 -9 -11 185 104 95
57 175 107 179 112 8 13 16 17 -179 -100z"/>
<path d="M583 2249 c-35 -22 -46 -37 -15 -20 22 13 58 40 52 41 -3 0 -20 -10
-37 -21z"/>
<path d="M439 2161 c-35 -22 -48 -37 -53 -63 -4 -18 -6 -299 -6 -624 1 -650
-3 -602 60 -634 l25 -13 -22 24 c-53 58 -53 55 -53 651 0 517 2 556 19 594 10
22 34 53 52 67 44 35 35 34 -22 -2z"/>
<path d="M2109 2138 c-24 -29 -47 -56 -51 -59 -5 -3 -22 -53 -40 -112 l-31
-107 -109 -91 -108 -91 0 -49 c0 -48 -2 -52 -76 -129 -43 -44 -75 -82 -73 -83
61 -47 60 -47 237 -47 l171 0 83 52 c46 28 99 61 118 73 31 20 40 36 79 144
l44 122 -46 162 c-47 160 -48 162 -101 215 l-53 54 -44 -54z m85 -34 c31 -27
53 -85 96 -247 21 -81 22 -93 10 -140 -7 -29 -21 -70 -30 -92 -10 -22 -23 -52
-29 -67 -6 -16 -27 -36 -53 -49 -24 -12 -69 -39 -100 -60 l-58 -38 -117 -1
c-202 -2 -233 0 -233 11 0 5 27 41 60 80 52 60 60 75 60 110 0 35 6 47 39 78
21 20 48 43 59 51 82 62 120 108 141 176 12 38 27 84 33 103 10 32 73 111 87
111 3 0 19 -12 35 -26z"/>
<path d="M884 2138 c-22 -24 -68 -75 -101 -113 l-61 -71 -7 -139 -7 -140 60
-94 60 -94 179 -69 178 -69 60 11 c33 6 123 27 199 45 l140 34 72 72 c57 56
73 79 76 106 2 20 0 36 -6 38 -16 4 -216 25 -389 40 -82 7 -150 15 -151 17 -2
2 -22 32 -46 68 -23 36 -80 103 -126 150 l-83 85 -3 83 -3 83 -41 -43z m10
-98 c5 -33 23 -58 94 -134 48 -51 105 -118 127 -149 48 -68 77 -83 175 -91 41
-4 102 -9 135 -12 33 -3 66 -7 73 -10 7 -2 47 -6 90 -9 125 -10 126 -12 45
-97 -60 -62 -80 -75 -142 -84 -20 -3 -54 -12 -76 -19 -22 -7 -81 -21 -132 -31
l-92 -17 -128 48 c-70 26 -143 54 -162 60 -37 14 -84 62 -107 110 -8 16 -21
41 -30 55 -11 19 -14 53 -12 151 l3 125 60 72 c33 39 63 72 66 72 4 0 9 -18
13 -40z"/>
<path d="M2573 2138 c14 -18 30 -49 35 -68 l10 -35 1 45 c1 41 -2 47 -35 68
l-36 24 25 -34z"/>
<path d="M1529 1393 c-18 -4 -26 -88 -35 -355 -3 -76 -11 -199 -18 -275 -7
-76 -12 -139 -11 -141 1 -2 32 5 69 14 l67 17 -7 61 c-4 33 -14 121 -23 194
l-17 134 48 76 c48 77 89 157 102 200 6 18 3 22 -12 22 -20 0 -32 -24 -32 -65
0 -18 -76 -105 -92 -105 -4 0 -8 52 -8 115 0 63 -3 114 -7 114 -5 -1 -15 -3
-24 -6z m21 -280 c-15 -32 -25 -16 -15 24 4 19 9 23 17 15 9 -9 8 -19 -2 -39z
m-9 -263 c1 -22 2 -43 3 -47 1 -5 6 -32 10 -62 6 -41 5 -55 -5 -62 -42 -27
-45 -2 -27 199 3 30 18 8 19 -28z"/>
<path d="M1590 1316 c0 -47 2 -86 5 -86 3 0 14 19 24 43 34 80 34 83 1 107
l-30 21 0 -85z"/>
<path d="M1446 1353 c-3 -16 -8 -63 -12 -105 -3 -43 -9 -78 -13 -78 -4 0 -21
15 -39 33 -21 22 -32 43 -32 62 0 44 -11 75 -25 75 -12 0 -9 -29 10 -95 1 -5
3 -13 4 -17 1 -4 18 -45 38 -90 46 -107 51 -185 25 -361 -18 -122 -18 -128 -1
-138 10 -5 22 -9 27 -9 10 0 23 170 28 365 2 72 9 187 17 258 12 118 12 127
-4 127 -11 0 -19 -10 -23 -27z"/>
<path d="M1369 1353 c-1 -5 0 -12 1 -18 1 -5 5 -30 9 -54 10 -70 29 -62 33 13
3 63 2 66 -19 66 -13 0 -24 -3 -24 -7z"/>
<path d="M2610 932 c0 -9 -12 -35 -26 -56 l-26 -39 31 19 c26 15 31 24 31 56
0 21 -2 38 -5 38 -3 0 -5 -8 -5 -18z"/>
<path d="M1550 259 c-14 -6 -45 -8 -70 -5 l-45 6 33 -20 33 -20 39 20 c22 11
40 23 40 25 0 6 1 6 -30 -6z"/>
</g>
</svg>
