 <svg  version="1.0" xmlns="http://www.w3.org/2000/svg"  width="300.000000pt" height="300.000000pt" viewBox="0 0 300.000000 300.000000"  preserveAspectRatio="xMidYMid meet">  <g transform="translate(0.000000,300.000000) scale(0.100000,-0.100000)" fill="#51e1ec" stroke="none"> <path d="M1380 2810 c-47 -27 -97 -55 -112 -63 -27 -15 -64 -74 -54 -85 3 -3 11 8 16 24 8 23 34 42 125 92 63 34 120 62 126 62 7 0 40 -16 74 -35 35 -19 86 -40 114 -46 50 -10 53 -13 122 -110 39 -54 76 -102 82 -106 7 -4 -3 13 -21 37 -19 25 -55 75 -80 112 -43 62 -51 68 -97 79 -27 6 -85 29 -127 50 -43 22 -79 39 -80 38 -2 -1 -41 -23 -88 -49z"/> <path d="M1430 2784 c-25 -14 -74 -41 -110 -60 l-65 -33 -59 -137 -59 -137 7 -191 8 -190 51 -86 c29 -47 63 -115 77 -152 l25 -66 63 -6 c35 -4 106 -16 159 -26 52 -11 99 -20 103 -20 5 0 32 35 61 78 29 42 61 88 71 103 11 14 27 69 37 127 l18 102 -23 128 c-26 138 -29 172 -15 172 11 0 15 -18 37 -154 l18 -108 27 53 c26 50 28 63 29 172 l0 118 -87 124 -88 124 -54 12 c-29 6 -78 26 -110 45 -31 19 -60 34 -66 34 -5 0 -30 -12 -55 -26z m103 -39 c20 -13 65 -33 99 -43 62 -19 64 -20 143 -128 l80 -109 0 -97 c0 -59 -3 -91 -9 -81 -4 8 -6 31 -3 49 4 20 2 32 -4 29 -5 -4 -9 0 -9 8 0 7 -12 19 -26 26 -22 10 -30 9 -46 -6 -20 -18 -21 -52 -3 -133 23 -106 27 -169 15 -255 -13 -95 -37 -144 -117 -243 -38 -46 -41 -46 -163 -21 -25 5 -58 11 -75 14 -85 14 -85 13 -119 88 -18 40 -50 99 -71 132 -34 52 -39 69 -45 140 -3 44 -6 134 -6 200 1 109 3 125 28 175 14 30 37 80 51 111 17 38 35 63 58 77 64 39 164 91 175 92 6 0 28 -11 47 -25z"/> <path d="M900 2707 c-40 -23 -75 -49 -78 -57 -4 -12 -2 -12 9 1 8 9 41 31 74 49 51 28 63 31 87 22 34 -13 36 -9 5 11 -23 15 -28 13 -97 -26z"/> <path d="M905 2675 c-55 -31 -62 -40 -93 -107 -33 -73 -33 -74 -28 -192 4 -103 8 -124 29 -155 13 -20 29 -52 37 -71 7 -19 14 -36 15 -38 1 -1 28 -7 60 -12 31 -5 65 -12 74 -15 14 -4 29 14 70 87 l53 91 -3 91 c-2 80 1 98 24 147 l26 57 -36 51 c-20 28 -43 51 -52 51 -9 0 -37 11 -63 25 -26 14 -48 25 -50 25 -2 0 -30 -16 -63 -35z m126 -34 c34 -16 62 -37 76 -58 l22 -34 -25 -56 c-21 -49 -24 -70 -22 -143 2 -81 1 -88 -33 -150 -33 -61 -38 -65 -74 -68 -56 -5 -84 5 -98 36 -6 15 -22 43 -35 63 -21 33 -23 49 -24 151 0 104 2 120 27 172 21 44 38 64 74 86 25 16 49 29 52 27 3 -1 30 -13 60 -26z"/> <path d="M1040 2700 c8 -5 25 -10 37 -10 14 0 34 -17 58 -50 20 -27 40 -50 44 -50 8 0 31 44 31 58 0 3 -7 -4 -16 -16 -15 -22 -17 -22 -34 -7 -10 9 -23 29 -30 45 -12 28 -34 40 -80 40 -20 0 -22 -2 -10 -10z"/> <path d="M787 2574 c-15 -30 -27 -60 -27 -67 1 -6 14 17 31 52 36 79 33 91 -4 15z"/> <path d="M1963 2596 c-73 -44 -80 -56 -9 -17 l59 33 46 -20 c25 -11 53 -23 62 -25 9 -3 37 -35 62 -70 39 -55 47 -73 47 -111 0 -25 4 -47 8 -50 4 -2 5 21 2 52 -5 48 -14 68 -55 125 -30 42 -56 67 -68 67 -10 0 -37 11 -60 24 l-42 24 -52 -32z"/> <path d="M1967 2561 c-65 -38 -74 -48 -59 -63 8 -8 12 -52 12 -130 l0 -118 40 -64 c22 -35 40 -72 40 -82 0 -32 13 -42 60 -48 45 -6 45 -6 74 40 41 66 51 123 36 206 -7 37 -10 71 -7 75 11 11 16 -1 25 -58 9 -53 9 -53 20 -26 7 16 12 49 12 73 0 38 -8 56 -46 110 -30 42 -55 66 -72 70 -15 4 -39 15 -54 25 -14 11 -28 19 -30 18 -1 0 -25 -13 -51 -28z m99 -37 c53 -20 133 -124 96 -124 -20 0 -28 -45 -20 -109 11 -81 5 -115 -27 -163 -38 -57 -55 -50 -113 46 -54 91 -55 95 -53 253 1 79 2 83 29 97 34 19 38 19 88 0z"/> <path d="M729 2348 c-6 -13 -21 -31 -33 -41 l-21 -18 22 11 c20 9 62 70 49 70 -3 0 -10 -10 -17 -22z"/> <path d="M721 2279 c-39 -90 -43 -189 -10 -280 19 -52 28 -62 83 -97 l61 -38 55 22 c53 21 55 23 60 65 3 24 11 54 18 66 19 35 15 40 -35 47 -99 14 -98 13 -126 74 -15 31 -36 73 -47 92 -16 27 -20 45 -16 78 3 23 2 42 -3 42 -4 0 -22 -32 -40 -71z m49 -101 c16 -18 32 -45 35 -59 8 -35 40 -67 73 -75 59 -12 74 -23 66 -47 -4 -12 -7 -30 -6 -40 1 -28 -61 -51 -101 -38 -90 30 -132 126 -111 254 4 20 8 37 10 37 3 0 18 -15 34 -32z"/> <path d="M2246 2298 c4 -7 13 -20 20 -28 7 -8 20 -56 29 -106 15 -81 15 -97 2 -147 -16 -60 -14 -65 17 -42 17 13 23 13 44 -1 13 -9 39 -21 57 -27 22 -8 48 -33 79 -75 42 -56 46 -67 46 -118 0 -40 6 -64 20 -84 11 -15 24 -45 29 -66 7 -27 9 32 8 196 -3 313 6 295 -216 429 -74 45 -136 81 -138 81 -2 0 -1 -6 3 -12z m227 -163 c72 -48 89 -83 91 -191 2 -100 -8 -106 -53 -35 -31 47 -48 59 -134 95 -38 15 -38 16 -37 68 1 29 -3 68 -9 86 -5 18 -7 40 -4 47 6 16 44 -2 146 -70z"/> <path d="M593 2217 c-195 -119 -193 -114 -193 -437 l1 -245 40 75 c32 59 39 82 35 110 -4 26 4 55 27 108 31 69 37 76 91 105 56 30 59 31 87 15 34 -20 35 -14 9 43 -25 56 -28 214 -5 259 9 17 14 30 13 29 -2 0 -49 -28 -105 -62z m43 -89 c-3 -35 -2 -78 3 -96 10 -33 10 -33 -47 -60 -69 -33 -75 -39 -116 -127 l-34 -70 -7 48 c-10 63 0 196 18 239 13 30 74 88 94 88 4 0 19 9 33 20 14 11 33 20 44 20 17 0 18 -6 12 -62z"/> <path d="M2212 2253 c-6 -16 -14 -49 -18 -75 -4 -30 -19 -65 -40 -95 -19 -26 -34 -59 -34 -73 0 -14 -11 -44 -25 -68 -33 -58 -26 -72 41 -72 49 0 55 2 69 29 8 16 24 32 35 36 11 3 22 18 26 33 3 15 9 45 14 66 14 61 -24 246 -50 246 -4 0 -12 -12 -18 -27z m35 -225 c-10 -50 -52 -100 -96 -113 -22 -7 -23 -5 -17 16 4 13 9 40 13 59 6 36 64 125 86 133 17 6 24 -40 14 -95z"/> <path d="M1872 2143 c-21 -45 -39 -104 -50 -173 -18 -105 -19 -107 -90 -207 -67 -95 -72 -105 -72 -155 0 -44 -7 -66 -45 -132 -25 -43 -45 -80 -45 -83 0 -3 10 -19 22 -35 l21 -31 110 6 109 7 71 72 71 73 31 137 31 138 -30 172 c-25 138 -37 184 -61 225 -17 29 -33 53 -36 53 -3 0 -20 -30 -37 -67z m83 -106 c7 -35 16 -89 19 -122 4 -32 11 -79 17 -104 11 -50 9 -68 -23 -209 -20 -91 -22 -94 -88 -162 l-67 -70 -89 0 c-49 0 -96 4 -104 10 -12 7 -6 24 33 98 37 71 47 99 46 133 -1 36 6 55 36 99 20 30 43 62 50 70 31 35 57 97 65 154 15 103 22 128 42 163 18 29 21 31 35 18 8 -9 21 -44 28 -78z"/> <path d="M1053 2084 l-61 -119 -5 -145 -4 -145 35 -100 c19 -55 40 -106 45 -113 5 -7 60 -44 121 -82 l112 -70 123 49 124 49 48 84 c31 52 49 95 49 116 0 17 -3 32 -7 32 -5 0 -39 7 -78 15 -38 9 -112 22 -164 30 -52 8 -97 18 -101 22 -3 4 -19 40 -35 78 -16 39 -52 108 -80 154 -48 81 -50 89 -55 174 l-5 89 -62 -118z m78 -133 c40 -61 109 -199 109 -218 0 -4 10 -20 23 -35 19 -24 38 -30 127 -47 98 -19 131 -25 188 -37 31 -6 28 -33 -14 -106 -21 -35 -38 -64 -39 -66 -7 -9 -200 -82 -216 -82 -25 0 -65 21 -150 77 -57 37 -70 51 -92 101 -45 103 -49 126 -46 270 3 142 20 209 52 209 8 0 34 -30 58 -66z"/> <path d="M423 2144 c-40 -24 -43 -29 -42 -68 l1 -41 15 35 c8 19 29 50 46 68 37 38 35 39 -20 6z"/> <path d="M2551 2143 c61 -65 59 -40 59 -652 0 -372 -4 -569 -11 -588 -6 -15 -20 -39 -32 -52 -23 -25 -21 -25 26 -2 l27 14 0 626 -1 626 -47 28 -47 29 26 -29z"/> <path d="M2014 2024 c3 -8 8 -36 12 -64 4 -27 10 -50 15 -50 9 0 59 81 59 97 0 5 -21 14 -46 20 -37 9 -44 8 -40 -3z"/> <path d="M2273 1922 c-64 -40 -93 -112 -93 -228 0 -82 3 -95 36 -159 l35 -70 77 -16 c42 -9 77 -16 78 -15 73 99 93 163 74 241 -12 50 -13 85 -1 85 5 0 11 -23 15 -50 9 -68 26 -54 26 21 0 53 -4 66 -41 119 -27 40 -50 62 -67 67 -15 3 -36 12 -47 19 -27 19 -43 17 -92 -14z m116 -34 c22 -12 53 -39 67 -60 l27 -39 -22 -21 c-21 -19 -22 -26 -15 -77 13 -88 7 -131 -22 -173 -23 -32 -32 -38 -63 -38 -64 0 -80 10 -116 72 -32 54 -35 65 -35 141 0 90 16 136 67 189 32 34 58 35 112 6z"/> <path d="M598 1902 c-71 -41 -98 -104 -98 -229 0 -92 2 -100 37 -169 l37 -71 75 -17 c86 -18 78 -22 127 60 27 46 34 114 20 202 -6 34 -5 52 2 52 5 0 13 -23 17 -52 6 -43 9 -48 18 -33 6 11 9 44 8 73 -2 45 -9 65 -42 113 -27 40 -49 61 -67 65 -15 4 -36 13 -47 20 -26 18 -32 17 -87 -14z m82 -23 c0 -5 11 -9 24 -9 16 0 35 -14 60 -44 40 -49 44 -63 20 -81 -9 -6 -16 -25 -16 -41 0 -16 2 -64 3 -107 2 -73 1 -79 -28 -115 -31 -38 -45 -42 -108 -29 -31 7 -65 39 -65 63 0 8 -4 14 -9 14 -17 0 -31 64 -31 146 0 103 24 162 79 191 40 21 71 27 71 12z"/> <path d="M926 1861 c-4 -5 -2 -20 3 -33 9 -21 10 -21 10 10 1 32 -3 39 -13 23z"/> <path d="M950 1810 c0 -56 -11 -77 -24 -47 -3 6 -2 -4 2 -23 4 -19 7 -99 7 -177 -1 -79 3 -143 7 -143 4 0 8 42 9 93 1 158 8 318 14 338 4 11 2 19 -4 19 -7 0 -11 -24 -11 -60z"/> <path d="M2062 1840 c0 -19 2 -27 5 -17 2 9 2 25 0 35 -3 9 -5 1 -5 -18z"/> <path d="M810 1855 c0 -3 11 -21 25 -39 19 -25 25 -45 25 -85 0 -37 6 -61 20 -82 12 -15 25 -48 29 -71 l8 -43 7 47 c6 34 2 70 -13 136 -12 49 -21 99 -21 111 0 18 -3 20 -17 13 -12 -7 -24 -5 -40 5 -13 8 -23 12 -23 8z"/> <path d="M2104 1813 c-3 -16 -14 -55 -24 -88 -15 -50 -17 -77 -11 -165 5 -70 8 -87 10 -50 1 43 10 71 42 130 31 56 39 81 35 103 -3 15 1 44 9 63 l14 34 -34 0 c-30 0 -36 -4 -41 -27z"/> <path d="M2061 1759 c-6 -18 -11 -37 -10 -43 0 -6 7 7 15 28 8 22 12 41 10 43 -2 2 -9 -10 -15 -28z"/> <path d="M2038 1645 c-11 -33 -20 -205 -11 -205 27 1 31 18 24 120 -3 58 -9 96 -13 85z"/> <path d="M2128 1606 c-23 -46 -28 -69 -27 -129 0 -102 22 -148 88 -193 l53 -36 56 25 c44 18 62 33 79 63 37 64 33 70 -57 85 l-80 13 -39 80 c-22 45 -41 96 -43 115 l-3 33 -27 -56z m31 -96 c3 -3 15 -22 26 -44 25 -48 46 -62 112 -76 28 -6 54 -17 57 -25 6 -18 -24 -44 -71 -60 -34 -12 -42 -11 -77 8 -52 29 -83 95 -68 144 6 18 6 35 2 38 -4 3 -6 15 -2 27 4 16 7 18 10 8 3 -8 8 -17 11 -20z"/> <path d="M2521 1642 c-5 -9 -14 -43 -20 -75 -7 -40 -22 -75 -46 -107 -20 -27 -35 -59 -35 -75 0 -15 -9 -43 -21 -62 -32 -51 -20 -67 43 -60 112 14 172 128 142 272 -24 116 -42 147 -63 107z m30 -228 c-14 -59 -58 -114 -93 -114 -16 0 -19 5 -14 28 4 15 9 40 12 57 5 28 48 96 66 103 4 2 8 16 9 30 0 25 1 24 16 -11 13 -33 14 -47 4 -93z"/> <path d="M842 1614 c-7 -16 -16 -52 -21 -81 -5 -34 -20 -67 -44 -101 -22 -30 -37 -61 -37 -78 0 -16 -9 -44 -21 -63 -29 -48 -20 -61 44 -61 48 0 56 3 90 38 30 31 38 48 48 108 14 82 -2 211 -31 246 -16 21 -16 21 -28 -8z m32 -145 c17 -85 -34 -199 -89 -199 -28 0 -36 8 -25 29 5 9 11 32 15 52 5 32 13 47 55 97 6 7 16 9 22 6 7 -5 9 2 4 20 -3 14 -2 26 3 26 4 0 11 -14 15 -31z"/> <path d="M448 1579 c-23 -41 -28 -61 -28 -122 0 -111 20 -157 86 -201 l55 -37 58 23 c48 19 62 30 80 63 12 22 21 45 21 52 0 13 -58 32 -100 34 -14 0 -33 4 -43 7 -24 10 -88 137 -96 189 l-6 42 -27 -50z m65 -149 c25 -46 51 -65 100 -74 60 -11 68 -16 56 -38 -13 -23 -67 -48 -106 -48 -38 0 -80 38 -98 90 -17 47 -19 74 -7 66 5 -3 7 14 5 37 -4 37 -3 40 10 27 9 -8 26 -35 40 -60z"/> <path d="M968 1520 c-3 -58 -4 -106 -3 -108 2 -2 12 1 22 7 17 8 19 18 15 73 -3 35 -10 79 -17 98 -11 33 -12 28 -17 -70z"/> <path d="M382 1520 c0 -19 2 -27 5 -17 2 9 2 25 0 35 -3 9 -5 1 -5 -18z"/> <path d="M1996 1478 c-3 -13 -1 -27 4 -32 7 -7 10 1 10 22 0 37 -5 41 -14 10z"/> <path d="M1031 1429 c-1 -20 -10 -30 -42 -44 -33 -15 -42 -16 -49 -6 -5 9 -12 -5 -19 -40 -9 -41 -22 -64 -53 -96 -37 -38 -47 -43 -88 -43 l-45 0 -23 -82 c-20 -73 -22 -96 -16 -194 l7 -111 -33 -12 c-55 -19 -63 -4 -57 109 6 112 -19 280 -41 280 -8 0 -40 16 -73 36 -52 32 -60 42 -78 93 l-19 56 -1 -206 c-1 -130 3 -219 10 -240 17 -51 53 -94 101 -121 24 -14 231 -136 461 -272 230 -136 434 -254 452 -262 42 -17 88 -17 136 0 20 7 130 68 245 136 568 334 716 424 743 456 17 18 35 50 40 71 13 47 13 452 1 409 -5 -16 -28 -49 -52 -73 -36 -37 -48 -43 -83 -43 l-40 0 -23 -82 c-20 -73 -22 -96 -16 -193 l7 -110 -31 -11 c-26 -10 -33 -9 -48 7 -14 16 -16 32 -10 111 9 120 -17 268 -47 268 -10 0 -43 14 -72 32 -47 28 -56 39 -79 96 -14 36 -23 69 -19 75 3 5 -8 -1 -25 -13 l-32 -24 -24 23 -23 22 -63 -65 -63 -65 -100 -3 -101 -3 -16 -70 c-9 -38 -30 -109 -48 -158 l-32 -87 10 -158 c5 -86 12 -185 15 -220 l6 -63 -56 -24 c-31 -14 -59 -25 -63 -25 -4 0 -22 12 -39 27 l-31 28 13 160 c14 176 9 265 -24 405 -11 47 -23 106 -26 132 l-7 46 -30 -13 c-29 -12 -35 -10 -117 44 -47 32 -103 67 -123 79 -20 13 -39 31 -41 40 -3 11 -5 7 -6 -9z m130 -124 c57 -36 116 -68 132 -72 17 -3 29 -13 32 -27 2 -11 14 -66 27 -121 25 -110 29 -235 15 -435 l-9 -115 37 -36 c46 -47 73 -52 133 -24 80 38 86 50 78 157 -4 51 -9 149 -13 218 l-5 125 47 143 48 142 74 0 c86 0 102 6 164 67 43 42 48 43 88 37 38 -6 44 -11 67 -56 19 -38 39 -58 93 -92 37 -24 72 -52 76 -63 5 -10 10 -81 11 -158 1 -87 7 -152 15 -172 14 -33 15 -33 94 -18 39 8 49 42 46 162 -2 124 18 223 46 223 8 0 33 10 54 22 21 12 42 18 46 14 4 -4 7 -72 6 -151 -1 -130 -3 -147 -22 -174 -20 -27 -143 -108 -316 -208 -38 -22 -133 -78 -210 -123 -77 -46 -160 -94 -185 -108 -25 -13 -61 -35 -80 -47 -19 -13 -75 -46 -125 -74 -124 -71 -149 -69 -298 23 -106 64 -420 250 -431 255 -11 5 -219 131 -225 137 -7 6 43 44 54 40 6 -2 9 45 7 133 -3 118 0 143 17 183 16 39 24 46 56 52 46 9 107 64 135 122 20 41 72 82 106 84 7 0 58 -29 115 -65z m-654 -128 c60 -42 68 -70 66 -220 -1 -71 -4 -131 -7 -134 -10 -11 -98 51 -113 81 -18 33 -31 241 -19 292 7 27 8 27 73 -19z"/> <path d="M1514 1362 c-12 -7 -39 -425 -29 -442 3 -4 0 -92 -6 -194 -6 -103 -9 -189 -6 -192 2 -3 21 3 41 12 42 21 41 3 22 259 l-13 180 42 115 c47 126 63 200 46 200 -10 0 -13 -10 -16 -65 -1 -11 -14 -42 -31 -70 l-29 -50 -5 127 c-4 91 -8 125 -16 120z"/> <path d="M1550 1276 c0 -49 3 -87 6 -84 3 4 11 34 18 68 12 56 11 64 -5 83 -18 22 -18 20 -19 -67z"/> <path d="M1460 1326 c-5 -15 -10 -60 -11 -99 0 -40 -4 -81 -8 -92 -7 -18 -10 -17 -25 13 -10 19 -19 32 -22 29 -2 -2 7 -51 21 -108 28 -117 30 -172 13 -372 -10 -121 -9 -140 4 -154 14 -14 16 5 22 193 3 115 10 299 16 408 5 110 7 202 5 204 -2 3 -9 -7 -15 -22z"/> <path d="M1414 1322 c-8 -5 -9 -26 -3 -71 12 -84 19 -89 19 -13 0 33 3 67 6 76 6 17 -4 21 -22 8z"/> <path d="M1374 1279 c3 -17 6 -45 6 -62 0 -17 4 -27 8 -21 12 13 2 114 -10 114 -6 0 -8 -12 -4 -31z"/> <path d="M2321 1208 c-1 -31 -6 -58 -11 -60 -7 -2 -8 -17 -2 -43 8 -38 9 -35 17 47 4 47 5 92 2 100 -3 7 -6 -12 -6 -44z"/> <path d="M2342 1130 c-1 -74 -5 -166 -9 -204 -5 -57 -4 -68 8 -64 11 4 13 27 11 115 -3 84 0 119 12 148 9 21 14 40 11 43 -3 3 -5 0 -5 -6 0 -7 -4 -12 -10 -12 -5 0 -11 26 -13 58 -2 31 -4 -4 -5 -78z"/> <path d="M661 1160 c-1 -47 -4 -140 -7 -208 -3 -96 -1 -123 9 -119 9 3 11 33 9 114 -2 81 1 120 12 146 12 29 12 35 1 31 -11 -5 -15 9 -18 58 -3 59 -3 58 -6 -22z"/> <path d="M617 1213 c-3 -5 -1 -17 4 -28 7 -17 8 -17 8 8 1 27 -4 34 -12 20z"/> <path d="M643 1180 c0 -25 2 -35 4 -22 2 12 2 32 0 45 -2 12 -4 2 -4 -23z"/> <path d="M620 1097 c5 -18 11 -41 13 -52 3 -11 5 1 6 26 1 32 -4 49 -13 52 -11 5 -12 -1 -6 -26z"/> <path d="M633 945 c0 -33 2 -45 4 -27 2 18 2 45 0 60 -2 15 -4 0 -4 -33z"/> <path d="M2313 945 c0 -27 2 -38 4 -22 2 15 2 37 0 50 -2 12 -4 0 -4 -28z"/> <path d="M381 910 c-1 -40 2 -47 30 -62 l30 -18 -20 28 c-10 15 -24 43 -29 62 l-10 35 -1 -45z"/> <path d="M1550 249 c-14 -6 -46 -9 -73 -6 l-48 4 31 -18 c39 -24 39 -24 91 6 45 25 44 32 -1 14z"/> </g> </svg> 