<?xml version="1.0" encoding="UTF-8" standalone="no"?>
<!-- Created with Inkscape (http://www.inkscape.org/) -->

<svg
   version="1.1"
   id="svg1"
   width="1024"
   height="1024"
   viewBox="0 0 1024 1024"
   sodipodi:docname="foret_hexagonale7.svg"
   inkscape:version="1.4.2 (f4327f4, 2025-05-13)"
   xmlns:inkscape="http://www.inkscape.org/namespaces/inkscape"
   xmlns:sodipodi="http://sodipodi.sourceforge.net/DTD/sodipodi-0.dtd"
   xmlns:xlink="http://www.w3.org/1999/xlink"
   xmlns="http://www.w3.org/2000/svg"
   xmlns:svg="http://www.w3.org/2000/svg">
  <defs
     id="defs1">
    <linearGradient
       id="swatch153"
       inkscape:swatch="solid">
      <stop
         style="stop-color:#00f7ea;stop-opacity:1;"
         offset="0"
         id="stop153" />
    </linearGradient>
    <mask
       maskUnits="userSpaceOnUse"
       id="mask141">
      <path
         sodipodi:type="star"
         style="display:inline;fill:#b0b0b0;fill-opacity:1"
         id="path141"
         inkscape:flatsided="true"
         sodipodi:sides="6"
         sodipodi:cx="489.70892"
         sodipodi:cy="499.51819"
         sodipodi:r1="441.41776"
         sodipodi:r2="382.27899"
         sodipodi:arg1="-1.5690869"
         sodipodi:arg2="-1.0454882"
         inkscape:rounded="0"
         inkscape:randomized="0"
         d="M 490.46349,58.101078 872.36464,279.46311 871.61007,720.88022 488.95435,940.9353 107.05321,719.57327 107.80778,278.15616 Z" />
    </mask>
    <linearGradient
       inkscape:collect="always"
       xlink:href="#swatch153"
       id="linearGradient153"
       x1="346.43161"
       y1="524.11822"
       x2="639.50935"
       y2="524.11822"
       gradientUnits="userSpaceOnUse" />
  </defs>
  <sodipodi:namedview
     id="namedview1"
     pagecolor="#ffffff"
     bordercolor="#000000"
     borderopacity="0.25"
     inkscape:showpageshadow="2"
     inkscape:pageopacity="0.0"
     inkscape:pagecheckerboard="0"
     inkscape:deskcolor="#d1d1d1"
     inkscape:zoom="0.5"
     inkscape:cx="564"
     inkscape:cy="440"
     inkscape:window-width="1705"
     inkscape:window-height="1360"
     inkscape:window-x="-7"
     inkscape:window-y="0"
     inkscape:window-maximized="0"
     inkscape:current-layer="g1" />
  <g
     inkscape:groupmode="layer"
     inkscape:label="Image"
     id="g1">
    <path
       id="path1"
       style="display:inline;fill:#00ffff;fill-opacity:1;fill-rule:nonzero;stroke:url(#linearGradient153);stroke-width:12.2351;stroke-dasharray:none;paint-order:markers fill stroke"
       d="m 485.61523,335.56055 -30.35156,10.07617 c -16.69344,5.54286 -30.871,10.07812 -31.50586,10.07812 -1.42455,0 -8.16455,8.38599 -24.05273,29.92578 l -12.22656,16.57422 0.45507,6.5 c 0.24954,3.575 0.69248,10.15118 0.98633,14.61328 l 0.53516,8.11329 -3.57227,2.38671 c -1.96512,1.31291 -11.24098,11.29877 -20.61328,22.19141 l -17.04101,19.80469 -0.85547,16.19531 c -0.47048,8.90736 -0.87474,20.40162 -0.89844,25.54297 l -0.043,9.34961 5.62109,9.15039 c 3.09232,5.03365 8.04947,13.00954 11.01563,17.72266 l 5.39258,8.56836 33.39648,12.60546 33.39453,12.60352 7.32813,-1.88477 c 4.03022,-1.03668 7.6204,-1.5652 7.97851,-1.17382 0.35811,0.39139 1.66173,5.43593 2.89649,11.21093 1.23475,5.775 4.14,15 6.45508,20.5 7.74267,18.39446 7.78492,18.54721 8.2832,29.54297 0.35948,7.9328 -0.16156,15.2365 -2.10352,29.5 -1.41953,10.42631 -2.71021,21.18014 -2.86914,23.89649 l -0.28906,4.93945 7.5,4.27734 c 4.125,2.35307 8.175,4.29059 9,4.30469 1.95658,0.0334 29.86285,-7.49176 30.63086,-8.25976 0.32384,-0.32384 -1.19467,-15.8011 -3.375,-34.39454 l -3.96484,-33.80664 2.33203,-4.67187 c 1.28219,-2.56973 5.49868,-9.68858 9.37109,-15.82031 3.87241,-6.13173 8.11295,-14.1546 9.42188,-17.82813 1.30894,-3.67354 3.07626,-8.29357 3.92773,-10.26758 l 1.54883,-3.58984 25.71484,-0.67969 25.71485,-0.67969 21.08789,-12.8125 c 13.16646,-7.99949 21.54918,-13.7203 22.31445,-15.23046 0.67415,-1.33034 4.55001,-11.86191 8.61328,-23.40235 5.52968,-15.70532 7.19875,-21.61577 6.63672,-23.5 -0.41298,-1.38456 -4.16773,-14.44258 -8.3457,-29.01758 l -7.59766,-26.5 -11.01562,-10.58593 -11.01563,-10.58594 v -18.55078 -18.55078 l -7.25,-5.83985 c -3.9875,-3.21198 -15.33236,-12.53975 -25.20898,-20.72851 -9.87662,-8.18876 -18.87662,-15.27281 -20,-15.74219 -1.12338,-0.46938 -7.66602,-1.51535 -14.54102,-2.32422 -10.2913,-1.21081 -15.70873,-2.55607 -30.6582,-7.60937 z m 0.98438,6.10937 c 0.91814,0.0248 8.73739,2.50622 17.375,5.51367 12.16488,4.23559 18.43737,5.82284 27.83008,7.04102 6.66924,0.86495 13.0837,1.77335 14.2539,2.01953 1.17021,0.24617 10.62589,7.5401 21.01172,16.20898 10.38582,8.66891 21.22009,17.56172 24.07813,19.76172 l 5.19726,4 0.043,18.4043 0.043,18.40234 -4.76172,5.09766 c -2.61889,2.80314 -6.36307,7.05252 -8.32031,9.44336 l -3.55859,4.34766 -5.84375,-19.84766 c -3.21325,-10.91584 -6.26485,-20.40022 -6.78321,-21.07617 -0.64775,-0.84465 -1.50213,-0.92888 -2.73047,-0.27149 -1.66045,0.88864 -1.33325,2.52503 4.60547,23.06641 3.51574,12.16056 6.38686,23.08218 6.38086,24.27148 -0.0102,1.90505 -8.60208,31.78486 -9.24023,32.13477 -1.22293,0.67055 -33.82262,28.92425 -35.67383,30.91797 -1.33338,1.43602 -2.90838,2.54334 -3.5,2.46094 -2.70089,-0.37621 -8.43173,-1.09848 -26.57422,-3.34571 -10.725,-1.32845 -29.2624,-3.20046 -41.19336,-4.16015 l -21.69336,-1.74414 -7.80664,-11.55079 c -5.75127,-8.50833 -11.28275,-14.97434 -21.00195,-24.55078 l -13.19336,-13 -1.18164,-31.13672 -1.18164,-31.13671 8.87695,-11.5 c 4.88138,-6.32552 11.9754,-15.74227 15.76563,-20.92579 l 6.89062,-9.42578 30.10938,-9.73242 c 16.55977,-5.35288 30.85919,-9.7123 31.77734,-9.6875 z m 113.00391,94.98633 9.03515,8.24805 c 4.96923,4.53659 9.40843,9.16212 9.86524,10.27929 0.68286,1.66999 4.87123,15.96989 15.12304,51.64063 1.12079,3.89975 1.68477,1.95549 -9.73242,33.45898 l -4.73633,13.07032 -8.61328,4.92968 c -4.73729,2.71228 -13.65235,8.15091 -19.8125,12.08594 l -11.20117,7.15625 -28.30078,0.52539 c -15.56522,0.28894 -29.22396,0.31111 -30.35352,0.0508 -1.12957,-0.26054 -4.67101,-2.52938 -7.87109,-5.04101 l -5.81836,-4.56641 9.94141,-10.13867 c 16.64182,-16.97085 16.30273,-16.43909 16.30273,-25.50781 v -7.79688 l 18.85156,-16.13086 18.85352,-16.13086 4.89648,-17.05078 c 2.70459,-9.41646 5.79389,-18.1139 6.89844,-19.42578 1.1,-1.30648 5.30104,-6.26344 9.33594,-11.01562 z m -210.47461,0.95898 0.65039,7.70118 c 0.35802,4.2354 0.65234,10.90199 0.65234,14.81445 v 7.11328 l 12.91602,12.88672 c 9.05398,9.03387 15.69356,16.83833 22.20703,26.10156 l 9.29101,13.21485 10.54297,0.6582 c 12.08185,0.75345 50.08283,4.5198 50.95899,5.05078 0.32141,0.19478 5.75898,0.85731 12.08398,1.47266 6.325,0.61534 13.4125,1.36433 15.75,1.66406 l 4.25,0.54492 -0.0273,5.18945 -0.0274,5.1875 -13.22265,13.66993 -13.22266,13.66796 -32.5,7.58789 c -17.875,4.17278 -33.4,7.53571 -34.5,7.47461 -1.1,-0.0611 -8.975,-2.81767 -17.5,-6.12695 -8.525,-3.30928 -22.21994,-8.59729 -30.43359,-11.75195 L 372.0625,558 l -5.94922,-9.39258 c -3.27263,-5.16567 -7.97191,-12.69318 -10.44336,-16.72851 l -4.49414,-7.33789 1.16406,-23.15235 c 0.74529,-14.81602 1.60263,-23.75103 2.37891,-24.8164 2.88685,-3.9619 27.7871,-32.65641 30.94141,-35.65625 z m 109.30273,134.87696 v 19.11133 c 0,22.79087 -0.18282,22.58981 10.81445,12.01171 6.15291,-5.91843 7.11808,-7.27617 6.06836,-8.54101 -1.00801,-1.21457 -0.8947,-2.54268 0.58985,-6.91016 1.7061,-5.01926 2.02359,-5.3632 4.43164,-4.78711 3.58268,0.85711 3.55387,0.74956 1.58594,5.54688 -0.96826,2.36032 -2.54404,6.37996 -3.5,8.93164 -0.95597,2.55168 -4.65709,9.30168 -8.22657,15 -3.56949,5.69832 -7.9088,12.88403 -9.64258,15.96875 l -3.15234,5.60937 2.00195,15.89063 c 4.24066,33.64615 5.92518,49.89259 5.24024,50.54101 -0.39152,0.37065 -5.82782,1.99973 -12.08008,3.61915 l -11.36719,2.94335 0.66992,-9.10546 c 0.36822,-5.00849 1.40755,-16.30743 2.31055,-25.10743 0.903,-8.8 1.54102,-22.075 1.41797,-29.5 -0.12304,-7.425 0.44646,-20.475 1.26563,-29 0.81914,-8.525 1.80254,-21.02844 2.18359,-27.78515 0.38105,-6.75672 0.96379,-12.45235 1.29687,-12.65821 0.33308,-0.20585 2.29129,-0.69002 4.34961,-1.07617 z m -13.42969,3.1582 -0.77929,10.2832 c -0.42863,5.65523 -1.49306,17.70625 -2.36328,26.78125 -0.87025,9.075 -1.4679,20.325 -1.33008,25 0.41183,13.97007 0.2946,16.47263 -1.94727,42.09375 -1.18352,13.52583 -2.15039,24.88833 -2.15039,25.25 0,0.36168 -0.3375,0.63758 -0.75,0.61329 -0.96593,-0.0569 -8.25,-3.89571 -8.25,-4.34766 0,-0.18846 1.38603,-10.18871 3.08008,-22.22461 2.41552,-17.16175 2.99773,-24.36607 2.69726,-33.38477 -0.37884,-11.37092 -0.4483,-11.65714 -6.17968,-25.5 -3.18805,-7.7 -6.02344,-14.55737 -6.30078,-15.24023 -0.27733,-0.68286 0.25135,-1.53198 1.17578,-1.88672 1.17248,-0.44992 3.18054,0.83221 6.64062,4.24023 3.44422,3.39243 5.19254,4.50963 5.71875,3.65821 0.41679,-0.67439 1.54201,-8.5287 2.50195,-17.45508 0.95997,-8.92638 1.83974,-16.30935 1.95508,-16.40625 0.11533,-0.0969 1.57683,-0.46724 3.2461,-0.82422 z"
       mask="url(#mask141)"
       transform="matrix(1.6733903,0,0,1.7114017,-305.97182,-401.35889)" />
  </g>
</svg>
