 <svg  version="1.0" xmlns="http://www.w3.org/2000/svg"  width="300.000000pt" height="300.000000pt" viewBox="0 0 300.000000 300.000000"  preserveAspectRatio="xMidYMid meet">  <g transform="translate(0.000000,300.000000) scale(0.100000,-0.100000)" fill="#d8d4d5" stroke="none"> <path d="M1750 1869 c0 -19 -4 -21 -42 -15 -103 15 -170 18 -180 8 -7 -7 -3 -20 13 -41 19 -26 21 -34 11 -55 -6 -14 -8 -27 -4 -29 4 -2 39 -1 77 4 85 10 205 11 205 3 0 -11 -48 -52 -54 -46 -12 11 -56 10 -56 -1 0 -8 -3 -8 -8 -2 -9 13 -62 16 -62 3 0 -5 -6 -6 -12 -2 -18 11 -48 12 -54 2 -3 -4 -11 -5 -17 -1 -17 10 -127 12 -127 1 0 -4 -11 -8 -25 -8 -14 0 -25 3 -25 8 0 4 -27 7 -60 7 -34 0 -60 -4 -60 -10 0 -5 -5 -3 -11 5 -8 11 -12 12 -16 2 -2 -6 -10 -9 -16 -5 -19 11 -87 11 -87 -1 0 -7 -3 -8 -8 -1 -4 6 -32 10 -62 10 -30 0 -58 -4 -62 -10 -5 -7 -8 -6 -8 1 0 12 -99 12 -118 0 -7 -4 -12 -3 -12 3 0 5 -9 12 -19 16 -10 3 -22 17 -25 30 -5 18 -13 25 -31 25 -22 0 -25 -4 -25 -35 0 -19 -4 -35 -10 -35 -5 0 -10 -16 -10 -36 l0 -37 -241 7 -240 7 3 -43 3 -43 92 -2 c51 0 95 3 99 8 3 5 68 9 145 9 l139 0 0 -30 0 -30 135 0 c128 0 135 -1 135 -20 0 -11 4 -20 9 -20 5 0 9 -46 8 -103 -2 -115 6 -137 52 -137 52 0 56 10 56 126 0 77 4 109 13 111 6 3 12 13 12 24 0 18 9 19 140 19 90 0 140 4 140 10 0 7 6 7 20 0 23 -12 28 -68 8 -88 -10 -10 -10 -15 1 -21 17 -11 3 -81 -36 -179 -14 -35 -23 -65 -21 -68 14 -13 163 -71 174 -67 18 7 70 136 84 211 l13 62 93 0 c97 0 99 -1 95 -43 -1 -9 5 -20 14 -23 22 -9 49 -64 47 -96 -2 -24 1 -28 26 -28 30 0 121 27 136 41 12 10 -25 82 -79 154 -62 82 -59 112 11 124 30 5 38 11 36 24 -2 11 7 21 23 27 39 15 85 13 85 -4 0 -18 26 -27 56 -20 22 6 24 4 24 -35 0 -37 2 -41 25 -41 15 0 24 -5 23 -12 -2 -7 6 -13 17 -13 11 0 19 6 17 13 -4 20 15 14 67 -23 56 -41 68 -43 73 -13 3 20 8 17 62 -30 32 -28 63 -49 68 -46 5 3 15 0 23 -6 26 -22 64 -4 69 33 16 103 27 300 17 310 -13 13 -534 10 -539 -4 -9 -24 -120 -1 -156 33 -14 13 -35 18 -72 18 -47 0 -64 9 -64 35 0 2 21 3 48 2 l47 -2 3 52 c3 49 2 52 -30 67 -29 15 -34 15 -44 1 -7 -9 -27 -15 -52 -15 -35 0 -39 2 -35 20 5 18 0 20 -36 20 -35 0 -41 -3 -41 -21z m-7 -35 c77 -6 77 -6 77 -35 0 -29 -24 -42 -32 -18 -3 9 -29 9 -93 4 -69 -7 -83 -10 -60 -16 17 -3 23 -7 15 -8 -8 -1 -26 -4 -39 -8 -20 -5 -22 -3 -17 15 4 12 0 34 -9 53 l-17 31 49 -6 c26 -4 83 -9 126 -12z m137 -29 c0 -28 -4 -35 -20 -35 -16 0 -20 7 -20 35 0 28 4 35 20 35 16 0 20 -7 20 -35z m60 2 c0 -26 -4 -33 -20 -34 -11 -1 -21 4 -21 10 -1 7 -2 19 -3 27 -1 17 12 30 32 30 7 0 12 -13 12 -33z m-50 -117 c0 -22 -24 -27 -36 -8 -4 7 -3 8 4 4 7 -4 12 -2 12 3 0 6 -7 11 -15 11 -8 0 -15 -7 -15 -15 0 -8 -4 -15 -10 -15 -5 0 -10 9 -10 20 0 16 7 20 35 20 28 0 35 -4 35 -20z m102 -6 c21 -4 35 -10 32 -15 -7 -12 -44 -11 -44 1 0 6 -12 10 -26 10 -19 0 -25 -4 -20 -15 5 -13 -17 -15 -159 -15 -103 0 -165 4 -165 10 0 6 -20 10 -45 10 -25 0 -45 -4 -45 -10 0 -16 -57 -12 -64 5 -5 13 18 15 169 15 105 0 176 -4 180 -10 10 -16 95 -12 101 5 7 16 28 18 86 9z m-1183 -44 c7 0 19 7 27 15 13 13 58 15 280 15 257 0 264 -1 264 -20 0 -20 -7 -20 -309 -20 l-309 0 5 21 c6 20 7 20 18 5 7 -9 18 -16 24 -16z m631 -40 c0 -63 -2 -70 -20 -70 -18 0 -20 7 -20 54 0 30 -3 61 -6 70 -5 12 0 16 20 16 26 0 26 -1 26 -70z m160 48 c0 -9 16 -12 52 -11 29 2 133 4 231 5 l177 3 0 -62 c0 -61 -1 -63 -25 -63 -14 0 -37 -11 -51 -25 -21 -21 -34 -25 -88 -25 -94 0 -156 10 -156 26 0 8 5 14 10 14 6 0 10 5 10 11 0 5 -4 7 -10 4 -5 -3 -10 3 -10 14 0 20 5 21 135 21 132 0 135 1 151 25 8 13 14 32 11 42 -4 15 -5 15 -6 -3 0 -11 -11 -29 -23 -40 -23 -19 -23 -19 -5 2 9 11 17 27 17 35 0 8 -7 4 -16 -10 -16 -22 -20 -23 -163 -21 -80 1 -198 1 -261 -1 l-115 -3 115 -6 115 -6 -113 -2 c-83 -1 -111 -5 -106 -14 4 -7 3 -8 -4 -4 -7 4 -12 25 -12 48 0 40 0 40 35 36 24 -3 35 0 35 9 0 8 13 13 35 13 21 0 35 -5 35 -12z m1105 2 c10 -17 -17 -284 -31 -299 -8 -8 -16 -12 -19 -9 -4 3 -3 76 1 162 6 141 9 156 25 156 10 0 20 -4 24 -10z m-615 -47 c0 -35 -3 -44 -10 -33 -13 20 -13 80 0 80 6 0 10 -21 10 -47z m560 30 c0 -10 -3 -35 -6 -55 l-7 -38 -188 0 c-104 0 -189 4 -189 9 0 5 -11 11 -25 13 -13 3 -22 1 -19 -3 3 -5 1 -9 -4 -9 -10 0 -22 46 -22 81 0 18 12 19 230 19 212 0 230 -1 230 -17z m-470 -28 c0 -33 -2 -35 -21 -25 -11 7 -27 9 -35 6 -10 -4 -14 3 -14 24 0 28 3 30 35 30 33 0 35 -2 35 -35z m-1752 -2 c-3 -27 -6 -28 -58 -29 -48 -2 -50 -1 -16 5 50 8 60 30 14 33 -18 1 -43 1 -55 0 -13 0 -23 3 -23 9 0 5 32 9 71 9 l70 0 -3 -27z m382 -13 c0 -23 -4 -28 -25 -26 -20 1 -25 6 -25 27 0 22 5 27 25 27 21 0 25 -5 25 -28z m30 0 c0 -16 -4 -30 -10 -30 -5 0 -10 14 -10 30 0 17 5 30 10 30 6 0 10 -13 10 -30z m30 0 c0 -16 -4 -30 -10 -30 -5 0 -10 14 -10 30 0 17 5 30 10 30 6 0 10 -13 10 -30z m30 0 c0 -16 -4 -30 -10 -30 -5 0 -10 14 -10 30 0 17 5 30 10 30 6 0 10 -13 10 -30z m30 0 c0 -16 -4 -30 -10 -30 -5 0 -10 14 -10 30 0 17 5 30 10 30 6 0 10 -13 10 -30z m40 0 c0 -20 -5 -30 -15 -30 -10 0 -15 10 -15 30 0 20 5 30 15 30 10 0 15 -10 15 -30z m30 0 c0 -16 -4 -30 -10 -30 -5 0 -10 14 -10 30 0 17 5 30 10 30 6 0 10 -13 10 -30z m30 0 c0 -16 -4 -30 -10 -30 -5 0 -10 14 -10 30 0 17 5 30 10 30 6 0 10 -13 10 -30z m30 -5 c0 -19 -4 -35 -10 -35 -5 0 -10 16 -10 35 0 19 5 35 10 35 6 0 10 -16 10 -35z m30 5 c0 -16 -4 -30 -10 -30 -5 0 -10 14 -10 30 0 17 5 30 10 30 6 0 10 -13 10 -30z m30 -6 c0 -21 -4 -33 -10 -29 -5 3 -10 19 -10 36 0 16 5 29 10 29 6 0 10 -16 10 -36z m40 6 c0 -20 -5 -30 -15 -30 -15 0 -21 40 -8 53 14 15 23 6 23 -23z m30 0 c0 -16 -4 -30 -10 -30 -5 0 -10 14 -10 30 0 17 5 30 10 30 6 0 10 -13 10 -30z m30 0 c0 -16 -4 -30 -10 -30 -5 0 -10 14 -10 30 0 17 5 30 10 30 6 0 10 -13 10 -30z m30 -6 c0 -21 -4 -33 -10 -29 -5 3 -10 19 -10 36 0 16 5 29 10 29 6 0 10 -16 10 -36z m30 0 c0 -21 -4 -33 -10 -29 -5 3 -10 19 -10 36 0 16 5 29 10 29 6 0 10 -16 10 -36z m40 6 c0 -20 -5 -30 -15 -30 -10 0 -15 10 -15 30 0 20 5 30 15 30 10 0 15 -10 15 -30z m30 0 c0 -16 -4 -30 -10 -30 -5 0 -10 14 -10 30 0 17 5 30 10 30 6 0 10 -13 10 -30z m30 0 c0 -16 -4 -30 -10 -30 -5 0 -10 14 -10 30 0 17 5 30 10 30 6 0 10 -13 10 -30z m-630 10 c0 -6 -53 -10 -140 -10 -87 0 -140 4 -140 10 0 6 53 10 140 10 87 0 140 -4 140 -10z m1163 -27 c-35 -2 -91 -2 -125 0 -35 2 -7 3 62 3 69 0 97 -1 63 -3z m-303 -25 c0 -10 2 -10 8 -1 9 14 77 12 89 -2 5 -4 -1 -5 -11 -1 -16 5 -17 4 -6 -9 11 -13 6 -15 -34 -15 -34 0 -46 -4 -46 -15 0 -14 12 -19 33 -16 4 0 7 -20 7 -45 0 -27 4 -43 10 -39 6 3 10 24 10 46 0 36 2 39 28 41 15 1 2 4 -28 8 l-55 7 53 1 c33 1 51 6 47 12 -3 6 -2 10 3 10 18 0 10 -48 -9 -53 -15 -4 -19 -15 -19 -52 0 -37 -3 -46 -14 -42 -8 3 -43 11 -78 17 -101 18 -99 17 -92 56 3 18 3 42 -2 51 -20 46 -14 53 47 53 41 0 59 -4 59 -12z m-478 -15 c18 3 42 2 53 -3 13 -6 -16 -9 -82 -9 -56 -1 -104 3 -108 8 -3 6 8 8 29 4 20 -3 36 -1 41 6 5 9 10 9 21 0 8 -6 28 -9 46 -6z m1368 -22 c0 -22 27 -29 85 -21 31 4 39 9 37 23 -2 9 2 17 8 17 11 0 14 -97 4 -124 -4 -10 -18 -16 -41 -16 -27 0 -51 13 -113 62 -43 35 -76 66 -74 70 3 5 25 8 50 8 36 0 44 -3 44 -19z m110 -1 c0 -5 -22 -10 -50 -10 -27 0 -50 5 -50 10 0 6 23 10 50 10 28 0 50 -4 50 -10z m-1550 -10 c0 -5 8 -10 18 -10 14 0 15 2 2 10 -12 8 -10 10 8 10 13 0 20 -4 17 -10 -3 -5 -1 -10 4 -10 6 0 11 5 11 10 0 6 7 10 16 10 9 0 14 -6 12 -12 -3 -8 -24 -13 -58 -13 -34 0 -55 5 -57 13 -3 6 2 12 11 12 9 0 16 -4 16 -10z m1366 -22 c24 -17 44 -40 44 -50 0 -25 -15 -23 -65 12 -31 21 -55 30 -84 30 -34 0 -41 3 -41 20 0 17 7 20 51 20 41 0 59 -6 95 -32z m-1308 -94 c3 -94 -2 -114 -32 -114 -30 0 -39 39 -30 127 6 60 8 63 33 63 26 0 26 -1 29 -76z m682 57 c0 -39 -9 -47 -50 -43 -37 4 -40 7 -40 33 0 28 2 29 45 29 38 0 45 -3 45 -19z m63 12 c-7 -3 -13 -13 -13 -23 0 -18 -26 -47 -35 -38 -3 2 0 18 7 34 7 20 18 30 32 31 12 1 15 -1 9 -4z m97 -5 c0 -6 27 -52 60 -100 33 -49 60 -96 60 -104 0 -16 -36 -33 -88 -41 -26 -5 -31 -3 -27 10 6 15 -56 150 -75 162 -5 3 -10 24 -10 46 0 39 0 39 40 39 24 0 40 -5 40 -12z m-430 -70 c-1 -66 -54 -219 -74 -212 -10 4 -7 25 15 92 16 48 31 99 34 115 7 33 25 36 25 5z m90 1 c48 -10 50 -12 49 -42 l-2 -32 -5 30 c-3 25 -7 18 -24 -45 -12 -41 -21 -85 -22 -97 0 -11 -4 -19 -7 -17 -3 2 -11 -9 -18 -24 -11 -25 -10 -26 4 -8 18 24 20 7 2 -17 -10 -15 -15 -16 -31 -4 -18 13 -18 15 2 53 26 50 52 141 51 173 0 15 -8 -1 -19 -39 -9 -36 -27 -87 -38 -115 -18 -44 -23 -50 -47 -48 -15 1 -29 4 -31 5 -6 7 8 48 16 43 10 -6 37 66 52 137 7 32 13 58 15 58 1 0 25 -5 53 -11z m1010 -19 c0 -25 -11 -25 -41 0 l-24 19 33 1 c25 0 32 -4 32 -20z"/> <path d="M1865 1531 l-30 -7 32 -16 c27 -13 31 -14 26 -1 -3 8 0 19 8 24 16 10 8 10 -36 0z"/> <path d="M1917 1524 c-14 -14 -6 -24 19 -24 16 0 24 5 22 13 -5 14 -31 21 -41 11z"/> <path d="M1600 1451 c0 -16 -6 -32 -12 -34 -8 -4 -7 -6 3 -6 9 -1 20 6 23 15 9 24 7 54 -4 54 -5 0 -10 -13 -10 -29z"/> <path d="M2611 1440 l1 -45 10 34 c6 23 6 37 -1 44 -8 8 -11 -2 -10 -33z"/> </g> </svg> 