<?xml version="1.0" standalone="no"?>
<!DOCTYPE svg PUBLIC "-//W3C//DTD SVG 20010904//EN"
 "http://www.w3.org/TR/2001/REC-SVG-20010904/DTD/svg10.dtd">
<svg version="1.0" xmlns="http://www.w3.org/2000/svg"
 width="300.000000pt" height="300.000000pt" viewBox="0 0 300.000000 300.000000"
 preserveAspectRatio="xMidYMid meet">
<metadata>
Created by potrace 1.10, written by Peter Selinger 2001-2011
</metadata>
<g transform="translate(0.000000,300.000000) scale(0.100000,-0.100000)"
fill="#d8d4d5" stroke="none">
<path d="M2378 1932 c-9 -2 -18 -12 -20 -23 -3 -20 -9 -21 -210 -19 -133 0
-209 -3 -213 -10 -7 -11 -161 -14 -168 -2 -3 4 -122 6 -265 5 l-260 -1 -10 23
c-10 21 -15 23 -43 15 -18 -5 -36 -15 -40 -22 -5 -7 -14 -13 -21 -13 -7 0 -14
-14 -16 -32 -2 -18 -5 -33 -6 -33 -15 0 -66 24 -66 31 0 15 -663 12 -678 -3
-12 -12 -17 -134 -6 -162 5 -14 45 -16 341 -16 284 0 337 2 349 15 9 8 26 15
39 15 20 0 24 -6 27 -37 l3 -38 87 -3 c81 -3 87 -4 90 -25 3 -25 36 -35 50
-15 7 10 11 10 15 1 2 -7 15 -13 28 -13 13 0 26 6 29 13 5 10 7 10 12 0 3 -7
16 -13 29 -13 13 0 26 6 29 13 5 10 7 10 12 0 3 -7 16 -13 29 -13 13 0 25 6
28 13 4 10 7 10 18 0 7 -8 39 -13 74 -13 76 0 88 -11 120 -112 27 -85 28 -86
160 -87 61 0 98 4 115 14 69 40 95 12 158 -173 54 -156 60 -190 40 -210 -14
-14 -3 -28 26 -34 26 -4 60 -113 43 -139 -9 -15 -8 -22 5 -35 14 -15 27 -13
163 24 81 23 152 45 157 50 8 8 -8 81 -29 138 -2 7 10 16 26 22 29 10 31 14
31 64 0 70 -34 162 -103 283 -32 55 -57 112 -57 127 0 37 38 78 80 87 46 9 50
34 11 70 -17 16 -31 38 -31 50 0 30 -1 34 -11 52 -6 12 0 23 22 43 24 22 28
30 19 46 -12 22 -32 25 -62 9 -16 -9 -24 -7 -43 11 -13 12 -31 20 -42 18 -11
-3 -23 5 -33 22 -9 16 -22 25 -32 22z m21 -42 c10 -29 9 -30 -21 -30 -29 0
-30 1 -15 18 10 10 17 24 17 30 0 21 8 13 19 -18z m-1179 0 c0 -13 -23 -18
-45 -10 -19 7 -19 8 5 18 26 10 40 7 40 -8z m535 -29 c8 -14 195 -15 195 -1 0
6 72 10 196 10 127 0 193 -3 189 -10 -4 -6 13 -10 45 -10 32 0 49 4 45 10 -3
6 3 10 14 10 33 0 78 -62 95 -132 6 -26 4 -28 -22 -28 -25 0 -31 7 -54 62 -23
56 -28 62 -57 63 -17 1 -31 -2 -31 -6 0 -5 11 -34 25 -64 13 -31 20 -55 14
-53 -6 2 -23 32 -36 66 -18 45 -30 62 -44 62 -24 0 -24 4 6 -64 27 -62 28 -66
17 -66 -4 0 -18 27 -31 61 -21 54 -43 80 -57 67 -2 -3 5 -31 17 -62 12 -31 24
-54 27 -52 2 3 -3 24 -12 47 -9 23 -15 44 -12 46 5 5 26 -41 41 -86 6 -19 4
-22 -15 -19 -17 2 -28 17 -45 63 -16 45 -27 61 -44 63 l-21 3 21 -53 c12 -29
23 -59 26 -65 3 -7 1 -13 -4 -13 -5 0 -20 29 -33 65 l-24 65 -123 0 c-67 0
-124 -4 -127 -9 -3 -5 41 -7 103 -4 l109 4 23 -55 c12 -31 25 -54 27 -51 2 2
-3 23 -12 46 -9 23 -15 44 -12 46 5 5 26 -41 40 -85 7 -20 5 -21 -209 -22
-154 0 -215 3 -215 11 0 8 -15 9 -47 4 -27 -4 -135 -9 -242 -11 -176 -4 -194
-3 -206 13 -10 13 -31 18 -89 21 l-76 4 0 58 0 57 309 2 c208 1 311 -1 316 -8z
m819 -20 c3 -5 -5 -16 -17 -24 -21 -14 -24 -13 -35 3 -10 16 -8 19 11 23 12 2
25 5 29 6 4 0 9 -3 12 -8z m-1574 -76 l0 -75 -312 2 -313 3 -3 59 c-2 32 -1
65 2 72 4 11 63 14 316 14 l310 0 0 -75z m23 -1 c-2 -103 -13 -108 -13 -6 0
45 3 82 8 82 4 0 6 -34 5 -76z m25 -1 l-1 -68 -6 55 c-6 52 -4 80 5 80 2 0 3
-30 2 -67z m1208 4 c19 -45 23 -70 10 -56 -10 10 -45 109 -38 109 4 0 17 -24
28 -53z m111 -2 c11 -30 17 -55 12 -55 -5 0 -9 2 -9 5 0 2 -9 27 -20 55 -11
27 -16 50 -12 50 4 0 17 -25 29 -55z m70 -48 c-4 -13 -47 77 -47 97 1 6 12
-11 26 -37 14 -27 23 -54 21 -60z m11 51 c12 -28 20 -54 17 -56 -7 -7 -8 -4
-33 56 -11 28 -18 52 -13 52 4 0 17 -23 29 -52z m-1338 -3 c0 -41 -2 -45 -25
-45 -23 0 -25 4 -25 45 0 41 2 45 25 45 23 0 25 -4 25 -45z m135 -33 c37 -6
34 -7 -35 -13 l-75 -5 78 -2 77 -2 0 -35 0 -35 -80 0 -80 0 0 50 0 50 38 0
c20 0 55 -4 77 -8z m523 -19 c-10 -2 -28 -2 -40 0 -13 2 -5 4 17 4 22 1 32 -1
23 -4z m124 -44 c-4 -24 0 -31 17 -36 11 -3 21 -12 21 -19 0 -19 19 -18 26 1
5 12 25 15 89 15 46 0 87 5 90 10 7 12 75 14 75 2 0 -4 -15 -7 -32 -5 -18 2
-41 -3 -51 -11 -18 -14 -18 -16 2 -71 21 -55 21 -58 4 -71 -14 -10 -16 -17 -7
-31 6 -10 20 -19 30 -21 32 -5 52 -44 109 -213 42 -124 54 -171 49 -196 -5
-26 -11 -33 -29 -33 -22 0 -23 3 -18 38 4 20 13 43 22 50 14 11 13 12 -9 7
-21 -5 -22 -4 -7 5 18 12 15 30 -6 30 -7 0 -6 -4 3 -10 9 -6 10 -10 3 -10 -14
0 -30 28 -28 50 0 8 -4 19 -10 23 -5 5 1 5 15 2 17 -4 21 -3 12 3 -8 5 -13 13
-12 18 1 5 -4 10 -12 12 -9 2 -8 0 2 -7 10 -7 11 -11 3 -11 -14 0 -30 28 -28
50 0 8 -4 19 -10 23 -5 5 1 5 15 2 14 -3 21 -3 15 2 -10 8 -14 20 -19 52 -2 8
-9 17 -17 19 -11 3 -11 1 1 -7 13 -10 13 -11 0 -11 -13 0 -13 -1 0 -11 13 -9
13 -10 0 -6 -8 2 -15 8 -16 13 -2 20 -18 50 -40 74 -26 29 -59 133 -48 152 4
7 3 10 -1 5 -5 -4 -22 5 -37 20 l-29 28 -222 -1 c-122 0 -202 1 -177 3 25 3
48 7 52 11 4 4 -79 7 -185 6 l-192 0 165 5 165 6 -170 5 -170 6 173 2 c109 1
172 -2 172 -8 0 -5 5 -10 11 -10 5 0 7 5 4 10 -3 6 3 10 14 10 11 0 25 -8 30
-17 6 -10 11 -13 11 -7 1 30 -26 34 -217 34 -186 0 -193 1 -193 20 0 19 8 20
293 23 160 1 295 3 298 5 3 1 4 -12 1 -29z m236 4 l-3 -28 -110 0 c-103 0
-110 1 -110 20 0 18 8 20 66 23 60 3 67 1 72 -18 3 -13 13 -20 29 -19 l23 1
-25 8 c-22 7 -21 8 13 9 20 1 37 6 37 11 0 7 -15 9 -37 5 -28 -4 -33 -3 -18 4
11 5 30 10 43 10 20 1 23 -3 20 -26z m78 5 c-6 -10 -23 -18 -38 -18 -20 0 -28
5 -28 18 0 14 8 17 39 17 34 0 37 -1 27 -17z m364 -21 c16 -19 30 -37 30 -40
0 -2 -13 -7 -29 -10 -47 -10 -82 -47 -87 -92 -4 -32 2 -52 26 -95 90 -163 122
-239 127 -303 4 -49 2 -65 -9 -69 -10 -4 -14 6 -16 43 -3 66 -31 144 -91 249
-59 104 -73 148 -60 193 13 45 13 44 -30 66 -21 11 -52 37 -69 58 l-30 38 104
-2 104 -2 30 -34z m-215 -13 c21 -26 53 -53 72 -60 30 -13 32 -17 22 -36 -20
-38 -2 -105 57 -209 61 -108 94 -199 94 -260 0 -38 -1 -39 -22 -28 -30 16
-157 13 -208 -5 -36 -12 -40 -12 -40 3 0 32 -109 341 -129 367 -11 14 -17 32
-14 41 4 9 0 21 -8 27 -19 14 -60 125 -49 131 5 3 15 2 24 -1 9 -3 27 -3 41 0
19 5 25 13 25 35 0 37 6 41 55 41 38 0 46 -5 80 -46z m-958 -50 c-3 -3 -12 -4
-19 -1 -8 3 -5 6 6 6 11 1 17 -2 13 -5z m70 0 c-3 -3 -12 -4 -19 -1 -8 3 -5 6
6 6 11 1 17 -2 13 -5z m70 0 c-3 -3 -12 -4 -19 -1 -8 3 -5 6 6 6 11 1 17 -2
13 -5z m260 -32 c-22 -24 -21 -50 2 -105 22 -52 35 -57 141 -57 57 0 83 5 108
20 17 11 32 25 32 30 0 6 5 8 10 5 20 -12 9 -30 -27 -44 -21 -8 -87 -16 -148
-18 l-110 -4 -19 63 c-10 35 -27 78 -37 96 l-18 32 41 0 c39 0 40 -1 25 -18z
m161 -15 c2 -16 -6 -44 -18 -64 -18 -31 -19 -38 -7 -50 13 -13 19 -13 45 1 16
8 36 29 43 45 17 38 45 56 51 33 7 -27 -8 -59 -38 -78 -20 -14 -45 -17 -106
-16 -44 1 -86 7 -94 12 -7 6 -19 32 -28 56 -15 45 -15 46 9 70 22 22 33 25 83
22 54 -3 57 -4 60 -31z m65 22 c12 -7 23 -13 25 -14 5 -4 -56 -91 -74 -106
-16 -13 -16 -12 -5 10 7 12 11 45 9 72 -3 53 4 59 45 38z m-63 -99 c-6 -11
-13 -20 -16 -20 -2 0 0 9 6 20 6 11 13 20 16 20 2 0 0 -9 -6 -20z m213 -16
c-7 -18 -17 -18 -32 -1 -8 10 -7 17 1 25 15 15 39 -3 31 -24z m44 -170 c-3 -3
-12 -4 -19 -1 -8 3 -5 6 6 6 11 1 17 -2 13 -5z m357 -242 c3 -5 -53 -17 -124
-28 -72 -11 -130 -17 -130 -12 0 10 38 30 75 39 42 10 173 11 179 1z m30 -104
c5 -23 3 -28 -12 -28 -13 0 -23 14 -34 49 -15 46 -15 50 1 54 16 3 32 -23 45
-75z m-57 18 l20 -54 -26 -6 c-14 -3 -65 -16 -113 -30 l-87 -24 -19 62 c-18
60 -15 75 15 76 6 0 19 -26 29 -57 9 -32 18 -53 20 -48 3 6 -2 32 -10 58 l-14
46 32 6 c17 3 51 10 76 14 25 5 48 9 51 10 3 1 15 -23 26 -53z m71 -68 c-6
-17 -280 -90 -292 -78 -6 6 -8 10 -5 11 2 0 65 18 139 39 151 43 163 45 158
28z"/>
<path d="M1165 1831 c36 -7 595 -4 603 4 3 3 -138 4 -314 4 -175 -1 -305 -4
-289 -8z"/>
<path d="M1838 1823 c6 -2 18 -2 25 0 6 3 1 5 -13 5 -14 0 -19 -2 -12 -5z"/>
<path d="M2460 1820 c8 -5 20 -10 25 -10 6 0 3 5 -5 10 -8 5 -19 10 -25 10 -5
0 -3 -5 5 -10z"/>
<path d="M385 1801 c-6 -11 534 -11 580 0 17 3 -106 7 -272 8 -177 1 -304 -3
-308 -8z"/>
<path d="M383 1724 c8 -8 595 -9 604 -1 3 4 -132 7 -302 7 -170 0 -306 -3
-302 -6z"/>
<path d="M1167 1663 c18 -2 50 -2 70 0 21 2 7 4 -32 4 -38 0 -55 -2 -38 -4z"/>
<path d="M2229 1242 c11 -8 11 -10 0 -15 -10 -4 -8 -6 4 -6 21 -1 18 21 -4 27
-12 3 -12 2 0 -6z"/>
<path d="M2288 1037 c-3 -19 -2 -25 4 -19 6 6 8 18 6 28 -3 14 -5 12 -10 -9z"/>
<path d="M2524 1621 c-35 -21 -51 -41 -35 -41 6 0 11 4 11 9 0 5 16 16 35 25
33 16 44 26 28 26 -5 0 -22 -9 -39 -19z"/>
</g>
</svg>
