<?xml version="1.0" standalone="no"?>
<!DOCTYPE svg PUBLIC "-//W3C//DTD SVG 20010904//EN"
 "http://www.w3.org/TR/2001/REC-SVG-20010904/DTD/svg10.dtd">
<svg version="1.0" xmlns="http://www.w3.org/2000/svg"
 width="300.000000pt" height="300.000000pt" viewBox="0 0 300.000000 300.000000"
 preserveAspectRatio="xMidYMid meet">
<metadata>
Created by potrace 1.10, written by Peter Selinger 2001-2011
</metadata>
<g transform="translate(0.000000,300.000000) scale(0.100000,-0.100000)"
fill="#d8d4d5" stroke="none">
<path d="M1310 2455 c-157 -36 -256 -89 -360 -194 -85 -86 -138 -182 -167
-301 -14 -57 -22 -73 -42 -83 -33 -16 -50 -61 -33 -87 16 -26 15 -39 -3 -74
-10 -18 -15 -50 -13 -80 1 -28 -6 -124 -16 -213 -10 -89 -15 -174 -12 -188 8
-31 66 -60 102 -51 21 6 24 3 24 -19 0 -90 82 -172 188 -190 36 -6 42 -10 42
-32 0 -43 31 -92 88 -141 30 -26 62 -56 71 -66 58 -70 121 -132 152 -152 96
-60 233 -69 332 -20 28 14 94 65 145 113 82 78 96 88 129 88 33 0 40 4 58 37
11 21 27 38 35 38 9 0 26 7 38 16 18 13 22 25 22 73 0 57 1 59 41 85 42 28 89
109 89 154 0 14 4 21 11 17 16 -10 76 4 94 21 20 20 20 120 0 278 -8 65 -12
137 -9 160 5 31 2 45 -10 55 -18 15 -21 59 -5 93 14 32 -3 76 -34 87 -19 8
-28 23 -41 75 -61 243 -237 424 -481 491 -85 24 -347 30 -435 10z m331 -24
c31 -5 75 -15 98 -21 38 -10 41 -13 41 -44 0 -20 -6 -36 -14 -39 -8 -3 -49 1
-93 8 -98 18 -234 18 -338 1 -86 -15 -115 -9 -115 24 0 38 31 52 160 73 49 8
206 7 261 -2z m-431 -70 c0 -49 20 -56 114 -43 105 15 257 15 364 0 80 -12 85
-11 99 7 8 11 12 30 10 43 -2 12 0 22 5 22 22 0 146 -73 191 -112 l49 -41 -29
-22 -28 -23 41 -79 c23 -43 51 -108 63 -145 25 -74 46 -90 86 -64 34 23 40 -3
6 -31 -24 -20 -26 -28 -29 -118 -3 -73 -7 -95 -17 -91 -76 29 -362 96 -410 96
-14 0 -25 3 -25 6 0 3 32 42 70 86 47 54 70 89 70 106 0 19 -36 62 -152 179
-201 202 -175 202 -370 3 -181 -184 -178 -176 -78 -293 69 -81 70 -82 42 -85
-51 -5 -301 -63 -358 -82 -31 -11 -60 -20 -63 -20 -3 0 -7 42 -9 92 -4 97 -13
128 -37 128 -8 0 -15 9 -15 20 0 18 1 18 30 2 44 -25 59 -10 101 101 20 54 48
115 63 137 27 42 26 65 -5 75 -29 9 -24 20 31 67 43 38 162 108 183 108 4 0 7
-13 7 -29z m456 -231 c82 -83 150 -159 152 -169 2 -10 -29 -55 -74 -109 -71
-85 -80 -92 -113 -92 -25 0 -40 6 -49 20 -17 28 -132 29 -159 1 -10 -10 -31
-21 -46 -23 -25 -5 -36 4 -107 86 -91 104 -97 127 -48 169 l31 28 28 -28 c24
-25 34 -56 30 -101 -1 -9 -13 -11 -43 -6 -32 4 -39 3 -27 -5 9 -6 41 -13 72
-17 66 -8 65 -9 70 126 2 66 3 57 5 -41 l2 -125 -32 -17 c-25 -14 -27 -16 -8
-11 46 13 250 16 282 5 40 -14 50 -5 12 11 l-29 13 -4 123 c-2 83 0 122 7 122
7 0 12 -37 14 -102 l3 -103 53 2 c29 1 60 7 70 13 13 9 9 10 -20 6 l-38 -5 0
43 c0 30 6 48 20 61 34 31 22 38 -15 9 -29 -22 -35 -33 -35 -64 0 -21 6 -41
13 -43 6 -3 2 -6 -10 -6 -21 -1 -22 3 -25 102 l-3 102 -134 3 c-77 1 -139 -2
-144 -7 -5 -5 -9 -53 -8 -105 2 -92 1 -96 -20 -96 -16 0 -19 3 -12 13 6 6 8
28 6 47 -4 27 -13 42 -39 59 l-34 23 19 27 c34 46 208 211 223 211 9 0 83 -68
164 -150z m-671 61 c3 -6 -8 -31 -25 -57 -16 -26 -35 -63 -41 -83 -46 -142
-60 -160 -102 -128 -16 11 -16 16 -1 67 20 66 51 130 93 188 27 36 34 41 51
32 10 -5 21 -14 25 -19z m1093 -13 c39 -57 70 -120 93 -186 18 -52 18 -56 1
-68 -36 -29 -56 -13 -82 66 -14 41 -41 103 -60 137 -34 61 -34 63 -15 77 28
22 31 21 63 -26z m-488 -208 l0 -125 -95 0 -95 0 0 125 0 125 95 0 95 0 0
-125z m-786 -116 c12 -12 16 -37 16 -109 0 -86 -2 -95 -21 -106 -15 -8 -24 -8
-32 0 -6 6 -21 11 -34 11 -14 0 -23 6 -23 15 0 10 11 15 35 15 29 0 37 5 46
27 5 15 9 43 7 62 -3 34 -5 36 -40 39 -21 2 -38 6 -38 10 1 16 26 36 67 51 1
1 9 -6 17 -15z m1437 -4 c32 -18 23 -40 -16 -40 l-35 0 0 -49 c0 -72 6 -81 51
-81 28 0 39 -4 39 -15 0 -10 -10 -15 -29 -15 -16 0 -31 -6 -33 -12 -3 -9 -12
-8 -32 5 l-27 18 7 92 c3 51 8 95 11 100 6 10 41 9 64 -3z m-1461 -55 c0 -3
-8 -17 -17 -31 -13 -21 -14 -30 -5 -45 10 -16 9 -19 -7 -19 -17 0 -19 5 -15
38 8 54 12 62 29 62 8 0 15 -2 15 -5z m1464 -11 c3 -9 6 -31 6 -50 0 -29 -3
-34 -22 -33 -13 0 -17 3 -10 6 17 7 15 53 -5 75 -15 17 -15 18 4 18 12 0 24
-7 27 -16z m-680 -25 c10 -15 26 -22 52 -23 22 0 46 -9 56 -18 12 -12 34 -18
66 -19 26 0 75 -6 109 -12 52 -10 -4 -12 -354 -12 -354 0 -407 2 -353 12 36 7
84 12 107 13 49 0 73 8 73 24 0 7 16 11 40 11 28 0 47 7 62 23 32 31 120 32
142 1z m-783 -20 c-9 -22 -10 -22 -10 -3 -1 11 2 24 6 27 12 12 14 0 4 -24z
m1439 0 c0 -10 -4 -19 -10 -19 -5 0 -10 12 -10 26 0 14 4 23 10 19 6 -3 10
-15 10 -26z m-915 2 c-14 -14 -75 -23 -75 -12 0 5 15 12 33 14 17 2 36 5 42 5
6 1 6 -1 0 -7z m427 -5 c9 0 14 -4 12 -8 -8 -13 -29 -9 -50 8 -19 15 -19 16 1
8 11 -4 28 -7 37 -8z m-522 -11 c0 -8 -8 -15 -18 -15 -36 0 -304 -71 -379
-100 -42 -16 -78 -28 -80 -26 -2 1 19 15 45 29 51 28 173 65 332 103 52 12 96
22 98 23 1 1 2 -6 2 -14z m710 -20 c143 -34 285 -82 312 -106 19 -15 12 -14
-42 7 -72 29 -358 104 -395 104 -14 0 -25 5 -25 10 0 16 37 12 150 -15z m124
-68 c147 -35 165 -60 221 -302 18 -75 24 -90 24 -60 0 57 -53 251 -78 286 -24
33 -21 36 14 13 13 -9 28 -13 33 -10 14 8 20 -23 34 -175 13 -153 9 -169 -42
-169 -27 0 -28 2 -40 83 -17 112 -45 199 -72 225 -68 63 -200 76 -731 69 -422
-5 -483 -11 -540 -53 -40 -29 -66 -94 -85 -212 l-18 -107 -33 -3 c-32 -3 -33
-3 -26 30 22 109 59 257 71 279 32 64 113 102 252 119 37 4 265 7 507 6 364
-3 452 -6 509 -19z m-1275 -10 c-2 -1 -12 -9 -21 -16 -15 -12 -18 -11 -18 3 0
10 8 16 22 16 12 0 19 -1 17 -3z m1491 -12 c0 -13 -4 -14 -20 -5 -11 6 -20 13
-20 15 0 3 9 5 20 5 11 0 20 -7 20 -15z m-1478 -47 c-23 -25 -67 -168 -78
-250 -9 -71 -27 -100 -20 -33 3 28 11 103 17 168 8 80 16 116 24 114 6 -3 22
1 36 9 36 20 45 17 21 -8z m388 -4 c0 -2 -15 -4 -32 -4 -23 0 -29 3 -19 9 12
8 51 4 51 -5z m-115 -6 c-27 -5 -56 -16 -62 -25 -8 -10 -14 -51 -14 -97 l-2
-81 -7 85 c-4 47 -11 93 -15 102 -7 17 21 23 115 25 28 1 25 -1 -15 -9z m733
-2 c2 -2 -3 -15 -11 -28 -9 -12 -34 -66 -57 -118 -22 -52 -45 -104 -49 -115
-5 -11 -12 -29 -16 -40 -6 -18 -10 -16 -41 19 -93 107 -151 103 -257 -18 -32
-36 -69 -69 -81 -72 -29 -7 -164 44 -231 88 l-50 33 -3 104 c-2 65 1 108 8
117 14 16 56 22 225 34 120 8 554 5 563 -4z m246 1 c3 4 6 1 6 -5 0 -7 6 -12
13 -12 7 0 21 -6 30 -12 15 -12 14 -21 -8 -113 -58 -248 -139 -474 -162 -452
-2 3 7 42 20 88 14 46 31 111 38 143 7 35 22 68 36 82 20 20 23 33 23 97 0 41
3 95 6 121 6 41 5 46 -10 40 -10 -4 -13 -11 -8 -18 5 -6 5 -24 1 -41 l-8 -30
3 33 c1 17 -1 32 -6 32 -4 0 -8 7 -8 15 0 8 -5 15 -10 15 -7 0 -7 -7 0 -21 15
-27 11 -226 -4 -226 -6 0 -30 -12 -54 -27 -47 -29 -96 -51 -90 -39 6 12 66
139 98 208 16 34 31 76 33 95 3 19 6 36 6 37 1 1 12 -2 25 -7 13 -5 27 -6 30
-3z m-198 -59 c-13 -29 -47 -107 -76 -173 -29 -66 -56 -123 -60 -128 -3 -4
-14 -1 -24 6 -17 13 -14 23 55 180 70 157 76 167 101 167 l28 0 -24 -52z m54
48 c0 -3 -4 -8 -10 -11 -5 -3 -10 -1 -10 4 0 6 5 11 10 11 6 0 10 -2 10 -4z
m68 -11 c1 -1 -30 -75 -70 -164 -76 -171 -77 -173 -150 -188 -19 -4 -28 -1
-28 7 0 7 8 10 19 7 17 -4 30 19 98 173 75 172 79 179 103 173 14 -3 26 -7 28
-8z m-1014 -17 c3 -13 7 -67 8 -120 3 -84 6 -99 26 -120 12 -14 22 -30 22 -38
0 -23 71 -223 102 -285 l29 -60 -44 46 c-41 41 -49 60 -91 193 -26 81 -61 199
-77 263 -29 111 -30 117 -13 130 25 18 33 16 38 -9z m-40 -136 c16 -64 47
-175 70 -245 23 -70 40 -129 39 -131 -2 -2 -24 1 -50 5 -126 24 -179 139 -147
322 15 88 40 167 53 167 3 0 19 -53 35 -118z m1231 88 c21 -40 45 -161 45
-223 -1 -145 -56 -222 -171 -240 l-36 -5 43 134 c24 74 56 186 71 249 15 63
28 115 30 115 1 0 9 -13 18 -30z m-118 -52 c-3 -8 -6 -5 -6 6 -1 11 2 17 5 13
3 -3 4 -12 1 -19z m3 -83 c0 -14 -4 -25 -9 -25 -4 0 -6 11 -3 25 2 14 6 25 8
25 2 0 4 -11 4 -25z m-1043 -17 c-3 -7 -5 -2 -5 12 0 14 2 19 5 13 2 -7 2 -19
0 -25z m619 -84 c98 -109 128 -112 297 -29 37 18 67 31 67 29 0 -10 -44 -168
-67 -239 -24 -76 -62 -132 -104 -155 -38 -21 -277 -32 -432 -21 -146 12 -153
13 -175 39 -32 38 -84 150 -126 270 -41 119 -43 132 -17 108 36 -33 174 -86
223 -86 41 0 52 5 82 34 18 19 47 51 62 72 31 40 76 64 106 56 10 -2 48 -38
84 -78z m-581 46 c3 -5 2 -10 -4 -10 -5 0 -13 5 -16 10 -3 6 -2 10 4 10 5 0
13 -4 16 -10z m975 -300 c0 -5 -4 -10 -9 -10 -6 0 -13 5 -16 10 -3 6 1 10 9
10 9 0 16 -4 16 -10z m60 -49 c0 -45 -10 -61 -36 -61 -2 0 -4 25 -4 55 0 48 2
55 20 55 17 0 20 -7 20 -49z m-869 -101 c5 0 20 -23 34 -50 59 -117 151 -180
272 -188 67 -4 79 -2 137 27 36 17 76 45 90 62 22 26 27 28 33 14 8 -22 -52
-76 -117 -108 -34 -16 -63 -22 -121 -22 -101 1 -189 42 -251 118 -24 28 -76
83 -116 121 -76 73 -89 89 -102 137 -7 24 2 18 62 -41 39 -39 75 -70 79 -70z
m730 86 c-12 -18 -21 -40 -22 -47 0 -8 -21 -31 -45 -53 -64 -56 -69 -25 -7 40
26 27 56 59 65 72 27 34 32 26 9 -12z m69 29 c0 -19 -27 -55 -42 -55 -22 0
-23 5 0 35 15 21 42 34 42 20z m6 -66 c-7 -45 -26 -62 -26 -23 0 25 15 54 28
54 2 0 1 -14 -2 -31z m-38 -47 c3 -37 1 -42 -17 -42 -18 0 -21 6 -21 46 0 38
3 45 18 42 12 -2 18 -15 20 -46z m-65 -16 c-12 -19 -71 -86 -78 -86 -18 0 1
34 37 64 45 39 53 43 41 22z m-453 -22 c63 -4 165 -1 225 5 99 9 111 9 123 -6
23 -31 -6 -42 -146 -55 -179 -16 -368 0 -394 35 -27 34 -22 40 30 33 26 -3 99
-9 162 -12z m349 -90 c-12 -14 -14 -14 -20 3 -4 11 0 22 10 30 21 15 29 -11
10 -33z m-274 11 c66 0 144 3 174 7 l54 7 -29 -30 c-16 -17 -49 -43 -74 -57
-39 -24 -56 -27 -130 -27 -97 0 -140 17 -200 79 l-35 37 60 -8 c33 -4 114 -8
180 -8z"/>
<path d="M1925 2280 c33 -33 61 -60 63 -60 10 0 -23 42 -62 78 -68 63 -69 51
-1 -18z"/>
<path d="M1057 2289 c-20 -17 -42 -40 -48 -52 -6 -12 12 0 40 28 28 27 51 51
51 52 0 6 -7 2 -43 -28z"/>
<path d="M2123 1835 c0 -27 2 -38 4 -22 2 15 2 37 0 50 -2 12 -4 0 -4 -28z"/>
<path d="M2132 1750 c0 -19 2 -27 5 -17 2 9 2 25 0 35 -3 9 -5 1 -5 -18z"/>
<path d="M1476 2255 c-22 -22 -4 -55 30 -55 28 0 42 25 27 49 -14 22 -38 25
-57 6z m43 -9 c9 -10 8 -16 -4 -26 -19 -16 -41 1 -32 24 8 20 21 20 36 2z"/>
<path d="M1414 2185 c-8 -13 -13 -29 -9 -35 7 -11 187 -15 198 -4 6 6 -19 64
-28 64 -2 0 0 -12 5 -26 13 -33 13 -34 -6 -34 -8 0 -12 5 -9 10 4 6 -18 10
-59 10 -42 0 -66 -4 -69 -12 -2 -7 -8 -10 -12 -6 -5 5 -3 19 3 33 15 32 7 32
-14 0z m73 -31 c-3 -3 -12 -4 -19 -1 -8 3 -5 6 6 6 11 1 17 -2 13 -5z"/>
<path d="M1212 1988 c-25 -25 -6 -68 30 -68 9 0 22 9 28 20 22 40 -26 80 -58
48z m48 -29 c0 -12 -7 -19 -19 -19 -26 0 -36 17 -21 35 15 18 40 8 40 -16z"/>
<path d="M1740 1985 c-26 -32 13 -81 48 -59 34 22 22 74 -18 74 -10 0 -23 -7
-30 -15z m51 -39 c-16 -19 -41 -10 -41 14 0 24 21 31 39 14 11 -10 12 -16 2
-28z"/>
<path d="M778 1833 c7 -3 16 -2 19 1 4 3 -2 6 -13 5 -11 0 -14 -3 -6 -6z"/>
<path d="M830 1319 c0 -2 5 -42 10 -88 15 -114 42 -166 105 -198 29 -15 28
-14 -11 29 -56 60 -61 71 -73 163 -6 44 -16 84 -21 89 -6 6 -10 8 -10 5z"/>
<path d="M2156 1313 c-3 -16 -8 -48 -12 -73 -11 -78 -35 -134 -72 -172 -48
-51 -34 -60 16 -10 46 46 69 107 78 210 7 71 1 98 -10 45z"/>
</g>
</svg>
