 <svg  version="1.0" xmlns="http://www.w3.org/2000/svg"  width="300.000000pt" height="300.000000pt" viewBox="0 0 300.000000 300.000000"  preserveAspectRatio="xMidYMid meet">  <g transform="translate(0.000000,300.000000) scale(0.050000,-0.050000)" fill="#4a96ca" stroke="none"> <path d="M2895 5677 c-242 -54 -393 -453 -230 -607 53 -49 64 -70 43 -78 -15 -6 -28 -32 -28 -59 0 -40 -8 -46 -49 -38 -50 10 -231 -65 -231 -95 0 -9 -50 -64 -111 -123 -61 -58 -122 -125 -135 -149 -99 -177 -134 -252 -134 -288 0 -23 -17 -75 -37 -116 -123 -245 9 -478 241 -425 119 28 116 29 116 -49 0 -43 15 -85 39 -109 51 -51 54 -201 8 -398 -33 -139 -33 -149 -1 -173 49 -36 47 -182 -4 -209 -75 -40 -112 -497 -44 -545 57 -40 43 -271 -29 -458 -44 -117 -51 -157 -39 -254 9 -82 4 -141 -18 -205 -42 -120 -40 -191 8 -239 58 -58 56 -298 -3 -455 -98 -263 -51 -326 217 -299 165 17 167 23 118 259 -39 185 -7 388 73 462 49 46 55 65 55 181 0 71 10 155 23 186 13 31 30 115 39 186 9 72 35 193 58 270 67 221 75 251 117 417 57 220 65 214 123 -85 13 -62 32 -158 44 -215 16 -78 15 -143 -5 -266 -22 -138 -22 -178 1 -257 15 -52 26 -149 23 -217 -4 -113 -1 -126 51 -167 l56 -44 0 -296 c0 -345 -9 -327 176 -335 79 -3 232 -11 340 -17 299 -18 377 151 104 229 -226 64 -366 342 -251 498 35 47 39 67 22 111 -20 53 -27 192 -22 424 4 161 3 298 -2 424 -4 75 5 115 29 142 45 50 38 440 -10 534 -49 97 -60 213 -23 240 26 19 28 39 12 116 -23 107 -22 109 56 53 44 -31 67 -36 96 -21 30 16 48 9 94 -39 37 -38 64 -52 76 -40 13 13 65 -27 148 -112 l129 -132 43 44 43 43 -83 74 c-45 41 -106 91 -136 111 -37 25 -50 47 -40 70 7 18 15 42 18 53 3 11 12 36 21 56 22 52 -19 88 -60 54 -41 -34 -200 109 -177 159 61 140 69 367 18 501 -15 39 -36 106 -47 150 -81 319 -236 610 -325 610 -10 0 -19 12 -19 27 0 43 -87 111 -161 126 -82 16 -131 68 -87 93 15 9 28 28 28 42 0 15 24 50 53 79 53 54 58 227 9 330 -78 165 -98 193 -162 224 -93 46 -174 57 -265 36z m180 -53 c-3 -9 29 -49 70 -88 88 -83 103 -60 17 26 -33 32 -52 58 -43 58 48 0 141 -145 141 -218 l0 -76 -275 -25 c-194 -17 -285 -34 -310 -56 -20 -17 -35 -22 -35 -9 0 30 35 49 119 66 62 12 64 14 16 16 -33 1 -55 13 -55 30 0 16 -5 41 -10 56 -14 36 132 191 192 204 109 24 129 27 153 30 14 1 23 -5 20 -14z m105 -375 c0 -32 -68 -135 -75 -114 -5 14 -17 20 -27 14 -24 -15 -23 24 3 72 18 34 99 57 99 28z m-435 -114 c11 -73 7 -85 -24 -66 -25 16 -28 131 -3 131 9 0 22 -29 27 -65z m374 -28 l61 12 -26 -63 c-48 -117 -288 -127 -335 -13 -29 69 -17 88 37 59 32 -17 50 -13 87 17 43 34 50 35 81 7 24 -21 55 -27 95 -19z m-349 -167 c-14 -44 75 -112 175 -133 46 -10 55 -22 55 -75 0 -35 11 -75 24 -88 19 -19 -3 -24 -99 -24 -106 0 -124 5 -135 42 -19 58 -3 66 67 29 87 -44 127 -40 119 12 -4 30 -40 62 -111 98 -57 30 -99 45 -92 34 7 -11 52 -37 100 -58 91 -41 127 -112 42 -85 -149 47 -254 217 -168 273 34 22 37 19 23 -25z m430 -61 c0 -21 -27 -58 -60 -82 -33 -25 -60 -61 -60 -81 0 -20 -9 -36 -20 -36 -53 0 -17 98 51 138 58 34 69 50 58 85 -9 28 -6 38 9 28 12 -7 22 -31 22 -52z m-80 -6 c0 -29 -89 -77 -108 -58 -7 6 13 27 43 47 69 44 65 43 65 11z m-424 -57 c74 -74 -52 -126 -129 -53 -35 33 -41 48 -22 60 38 24 124 20 151 -7z m584 -47 c0 -27 9 -49 20 -49 11 0 20 -13 20 -30 0 -36 -38 -40 -49 -5 -22 74 -29 156 -11 145 11 -7 20 -34 20 -61z m-40 -86 c0 -75 -23 -91 -111 -74 -87 16 -87 35 1 77 39 18 70 43 70 54 0 12 -22 6 -50 -12 -42 -28 -50 -28 -50 -3 0 16 20 38 45 49 58 26 95 -10 95 -91z m-581 17 c24 12 57 20 75 16 20 -4 6 -18 -39 -40 l-70 -33 -58 63 c-53 59 -53 61 -4 17 45 -39 60 -43 96 -23z m-94 -46 l55 -58 -130 -142 c-147 -161 -155 -188 -69 -220 63 -24 71 -66 18 -100 -24 -14 -45 -6 -85 33 -28 29 -68 53 -88 52 -27 0 -22 -8 19 -30 74 -41 69 -53 -13 -38 -74 14 -152 -3 -152 -32 0 -10 29 -13 65 -7 l65 12 -65 -42 c-36 -23 -65 -52 -65 -64 0 -14 20 -9 53 12 116 76 231 76 147 0 -22 -20 -40 -46 -40 -57 0 -11 28 8 62 43 78 80 299 101 259 25 -12 -21 -21 -65 -21 -99 0 -76 1 -76 -218 -104 -179 -23 -185 -22 -214 19 -17 24 -43 43 -59 43 -15 0 -43 23 -61 51 -47 71 16 277 78 257 44 -14 106 39 208 178 l71 96 -35 79 c-29 64 -31 84 -10 109 34 41 74 8 123 -100 24 -53 36 -66 37 -39 0 40 -49 126 -89 154 -30 21 27 55 67 39 18 -6 57 -38 87 -70z m938 -100 c-10 -52 -10 -88 0 -82 9 6 17 30 17 54 0 24 9 56 18 72 27 41 69 -49 55 -118 -12 -58 107 -314 160 -346 14 -8 32 -49 39 -90 8 -40 26 -92 41 -113 29 -42 37 -151 12 -151 -8 0 -13 -56 -9 -125 8 -194 -14 -205 -145 -76 -156 154 -157 280 -4 282 67 0 76 4 47 21 -19 11 -64 15 -100 8 -48 -9 -56 -7 -34 8 17 12 59 22 95 22 36 0 65 9 65 20 0 25 -62 26 -129 0 -48 -18 -51 -15 -51 41 0 34 -16 73 -39 93 -38 32 -38 34 0 109 51 99 49 127 -3 37 l-40 -70 10 110 c5 61 14 133 21 160 10 40 7 38 -15 -10 -25 -54 -29 -56 -39 -20 -32 107 -37 208 -12 247 39 64 59 22 40 -83z m-733 65 c23 -72 -32 -113 -60 -45 -17 40 -18 60 -2 71 35 23 48 18 62 -26z m-435 -113 c11 -36 -76 -77 -96 -45 -8 14 -10 38 -5 53 13 33 89 27 101 -8z m305 19 c-1 -24 -201 -245 -223 -245 -11 0 28 58 87 130 98 120 136 152 136 115z m620 -35 c22 -26 -2 -30 -200 -30 -198 0 -222 4 -200 30 19 22 69 30 200 30 131 0 181 -8 200 -30z m-271 -331 c-37 -61 -111 -28 -248 110 -138 139 -140 143 -108 189 l32 46 167 -166 c91 -91 162 -171 157 -179z m283 170 l-2 -90 -158 5 c-219 8 -239 56 -24 56 120 0 152 6 152 29 0 24 -41 31 -203 35 -306 9 -299 56 8 56 l229 0 -2 -91z m-992 62 c0 -57 -163 -174 -188 -134 -6 9 4 16 22 16 18 0 56 28 84 62 47 56 82 80 82 56z m591 -307 c-5 -5 -49 24 -97 64 -69 56 -115 76 -201 87 l-112 15 51 65 51 65 158 -144 c87 -79 155 -147 150 -152z m489 206 c0 -38 -9 -70 -20 -70 -11 0 -20 32 -20 70 0 39 9 70 20 70 11 0 20 -31 20 -70z m32 -165 c-6 -6 -34 5 -63 24 -48 31 -55 31 -87 3 -39 -35 -172 -45 -152 -11 7 11 24 19 37 17 59 -7 114 4 104 21 -7 10 19 14 60 9 62 -8 74 -2 86 37 11 39 14 36 19 -22 4 -37 2 -72 -4 -78z m-352 -21 c-1 -47 -38 -71 -69 -45 -29 24 -28 29 4 52 33 25 65 21 65 -7z m-339 -63 c-12 -21 -21 -84 -21 -140 0 -88 -5 -101 -40 -101 -34 0 -40 13 -40 89 0 121 29 191 80 191 35 0 38 -6 21 -39z m771 -85 c48 -45 88 -89 88 -99 0 -34 -42 -15 -120 55 -67 61 -85 69 -111 47 -25 -21 -39 -17 -80 22 -59 55 -36 96 31 56 38 -23 47 -22 67 8 13 20 26 26 30 13 4 -11 47 -58 95 -102z m-103 -120 l181 -174 -45 -46 c-44 -44 -45 -44 -80 -6 -33 35 -33 36 0 12 29 -23 37 -21 48 8 17 45 -7 83 -100 158 -93 76 -152 46 -73 -38 96 -102 0 -46 -133 78 -141 132 -167 205 -33 94 130 -107 174 -75 53 39 l-72 69 36 -60 37 -60 -53 47 c-41 37 -47 53 -29 73 29 32 28 33 263 -194z m163 195 c30 -77 -2 -94 -61 -32 l-58 61 54 0 c30 0 59 -13 65 -29z m-662 -8 c70 -21 374 -303 327 -303 -18 0 -44 14 -58 31 -55 67 -106 79 -91 21 14 -56 -4 -67 -47 -27 -22 20 -25 18 -14 -12 11 -29 6 -35 -20 -25 -19 8 -40 4 -47 -8 -8 -13 -28 -4 -51 23 -24 27 -27 37 -9 27 26 -15 26 -13 3 16 -32 39 -73 46 -50 9 10 -17 4 -16 -19 2 -40 33 -45 51 -9 33 14 -6 5 3 -20 22 -33 24 -45 53 -45 107 0 107 24 120 150 84z m669 -258 c1 -14 -5 -25 -13 -25 -26 0 -106 87 -106 115 0 36 117 -53 119 -90z m-959 45 c0 -20 -21 -30 -65 -30 -36 0 -87 -6 -115 -13 -78 -19 -23 26 60 50 100 28 120 27 120 -7z m804 -64 c83 -81 94 -109 41 -100 -49 7 -87 34 -76 53 6 8 -8 32 -29 51 -40 36 -52 70 -26 70 8 0 48 -33 90 -74z m-664 -24 l0 -59 -65 32 -64 32 59 26 c33 14 62 26 65 26 3 1 5 -25 5 -57z m540 -52 c-27 -33 0 -42 32 -10 14 14 38 2 75 -36 90 -95 13 -150 -105 -75 -95 60 -96 63 -39 125 47 49 79 47 37 -4z m-164 -25 c-5 -46 -17 -56 -71 -61 -86 -9 -94 62 -10 93 83 30 88 28 81 -32z m-485 15 c23 0 23 -10 0 -65 -37 -88 -118 -93 -128 -7 -7 60 28 99 74 82 14 -6 39 -10 54 -10z m304 -9 c31 -30 -20 -73 -80 -67 -102 10 -106 91 -3 83 40 -3 78 -10 83 -16z m895 -255 l220 -223 -180 161 c-213 192 -305 286 -278 286 10 0 118 -101 238 -224z m-42 -34 c119 -120 211 -227 204 -239 -28 -45 -152 38 -152 101 0 20 -13 42 -30 49 -16 6 -30 24 -30 39 0 58 -64 106 -125 94 -77 -15 -184 79 -153 137 33 62 61 45 286 -181z m-550 174 c37 -22 36 -27 -22 -130 -33 -58 -52 -106 -42 -106 10 0 38 41 62 90 24 50 53 90 65 90 22 0 -15 -72 -80 -159 -33 -44 -37 -44 -98 -13 -76 40 -76 33 -10 154 57 105 67 111 125 74z m-313 -36 c109 0 115 -2 115 -50 0 -56 -43 -63 -227 -37 -82 11 -93 18 -93 62 0 42 7 48 45 38 25 -7 97 -13 160 -13z m-311 -106 c-4 -89 -7 -95 -54 -90 -85 10 -87 186 -1 186 59 0 60 -2 55 -96z m855 44 c-6 -10 -40 -18 -75 -18 l-64 1 50 38 c48 38 115 22 89 -21z m74 -116 c-3 -37 3 -73 14 -80 12 -7 27 -50 34 -95 l13 -82 -117 -13 c-64 -8 -142 -18 -172 -24 l-55 -11 0 148 c0 174 21 210 130 221 151 15 161 11 153 -64z m-523 24 c5 -5 13 -80 17 -168 l7 -158 -57 1 c-82 1 -530 55 -540 65 -5 5 1 48 13 97 l22 87 109 -7 c108 -7 109 -6 122 55 l12 62 142 -13 c79 -7 147 -17 153 -21z m665 -46 c-17 -44 -39 -80 -48 -80 -22 0 -22 3 13 88 42 99 75 92 35 -8z m75 1 c0 -39 -40 -121 -60 -121 -25 0 -25 23 0 89 18 49 60 71 60 32z m-537 -184 c-7 -96 -8 -97 -75 -97 l-68 0 0 129 0 128 75 -32 c74 -31 75 -34 68 -128z m-298 -116 c88 -1 115 -8 115 -31 0 -35 11 -35 -278 -9 -266 23 -322 35 -322 67 0 18 44 18 185 -1 102 -13 237 -25 300 -26z m670 14 c-5 -14 -57 -31 -117 -39 -59 -9 -133 -20 -163 -25 -38 -7 -55 -2 -55 18 0 24 109 47 317 68 14 2 23 -8 18 -22z m-375 -45 c0 -21 -21 -30 -70 -30 -49 0 -70 9 -70 30 0 21 21 30 70 30 49 0 70 -9 70 -30z m-348 -67 l218 -13 -6 -80 c-5 -68 -22 -96 -120 -186 -116 -109 -110 -119 15 -25 51 38 65 42 56 17 -7 -18 -23 -70 -34 -114 -23 -83 -70 -89 -152 -21 -13 11 -58 31 -101 46 -73 25 -78 32 -78 105 0 71 -6 80 -65 97 -95 28 -90 223 5 199 25 -6 143 -17 262 -25z m682 -248 c0 -157 8 -359 16 -450 l14 -165 -59 0 c-70 0 -91 -21 -124 -126 -45 -139 22 -294 127 -294 54 0 82 -155 52 -288 -9 -40 -9 -76 -1 -81 18 -12 15 -133 -4 -163 -21 -34 -174 -53 -207 -26 -18 14 -28 63 -28 131 0 66 -14 134 -35 173 -28 52 -35 117 -37 344 -2 324 -29 606 -77 787 -37 141 -33 156 26 125 49 -27 89 -29 74 -4 -6 11 -38 25 -71 32 -88 19 -89 41 -5 91 86 51 58 77 -33 30 -79 -41 -78 -42 -64 44 l13 75 159 14 c138 13 200 21 251 33 6 2 12 -125 13 -282z m-994 26 c0 -11 14 -14 31 -8 26 10 27 4 6 -41 -16 -36 -29 -45 -39 -29 -12 19 -21 19 -45 0 -42 -36 -57 16 -17 62 33 38 64 46 64 16z m605 -213 c71 -364 93 -646 68 -864 -13 -108 -9 -140 27 -214 40 -83 68 -330 38 -330 -36 0 -67 76 -71 177 -3 62 -16 152 -29 199 -16 56 -18 127 -7 210 29 225 7 410 -90 744 -42 142 -38 279 6 264 13 -4 39 -88 58 -186z m473 -74 c-2 -118 -7 -147 -18 -104 -23 92 -23 294 0 280 11 -7 19 -86 18 -176z m-1202 31 c-10 -63 -14 -131 -9 -151 6 -22 1 -33 -14 -28 -12 4 -20 34 -17 66 3 32 6 96 8 143 1 51 12 85 26 85 18 0 19 -29 6 -115z m118 -60 c-22 -178 -18 -170 -61 -153 -68 26 -35 308 36 308 42 0 43 -3 25 -155z m272 102 c7 -7 3 -30 -9 -52 -25 -47 -65 -19 -46 32 14 34 33 42 55 20z m-92 -80 c97 -42 206 -95 206 -100 0 -55 -27 -64 -97 -34 -40 17 -102 40 -138 50 -51 15 -65 30 -65 68 0 58 -2 58 94 16z m-57 -216 c29 -15 76 -33 103 -40 99 -22 104 -34 60 -160 -22 -65 -41 -136 -42 -159 -2 -23 -10 1 -19 54 -36 217 -213 241 -302 43 -96 -218 130 -400 259 -209 41 61 46 64 37 20 -6 -27 -16 -90 -23 -139 -8 -61 -38 -124 -93 -197 -83 -111 -91 -178 -9 -74 l47 58 -10 -109 c-14 -154 -50 -214 -135 -230 -167 -32 -226 46 -178 233 16 59 22 122 15 138 -9 21 -17 12 -28 -30 -10 -44 -14 -26 -15 70 0 72 18 198 40 280 22 83 45 218 50 301 l11 150 65 -7 c36 -4 71 2 79 14 17 28 24 28 88 -7z m37 -198 c32 -32 29 -185 -4 -246 -71 -132 -208 -81 -214 79 -5 143 135 250 218 167z m869 -28 c9 -159 8 -199 -6 -240 -43 -122 -173 13 -147 152 28 148 146 216 153 88z m-83 -1133 c0 -42 26 -84 100 -158 74 -74 95 -106 79 -125 -23 -28 -99 -16 -99 16 0 13 -9 12 -26 -1 -83 -70 -165 28 -119 142 24 62 26 84 8 90 -19 6 -19 15 1 40 22 26 21 29 -2 15 -16 -10 -24 -10 -18 1 5 10 16 36 24 57 19 53 51 5 52 -77z"/> <path d="M2914 5524 c-88 -90 -90 -102 -23 -165 43 -40 54 -43 69 -18 16 24 26 25 60 3 37 -22 47 -20 80 20 54 64 50 78 -36 162 l-76 74 -74 -76z m126 -84 c0 -27 -13 -40 -40 -40 -27 0 -40 13 -40 40 0 27 13 40 40 40 27 0 40 -13 40 -40z"/> <path d="M2773 3963 c-18 -20 -33 -53 -33 -75 1 -27 10 -19 33 27 39 79 64 81 167 13 89 -59 86 -90 -15 -165 -30 -23 -45 -42 -34 -42 32 -1 151 122 143 147 -28 85 -210 152 -261 95z"/> <path d="M3129 3451 c-29 -51 -49 -97 -44 -103 6 -6 34 32 63 84 69 123 52 139 -19 19z"/> <path d="M3312 1453 c22 -59 209 -100 238 -53 8 12 -22 20 -76 20 -55 0 -99 12 -114 30 -31 37 -62 39 -48 3z"/> <path d="M2450 1560 c36 -40 132 -53 198 -28 59 23 33 46 -27 25 -46 -16 -74 -13 -123 11 -84 42 -92 40 -48 -8z"/> </g> </svg> 