<?xml version="1.0" standalone="no"?>
<!DOCTYPE svg PUBLIC "-//W3C//DTD SVG 20010904//EN"
 "http://www.w3.org/TR/2001/REC-SVG-20010904/DTD/svg10.dtd">
<svg version="1.0" xmlns="http://www.w3.org/2000/svg"
 width="300.000000pt" height="300.000000pt" viewBox="0 0 300.000000 300.000000"
 preserveAspectRatio="xMidYMid meet">
<metadata>
Created by potrace 1.10, written by Peter Selinger 2001-2011
</metadata>
<g transform="translate(0.000000,300.000000) scale(0.100000,-0.100000)"
fill="#d8d4d5" stroke="none">
<path d="M877 2388 c-19 -16 -37 -60 -37 -95 l0 -25 -29 31 c-46 50 -112 37
-145 -28 -11 -21 -36 -152 -36 -189 0 -4 -7 4 -16 16 -19 27 -72 30 -103 5
-12 -10 -29 -45 -39 -78 -15 -52 -17 -102 -14 -365 2 -291 3 -309 27 -392 16
-57 25 -112 25 -159 0 -63 4 -78 30 -119 25 -40 28 -51 20 -78 -5 -20 -5 -67
0 -120 6 -48 10 -90 10 -95 0 -4 11 -12 25 -17 15 -6 25 -17 25 -29 0 -38 35
-46 200 -46 164 0 344 24 388 51 12 8 22 23 22 33 0 11 5 21 12 23 9 3 9 34 1
134 -6 85 -7 136 0 149 5 11 45 75 89 142 79 121 80 123 98 231 10 60 23 127
28 148 6 21 13 95 16 164 8 143 1 163 -53 163 -40 0 -80 -37 -118 -109 l-28
-54 -5 268 c-5 246 -7 270 -26 302 -28 48 -64 65 -109 50 -46 -15 -63 -49 -79
-163 l-14 -92 -1 133 c-1 185 -20 222 -108 222 -22 0 -47 -6 -56 -12z m77 -14
c25 -10 38 -80 31 -163 l-7 -76 -68 0 c-67 0 -68 0 -65 25 3 14 9 57 15 95 15
95 18 105 43 115 28 11 32 11 51 4z m64 -182 c4 -104 2 -121 -10 -117 -12 5
-15 31 -14 140 1 168 18 152 24 -23z m-230 38 c2 -36 1 -83 -3 -105 l-5 -40
-60 0 c-69 0 -68 -3 -46 107 15 81 38 110 80 106 31 -3 31 -4 34 -68z m408 25
c10 -16 18 -56 22 -112 5 -79 4 -86 -12 -80 -10 4 -43 7 -75 7 l-57 0 7 59 c3
32 12 74 18 94 20 60 68 75 97 32z m-381 -114 c-4 -55 -12 -101 -17 -101 -5 0
-6 19 -2 45 3 25 7 74 8 110 0 35 5 60 9 56 5 -5 6 -54 2 -110z m413 78 c-3
-8 -7 -3 -11 10 -4 17 -3 21 5 13 5 -5 8 -16 6 -23z m19 -395 c-1 -155 1 -277
5 -271 6 10 2 -281 -7 -438 -4 -80 -41 -164 -72 -165 -30 0 -30 9 13 168 38
146 54 276 45 392 -6 86 -6 278 -2 525 3 130 5 158 12 121 4 -27 7 -177 6
-332z m-301 300 l29 -6 0 -176 c0 -97 4 -189 8 -204 8 -31 41 -38 51 -11 6 16
36 276 36 315 0 19 5 20 66 15 36 -2 69 -9 73 -13 4 -5 4 -88 -1 -184 -6 -122
-5 -208 4 -283 15 -142 1 -302 -40 -452 -17 -60 -33 -127 -37 -147 l-6 -38
-172 0 c-95 0 -177 -4 -183 -8 -5 -5 -32 -7 -60 -4 -50 4 -52 5 -64 45 -13 45
-55 110 -89 141 -11 11 -21 29 -21 40 0 12 -12 62 -26 111 -28 96 -39 254 -36
519 2 132 3 136 63 136 l37 0 4 -125 c4 -131 15 -165 48 -145 12 8 16 46 20
209 3 110 7 202 10 204 6 6 44 10 86 8 l31 -1 -5 -127 c-5 -143 8 -216 36
-211 25 5 30 39 31 220 1 150 3 167 19 171 27 7 57 8 88 1z m-360 -60 c4 -14
3 -49 -1 -79 -6 -50 -8 -55 -29 -49 -12 3 -34 0 -49 -5 -31 -12 -31 -13 -1 96
20 73 66 94 80 37z m30 -90 c-3 -36 -7 -68 -7 -72 -1 -4 0 -50 1 -102 l3 -95
13 110 12 110 -2 -120 c-2 -126 -10 -163 -29 -129 -12 21 -17 198 -10 318 4
60 8 75 15 62 6 -11 8 -46 4 -82z m398 -60 l-1 -149 13 70 13 70 -5 -75 c-6
-83 -11 -110 -23 -110 -15 0 -21 60 -21 207 0 111 3 144 13 140 9 -3 12 -42
11 -153z m-207 -8 c-6 -118 -2 -128 12 -31 l9 60 0 -50 c1 -65 -10 -126 -23
-126 -5 0 -13 26 -17 58 -9 74 1 215 15 206 6 -4 8 -46 4 -117z m240 12 c-3
-8 -6 -5 -6 6 -1 11 2 17 5 13 3 -3 4 -12 1 -19z m341 -154 c-15 -31 -28 -63
-28 -70 0 -11 -5 -11 -24 -2 -24 10 -24 12 -9 37 20 31 74 91 83 91 4 0 -6
-25 -22 -56z m58 -81 c-4 -71 -14 -155 -22 -188 -7 -33 -14 -73 -14 -88 0 -24
-3 -27 -20 -22 -51 16 -88 -55 -97 -191 -4 -58 -11 -88 -24 -105 l-19 -24 5
40 c13 110 26 268 24 297 -2 22 7 49 26 82 16 27 42 97 57 155 29 104 60 171
80 171 7 0 8 -40 4 -127z m-112 -6 c15 -11 16 -18 5 -62 -6 -28 -24 -72 -38
-100 l-26 -50 -3 68 c-2 47 2 83 14 113 18 48 22 50 48 31z m66 -316 c0 -5 -8
-8 -17 -7 -25 2 -53 -61 -60 -131 -7 -69 -22 -106 -23 -53 0 40 25 152 40 181
11 19 60 27 60 10z m-6 -53 c-7 -36 -64 -132 -64 -108 0 19 26 115 34 129 4 6
14 11 21 11 11 0 13 -8 9 -32z m-777 -292 c20 -39 34 -86 24 -86 -4 0 -17 24
-30 54 -12 29 -33 64 -46 76 -14 13 -25 31 -25 39 1 19 53 -38 77 -83z m-17
-35 c12 -24 19 -46 16 -49 -7 -7 -7 -8 -44 59 -18 31 -32 63 -32 70 1 19 35
-26 60 -80z m618 -150 l3 -108 -28 -7 c-15 -4 -98 -10 -184 -13 l-155 -6 -23
52 c-19 46 -21 57 -10 89 25 81 25 80 161 82 68 1 143 5 168 10 25 4 50 8 55
9 6 1 12 -41 13 -108z m-479 64 c7 -7 -110 -6 -136 1 -13 4 -21 9 -18 13 4 8
145 -6 154 -14z m81 -15 c-25 -49 -25 -95 -1 -143 l19 -37 -27 0 c-43 0 -62
21 -68 73 -3 25 -3 57 1 70 9 39 45 77 72 77 l24 0 -20 -40z m-96 -22 c-9 -32
-5 -31 -78 -23 -55 6 -66 10 -66 26 0 17 8 19 76 19 74 0 75 -1 68 -22z m-4
-59 c0 -17 -8 -19 -64 -19 -49 0 -65 4 -70 16 -11 28 -7 29 64 26 61 -3 70 -6
70 -23z m0 -38 c0 -5 3 -16 6 -25 5 -13 -1 -16 -34 -16 -68 0 -102 10 -102 31
0 17 8 19 65 19 36 0 65 -4 65 -9z m5 -55 c11 -2 -13 -4 -52 -5 -40 0 -73 2
-73 7 0 6 79 5 125 -2z m473 -18 c-11 -32 -358 -75 -468 -58 -36 5 -71 10 -77
10 -20 0 -15 28 5 33 9 3 89 5 177 4 130 0 150 -2 105 -9 -30 -5 -105 -8 -167
-6 -73 2 -106 0 -95 -6 30 -17 241 -7 377 18 72 13 134 24 138 25 5 0 7 -5 5
-11z"/>
<path d="M1126 2221 c-25 -27 -40 -99 -25 -117 18 -22 76 -18 89 7 21 37 -8
129 -39 129 -4 0 -16 -9 -25 -19z m34 -44 c0 -28 -3 -32 -25 -32 -23 0 -25 3
-20 25 15 57 45 62 45 7z m17 -39 c-2 -13 -4 -3 -4 22 0 25 2 35 4 23 2 -13 2
-33 0 -45z m-17 -23 c0 -16 -9 -19 -34 -9 -25 9 -19 24 9 24 16 0 25 -6 25
-15z"/>
<path d="M873 1942 c-6 -4 8 -7 32 -7 24 0 41 3 38 8 -5 9 -54 9 -70 -1z"/>
<path d="M1107 1918 c-15 -11 -11 -13 24 -14 36 0 39 2 23 13 -22 16 -26 16
-47 1z"/>
<path d="M683 1913 c-27 -10 -11 -18 28 -15 28 3 37 7 28 13 -15 9 -37 10 -56
2z"/>
<path d="M870 1895 c-12 -31 -16 -98 -6 -113 9 -15 41 -16 67 -2 22 12 26 73
7 115 -15 34 -55 34 -68 0z m46 -32 c5 -28 4 -30 -20 -30 -30 0 -30 2 -15 46
13 36 26 31 35 -16z m21 -40 c-3 -10 -5 -2 -5 17 0 19 2 27 5 18 2 -10 2 -26
0 -35z m-17 -18 c0 -9 -9 -15 -25 -15 -16 0 -25 6 -25 15 0 9 9 15 25 15 16 0
25 -6 25 -15z"/>
<path d="M1096 1878 c-22 -34 -31 -96 -16 -113 13 -16 47 -20 74 -9 21 8 22
92 0 122 -19 28 -40 28 -58 0z m38 -14 c14 -36 7 -59 -19 -59 -28 0 -31 11
-13 50 13 29 23 32 32 9z m23 -71 c-3 -10 -5 -2 -5 17 0 19 2 27 5 18 2 -10 2
-26 0 -35z m-19 -15 c-3 -7 -13 -13 -23 -13 -10 0 -20 6 -22 13 -3 7 5 12 22
12 17 0 25 -5 23 -12z"/>
<path d="M681 1862 c-17 -32 -23 -89 -12 -111 14 -25 53 -28 76 -4 12 12 15
25 10 52 -13 69 -52 103 -74 63z m29 -13 c0 -5 4 -8 8 -5 5 3 6 -8 4 -24 -5
-37 -42 -50 -42 -15 0 13 3 30 6 39 7 18 24 22 24 5z m32 -48 c2 -17 1 -28 -4
-25 -4 3 -8 -2 -8 -10 0 -10 -9 -16 -25 -16 -14 0 -25 4 -25 10 0 5 11 12 25
16 18 4 25 13 25 30 0 33 7 30 12 -5z"/>
<path d="M490 1811 c0 -4 11 -6 25 -3 14 2 25 6 25 8 0 2 -11 4 -25 4 -14 0
-25 -4 -25 -9z"/>
<path d="M502 1778 c-15 -15 -16 -104 -1 -113 5 -4 21 -4 35 -1 19 5 24 13 24
39 0 35 -19 78 -35 84 -6 2 -16 -2 -23 -9z m28 -50 c0 -10 -7 -18 -15 -18 -15
0 -21 40 -8 53 9 9 23 -13 23 -35z m16 -26 c-8 -23 -33 -36 -42 -21 -3 6 3 13
15 16 12 3 21 12 21 21 0 8 3 13 6 9 3 -3 3 -14 0 -25z"/>
<path d="M932 1749 c-13 -5 -35 -6 -49 -3 -18 5 -24 3 -19 -5 10 -16 71 -14
86 4 14 17 14 17 -18 4z"/>
<path d="M1088 1723 c22 -9 39 -10 57 -3 14 5 25 11 25 12 0 2 -26 3 -57 4
-56 0 -57 0 -25 -13z"/>
<path d="M747 1719 c-10 -6 -27 -9 -38 -6 -10 3 -19 1 -19 -4 0 -15 57 -10 70
6 15 18 12 18 -13 4z"/>
<path d="M827 1663 c-25 -25 -29 -26 -60 -15 -57 21 -82 15 -112 -24 -24 -31
-31 -35 -59 -30 -57 11 -96 -51 -96 -152 0 -39 6 -67 20 -89 28 -47 34 -41 9
9 -17 32 -20 54 -17 100 6 77 31 112 84 116 30 2 47 12 72 39 25 27 38 34 55
29 67 -20 86 -19 117 8 39 32 54 33 101 0 l37 -25 51 17 c49 18 51 18 78 -2
42 -31 66 -88 67 -159 1 -80 -26 -150 -66 -171 -63 -33 -494 -47 -550 -18 -16
9 -27 11 -23 5 3 -6 19 -18 35 -26 25 -13 61 -14 257 -6 278 12 310 20 339 89
38 91 25 217 -28 278 -33 37 -52 41 -122 22 -39 -10 -46 -9 -71 10 -39 31 -84
28 -118 -5z"/>
<path d="M530 1644 c-23 -13 -24 -14 -4 -14 12 0 27 7 34 15 15 18 4 18 -30
-1z"/>
<path d="M829 1625 c-30 -22 -40 -24 -63 -15 -47 17 -73 12 -101 -22 -21 -25
-34 -31 -60 -30 -20 2 -41 -5 -56 -17 -21 -17 -24 -27 -24 -91 0 -66 2 -74 28
-96 33 -28 85 -31 308 -14 184 14 227 26 257 70 20 30 23 44 19 95 -2 33 -7
69 -11 80 -3 11 0 7 8 -10 32 -65 13 -177 -36 -209 -32 -21 -139 -35 -348 -45
-146 -7 -157 -8 -70 -9 181 -2 364 14 407 34 48 24 73 72 73 142 0 52 -24 131
-36 119 -4 -4 -16 0 -28 8 -26 19 -50 19 -87 0 -28 -15 -32 -14 -73 10 -53 31
-63 31 -107 0z m104 -22 c41 -26 44 -31 41 -63 l-4 -35 13 39 c20 59 78 84
111 47 42 -46 41 -147 -1 -189 -19 -19 -32 -23 -76 -21 -28 2 -62 -3 -75 -10
-16 -8 -46 -11 -90 -7 -46 3 -56 2 -32 -3 25 -6 7 -8 -65 -8 -55 1 -104 -1
-110 -2 -5 -2 -25 -3 -42 -2 -42 1 -65 35 -65 96 0 65 23 96 67 93 27 -2 35
-7 36 -23 0 -15 3 -13 9 9 11 35 48 76 69 76 8 0 29 -5 47 -12 30 -10 31 -14
28 -52 l-4 -41 11 35 c15 50 25 65 41 62 7 -2 10 0 6 4 -10 9 10 34 28 34 7 0
33 -12 57 -27z m62 -233 c3 -6 -4 -10 -17 -10 -18 0 -20 2 -8 10 19 12 18 12
25 0z"/>
<path d="M880 1591 c-5 -11 -9 -46 -9 -78 l2 -58 7 60 c4 33 11 68 15 78 10
23 -2 22 -15 -2z"/>
<path d="M716 1575 c-3 -9 -5 -42 -5 -73 l2 -57 7 70 c8 73 7 87 -4 60z"/>
<path d="M1026 1582 c-13 -22 -17 -91 -6 -108 10 -17 11 -16 6 8 -4 15 -2 46
3 68 9 39 8 49 -3 32z"/>
<path d="M1061 1554 c-17 -67 -24 -109 -17 -103 10 9 38 131 32 136 -3 3 -9
-12 -15 -33z"/>
<path d="M834 1527 c2 -41 8 -63 21 -75 18 -16 18 -16 6 1 -8 9 -17 43 -22 75
l-8 57 3 -58z"/>
<path d="M671 1514 c0 -23 5 -48 15 -60 8 -10 12 -12 8 -4 -5 8 -11 35 -15 60
l-6 45 -2 -41z"/>
<path d="M580 1460 c0 -35 2 -61 4 -59 8 8 10 108 3 116 -4 3 -7 -22 -7 -57z"/>
<path d="M971 1450 c-1 -15 -5 -30 -11 -36 -6 -6 5 -9 31 -9 33 0 36 1 20 9
-11 5 -25 20 -30 35 l-9 26 -1 -25z"/>
<path d="M797 1443 c4 -16 -2 -29 -18 -44 l-24 -21 29 17 c20 12 31 14 39 6 6
-6 18 -11 26 -10 11 0 8 4 -6 11 -13 6 -23 14 -23 18 0 3 -7 15 -15 26 -14 18
-14 18 -8 -3z"/>
<path d="M650 1424 c9 -21 6 -29 -12 -45 -13 -10 -18 -18 -11 -19 6 0 15 5 18
10 3 6 15 10 25 10 19 0 19 1 2 35 -20 40 -36 47 -22 9z"/>
<path d="M811 1256 c-255 -13 -262 -15 -226 -82 10 -20 20 -42 21 -50 3 -22
53 -84 67 -84 7 0 75 -2 152 -3 77 -2 149 1 160 6 19 8 102 119 134 177 18 34
5 18 -65 -75 -32 -44 -63 -83 -68 -87 -17 -12 -324 -4 -338 10 -8 8 -9 12 -1
12 7 0 14 -4 17 -8 4 -6 272 -9 308 -3 15 2 128 152 128 170 0 20 -20 32 -48
29 -9 0 -118 -6 -241 -12z m279 -14 c0 -11 -106 -144 -122 -153 -24 -13 -294
-15 -310 -1 -8 6 -19 8 -23 4 -5 -4 -5 -2 -2 5 4 6 -7 34 -25 63 -23 37 -28
54 -20 62 6 6 81 13 184 18 260 10 318 11 318 2z"/>
<path d="M1060 910 l-85 -6 85 -1 c47 0 99 3 115 7 l30 8 -30 -1 c-16 0 -68
-4 -115 -7z"/>
<path d="M2017 2389 c-36 -21 -47 -71 -48 -216 -1 -122 -3 -131 -11 -78 -19
127 -29 162 -54 186 -33 31 -85 31 -118 0 -39 -37 -46 -91 -46 -358 l0 -248
-31 55 c-42 78 -80 113 -119 112 -60 -2 -63 -12 -56 -152 4 -69 16 -170 26
-225 10 -55 22 -121 25 -146 4 -32 22 -72 60 -130 29 -46 72 -113 94 -149 l40
-65 -9 -65 c-13 -86 -13 -200 0 -200 6 0 10 -11 10 -24 0 -30 25 -40 150 -63
64 -12 148 -17 255 -18 170 0 205 8 205 46 0 11 10 23 24 29 21 8 25 17 31 75
4 36 5 93 3 128 -4 55 -2 68 25 115 24 44 28 59 23 95 -5 31 2 74 24 159 30
116 30 119 33 415 2 263 0 305 -16 356 -10 32 -27 67 -37 77 -27 27 -78 26
-107 -2 l-23 -21 0 46 c0 79 -20 148 -52 180 -25 25 -34 29 -66 24 -24 -4 -45
-16 -59 -34 l-23 -28 0 27 c0 36 -17 79 -38 94 -21 16 -90 17 -115 3z m81 -20
c26 -9 32 -18 42 -62 6 -28 13 -77 17 -108 l6 -57 -64 -4 c-35 -2 -66 -2 -68
-1 -3 2 -5 51 -5 109 -1 93 1 107 18 120 24 17 17 16 54 3z m-83 -154 c1 -107
-2 -136 -13 -140 -12 -4 -14 14 -10 117 4 101 12 158 22 158 0 0 1 -61 1 -135z
m293 60 c16 -19 42 -135 42 -183 0 -11 -114 -8 -122 3 -10 13 -10 189 -1 198
16 16 62 6 81 -18z m-421 -17 c25 -27 30 -44 41 -125 l9 -63 -58 0 c-31 0 -65
-3 -75 -7 -15 -6 -16 1 -12 78 3 46 11 96 18 112 16 34 49 36 77 5z m318 -20
c-3 -18 -1 -67 4 -108 9 -80 1 -122 -11 -55 -9 50 -10 158 -2 179 10 27 15 18
9 -16z m-415 -14 c-6 -14 -10 -70 -10 -125 0 -68 -4 -99 -12 -99 -8 0 -9 27
-5 98 5 89 18 152 32 152 2 0 0 -12 -5 -26z m360 -104 c12 -7 16 -44 20 -189
5 -192 13 -222 48 -188 15 15 17 39 18 170 l1 152 29 5 c16 3 41 4 55 2 23 -3
27 -10 33 -49 3 -25 6 -114 6 -197 0 -116 3 -157 14 -172 32 -43 55 30 56 174
l0 92 38 0 c20 0 42 -4 49 -8 14 -9 18 -153 10 -392 -4 -127 -10 -171 -31
-245 -14 -49 -26 -98 -26 -110 0 -11 -19 -43 -41 -70 -43 -51 -78 -117 -79
-147 0 -12 -12 -17 -52 -20 -29 -2 -58 -1 -64 4 -6 4 -89 9 -185 10 l-174 3
-3 30 c-2 17 -19 90 -38 164 -40 153 -53 312 -36 466 5 55 6 157 0 264 -5 95
-7 175 -5 177 2 3 34 7 70 11 52 5 68 3 71 -8 3 -8 12 -84 20 -168 16 -155 27
-189 55 -172 18 12 34 194 28 318 -4 87 -3 92 17 96 40 8 81 7 96 -3z m354
-93 c30 -109 30 -108 -1 -96 -15 5 -37 8 -49 5 -26 -7 -34 14 -34 91 0 39 4
54 17 62 29 16 51 -6 67 -62z m-90 -217 c-5 -197 -38 -201 -41 -5 -2 131 2
128 14 -10 l8 -90 5 95 c3 52 3 97 0 100 -9 9 -12 138 -3 162 11 31 21 -112
17 -252z m-394 111 c0 -150 -12 -223 -31 -190 -5 9 -11 50 -13 90 l-5 74 13
-65 c13 -63 13 -61 8 71 -5 137 -2 169 18 169 6 0 10 -53 10 -149z m200 -18
c0 -126 -8 -170 -26 -142 -4 7 -9 52 -10 99 l-3 85 8 -67 c12 -110 20 -89 14
36 -4 84 -3 116 6 116 8 0 11 -38 11 -127z m-435 -243 c-3 -63 -7 -136 -7
-162 -1 -29 -5 -45 -11 -41 -7 4 -7 -1 -2 -13 5 -10 12 -57 15 -104 4 -47 24
-147 44 -224 20 -76 36 -145 36 -152 0 -8 -10 -14 -23 -14 -36 0 -67 81 -75
193 -8 113 -2 828 7 842 11 18 22 -207 16 -325z m182 253 c-3 -10 -5 -4 -5 12
0 17 2 24 5 18 2 -7 2 -21 0 -30z m-303 -162 c29 -40 29 -41 10 -55 -18 -13
-20 -11 -36 30 -10 24 -26 57 -35 72 l-18 27 25 -16 c14 -9 38 -35 54 -58z
m-58 8 c12 -24 32 -82 44 -129 12 -47 35 -109 51 -137 23 -42 29 -65 30 -115
0 -35 6 -116 13 -180 6 -65 9 -118 6 -118 -15 0 -29 50 -34 120 -9 126 -44
198 -90 186 -19 -5 -22 2 -40 87 -24 120 -34 341 -15 335 7 -2 23 -24 35 -49z
m117 -112 c18 -44 24 -177 8 -177 -11 0 -46 81 -62 144 -11 44 -10 50 6 62 27
20 28 19 48 -29z m-50 -314 c20 -47 36 -117 37 -161 0 -58 -17 -25 -22 42 -6
76 -35 142 -60 140 -10 -1 -18 2 -18 7 0 5 11 9 23 9 18 0 28 -9 40 -37z m-23
-19 c14 -37 32 -116 27 -121 -8 -7 -57 85 -63 117 -5 24 -3 30 10 30 9 0 21
-12 26 -26z m820 -209 c0 -2 -18 -29 -39 -60 -22 -31 -43 -70 -46 -86 -4 -16
-11 -29 -16 -29 -11 0 -11 0 3 41 18 55 98 164 98 134z m-30 -110 c-28 -49
-50 -76 -50 -60 0 14 31 79 52 107 34 49 33 14 -2 -47z m-592 -65 c27 -5 107
-10 176 -11 123 -2 126 -2 142 -27 26 -39 30 -106 9 -152 l-18 -40 -116 0
c-121 0 -239 13 -251 27 -3 4 -4 49 -2 99 l4 91 41 -8 c23 -5 78 -8 122 -7 77
1 75 1 -34 9 -63 5 -119 13 -125 19 -12 12 -11 12 52 0z m394 -42 c18 -26 23
-46 23 -94 0 -73 -14 -94 -61 -94 l-34 0 20 40 c25 49 25 83 0 138 l-19 42 24
0 c15 0 32 -11 47 -32z m177 11 c-8 -5 -48 -8 -89 -7 l-75 1 80 12 c81 11 108
10 84 -6z m11 -38 c0 -15 -11 -19 -67 -25 -49 -5 -68 -4 -74 6 -21 32 -10 38
66 38 66 0 75 -2 75 -19z m-7 -61 c-5 -17 -14 -20 -69 -20 -57 0 -64 2 -64 20
0 16 8 19 63 22 75 4 76 3 70 -22z m-3 -49 c0 -22 -26 -31 -94 -31 -40 0 -47
3 -42 16 3 9 6 20 6 25 0 5 29 9 65 9 57 0 65 -2 65 -19z m-10 -41 c0 -6 -30
-9 -72 -8 l-73 2 70 6 c39 4 71 7 73 8 1 1 2 -2 2 -8z m-435 -40 c144 -23 331
-28 365 -10 24 13 40 6 24 -10 -18 -18 -154 -28 -259 -19 -98 7 -281 35 -297
45 -17 11 -7 26 15 20 12 -3 81 -15 152 -26z m354 -1 c-17 -11 -219 -11 -274
0 -26 5 17 8 124 8 95 0 157 -3 150 -8z"/>
<path d="M1843 2232 c-29 -18 -43 -108 -21 -130 16 -16 73 -15 86 1 14 16 -3
95 -25 119 -18 20 -23 21 -40 10z m42 -42 c20 -39 19 -45 -10 -45 -21 0 -25 5
-25 31 0 27 6 44 16 44 2 0 10 -13 19 -30z m-48 -52 c-2 -13 -4 -3 -4 22 0 25
2 35 4 23 2 -13 2 -33 0 -45z m63 -18 c0 -5 -7 -10 -15 -10 -8 0 -18 0 -22 -1
-4 0 -9 4 -11 10 -2 6 8 11 22 11 14 0 26 -4 26 -10z"/>
<path d="M2067 1943 c-3 -5 15 -8 40 -9 27 -1 39 2 31 7 -16 11 -65 12 -71 2z"/>
<path d="M1857 1918 c-15 -11 -11 -13 24 -14 36 0 39 2 23 13 -22 16 -26 16
-47 1z"/>
<path d="M2076 1912 c-3 -5 -10 -29 -15 -53 -15 -68 17 -104 73 -83 21 8 22
92 0 122 -15 22 -48 30 -58 14z m59 -54 c6 -25 4 -28 -18 -28 -20 0 -26 6 -29
29 -2 17 -1 28 4 25 4 -3 8 3 8 13 0 15 2 15 14 3 8 -8 18 -27 21 -42z m-25
-40 c23 3 30 0 30 -12 0 -11 -9 -16 -29 -16 -31 0 -42 16 -39 58 1 25 2 25 5
-4 4 -27 7 -30 33 -26z"/>
<path d="M2271 1911 c-9 -6 0 -10 28 -13 41 -4 55 5 25 16 -21 8 -36 7 -53 -3z"/>
<path d="M1858 1883 c-24 -28 -31 -98 -12 -118 20 -20 73 -16 86 5 19 29 -22
130 -51 130 -4 0 -15 -8 -23 -17z m51 -34 c15 -43 15 -44 -14 -44 -21 0 -25 5
-25 31 0 53 22 60 39 13z m-52 -51 c-2 -13 -4 -5 -4 17 -1 22 1 32 4 23 2 -10
2 -28 0 -40z m63 -18 c0 -8 -24 -20 -41 -20 -14 0 -11 28 4 33 15 5 37 -2 37
-13z"/>
<path d="M2269 1859 c-6 -12 -12 -42 -12 -67 -2 -41 1 -47 24 -56 45 -16 59
-3 59 54 0 28 -5 60 -10 71 -14 25 -46 24 -61 -2z m61 -55 c0 -17 -4 -21 -20
-17 -20 5 -25 27 -13 59 6 16 7 16 20 -2 7 -10 13 -28 13 -40z m-53 4 c-3 -7
-5 -2 -5 12 0 14 2 19 5 13 2 -7 2 -19 0 -25z m37 -34 c25 -9 19 -24 -9 -24
-16 0 -25 6 -25 15 0 16 9 19 34 9z"/>
<path d="M2470 1816 c0 -2 11 -6 25 -8 14 -3 25 -1 25 3 0 5 -11 9 -25 9 -14
0 -25 -2 -25 -4z"/>
<path d="M2462 1765 c-7 -14 -12 -41 -12 -60 0 -28 4 -36 24 -41 14 -3 30 -3
35 1 12 7 15 83 5 109 -9 24 -39 19 -52 -9z m48 -31 c0 -15 -6 -24 -15 -24
-16 0 -19 17 -9 44 9 22 24 10 24 -20z m-17 -39 c20 -7 20 -8 3 -12 -20 -5
-36 12 -35 37 1 12 2 11 6 -1 2 -10 14 -20 26 -24z"/>
<path d="M2059 1747 c15 -18 57 -22 81 -7 10 6 5 9 -20 8 -19 -1 -44 2 -55 7
-18 8 -19 7 -6 -8z"/>
<path d="M1850 1726 c5 -5 23 -9 40 -9 17 0 35 4 40 9 5 5 -10 9 -40 9 -30 0
-45 -4 -40 -9z"/>
<path d="M2249 1717 c14 -18 71 -24 71 -8 0 5 -9 7 -19 4 -10 -3 -30 1 -42 8
-22 11 -23 11 -10 -4z"/>
<path d="M2062 1668 c-20 -21 -25 -21 -67 -10 -84 22 -115 10 -151 -60 -38
-73 -23 -238 24 -282 33 -29 82 -37 315 -47 198 -8 231 -7 257 6 17 9 30 20
30 25 0 6 -12 3 -26 -6 -23 -15 -49 -16 -247 -11 -221 7 -287 16 -318 43 -9 8
-24 43 -34 76 -20 73 -14 144 17 199 30 53 59 64 120 43 49 -16 49 -16 87 10
47 33 62 33 101 0 31 -27 50 -28 117 -8 17 5 30 -2 55 -29 25 -27 42 -37 72
-39 53 -4 78 -39 84 -115 2 -44 -2 -67 -17 -97 -24 -46 -21 -60 5 -21 22 34
30 131 14 179 -15 47 -54 78 -87 70 -20 -6 -32 0 -59 30 -35 38 -57 43 -110
24 -29 -10 -35 -9 -64 15 -40 34 -87 36 -118 5z"/>
<path d="M2450 1645 c7 -8 22 -15 34 -15 18 0 17 2 -8 15 -36 19 -42 19 -26 0z"/>
<path d="M2068 1624 c-34 -24 -38 -25 -67 -10 -37 20 -61 20 -87 1 -12 -8 -24
-12 -28 -8 -12 13 -36 -68 -36 -124 0 -71 26 -118 76 -139 42 -18 252 -34 404
-32 64 1 79 3 40 5 -205 9 -394 25 -427 36 -54 18 -83 65 -83 136 1 31 7 70
15 86 11 23 13 24 7 5 -4 -14 -7 -56 -7 -93 0 -64 2 -70 31 -96 19 -18 48 -31
75 -35 72 -10 288 -26 371 -26 67 0 80 3 105 24 26 22 28 30 28 96 0 64 -3 74
-25 92 -18 14 -34 18 -57 15 -28 -5 -36 -1 -53 24 -26 36 -58 45 -105 29 -32
-11 -38 -9 -66 14 -38 32 -64 32 -111 0z m103 -23 c17 -17 29 -40 29 -55 0
-13 5 -28 11 -32 9 -5 10 3 5 28 -6 34 -4 37 25 47 18 6 40 11 50 11 23 0 59
-46 59 -76 0 -13 5 -24 10 -24 6 0 10 9 10 20 0 16 7 20 32 20 50 0 68 -24 68
-90 0 -73 -20 -101 -70 -100 -19 0 -60 1 -91 0 -31 0 -71 6 -89 14 -18 7 -42
11 -54 7 -17 -4 -15 -7 14 -13 19 -3 6 -4 -30 -1 -36 3 -77 11 -91 18 -15 8
-42 11 -67 8 -54 -7 -87 14 -103 66 -15 49 -5 103 25 138 23 26 24 26 62 12
31 -12 40 -21 45 -47 9 -46 23 -55 16 -12 -5 33 -2 38 36 63 53 34 62 34 98
-2z m-128 -238 c-7 -2 -19 -2 -25 0 -7 3 -2 5 12 5 14 0 19 -2 13 -5z"/>
<path d="M2114 1593 c4 -12 9 -45 11 -73 2 -28 6 -55 10 -58 4 -4 5 24 2 61
-2 38 -10 74 -17 80 -10 9 -11 7 -6 -10z"/>
<path d="M1931 1570 c0 -14 6 -45 13 -70 13 -39 15 -41 15 -15 0 17 -6 48 -14
70 -10 32 -13 35 -14 15z"/>
<path d="M1975 1577 c3 -10 5 -42 5 -69 0 -57 5 -61 13 -8 3 21 0 47 -9 65 -8
17 -12 22 -9 12z"/>
<path d="M2165 1547 c0 -23 -3 -55 -7 -72 l-7 -30 14 30 c15 33 19 83 7 102
-4 7 -7 -7 -7 -30z"/>
<path d="M2286 1525 c4 -38 8 -72 10 -74 9 -10 3 116 -6 129 -7 10 -8 -7 -4
-55z"/>
<path d="M2331 1523 c0 -17 -5 -43 -11 -58 -6 -16 -6 -24 0 -20 12 7 23 67 17
92 -3 10 -5 5 -6 -14z"/>
<path d="M2417 1513 c-9 -15 -6 -93 4 -98 5 -4 9 17 9 49 0 53 -3 65 -13 49z"/>
<path d="M2024 1445 c-3 -14 -12 -25 -19 -25 -8 0 -16 -3 -19 -8 -2 -4 13 -7
35 -7 29 0 36 2 27 10 -7 5 -12 20 -10 33 5 30 -6 28 -14 -3z"/>
<path d="M2200 1446 c0 -8 -12 -25 -27 -37 -20 -15 -22 -20 -8 -14 25 9 35 9
60 0 20 -7 20 -7 0 10 -11 9 -19 25 -17 35 2 11 1 20 -2 20 -3 0 -6 -6 -6 -14z"/>
<path d="M2334 1411 c-20 -36 -20 -38 -2 -33 10 2 25 -1 33 -8 9 -7 15 -8 15
-2 0 5 -7 13 -16 16 -12 4 -14 14 -9 36 9 40 4 38 -21 -9z"/>
<path d="M2446 1413 c-6 -14 -5 -15 5 -6 7 7 10 15 7 18 -3 3 -9 -2 -12 -12z"/>
<path d="M1923 1263 c-20 -7 -15 -48 7 -68 11 -10 20 -23 20 -29 -1 -11 -34
25 -57 60 -12 18 -12 18 -6 -1 4 -11 28 -49 54 -85 27 -36 55 -74 62 -85 14
-19 24 -20 178 -17 179 4 181 5 212 66 9 20 25 52 34 71 31 63 19 69 -158 77
-85 3 -194 8 -244 11 -49 2 -96 2 -102 0z m281 -23 c115 -5 213 -13 219 -19 7
-7 -1 -26 -22 -60 -18 -28 -30 -54 -27 -59 3 -5 -5 -18 -17 -29 -20 -18 -36
-20 -174 -20 -164 -1 -162 -1 -206 59 -41 56 -32 59 16 4 l43 -49 152 -2 c140
-1 154 0 170 18 17 20 16 20 -8 5 -20 -12 -52 -14 -168 -10 l-143 4 -59 73
c-33 41 -60 78 -60 84 0 13 13 13 284 1z"/>
</g>
</svg>
