<?xml version="1.0" standalone="no"?>
<!DOCTYPE svg PUBLIC "-//W3C//DTD SVG 20010904//EN"
 "http://www.w3.org/TR/2001/REC-SVG-20010904/DTD/svg10.dtd">
<svg version="1.0" xmlns="http://www.w3.org/2000/svg"
 width="300.000000pt" height="300.000000pt" viewBox="0 0 300.000000 300.000000"
 preserveAspectRatio="xMidYMid meet">
<metadata>
Created by potrace 1.10, written by Peter Selinger 2001-2011
</metadata>
<g transform="translate(0.000000,300.000000) scale(0.100000,-0.100000)"
fill="#d8d4d5" stroke="none">
<path d="M1122 2401 c-45 -8 -61 -22 -63 -56 -8 -152 -8 -155 14 -166 12 -7
23 -13 24 -14 8 -6 -40 -232 -52 -245 -20 -22 -44 -94 -43 -128 0 -15 -5 -76
-13 -135 -13 -107 -13 -109 8 -125 20 -15 22 -24 18 -92 -3 -41 -14 -117 -24
-168 -11 -52 -18 -99 -15 -106 2 -6 -5 -38 -16 -70 -13 -38 -20 -86 -20 -135
-1 -44 -7 -93 -16 -116 -27 -69 -28 -92 -4 -132 20 -34 22 -46 16 -117 -10
-116 -39 -169 -139 -249 -22 -18 -28 -31 -30 -71 -2 -45 0 -50 23 -57 52 -15
189 -10 223 8 18 9 36 16 41 15 4 -2 24 2 42 8 l34 12 0 101 c0 55 5 140 11
188 11 81 14 90 50 128 36 37 39 45 39 95 0 29 11 97 25 150 14 53 25 113 25
134 0 46 19 190 30 217 17 47 32 92 41 125 6 19 14 44 18 55 37 91 101 287
113 347 11 53 28 70 28 29 0 -30 48 -189 85 -281 19 -47 39 -107 45 -135 6
-27 16 -55 22 -62 20 -24 41 -130 57 -288 5 -49 18 -126 30 -169 12 -44 21
-102 21 -131 0 -46 4 -55 38 -91 37 -38 39 -43 50 -144 6 -58 10 -140 9 -182
-2 -87 5 -100 55 -103 18 -1 48 -9 65 -19 40 -20 186 -22 223 -3 22 11 25 19
22 58 -2 33 -9 49 -29 64 -48 38 -102 97 -118 130 -8 19 -18 70 -22 114 -5 72
-3 85 18 125 l23 45 -22 63 c-15 42 -22 86 -22 133 0 41 -8 97 -20 135 -11 36
-20 81 -20 100 0 19 -7 64 -16 100 -8 36 -17 101 -20 145 -4 72 -2 81 17 96
21 16 21 18 9 120 -7 57 -14 122 -16 144 -3 53 -19 103 -40 126 -10 12 -25 61
-35 122 -23 128 -23 124 0 132 26 8 30 24 21 73 -4 23 -4 42 1 42 11 0 0 60
-16 86 -16 25 -103 39 -154 24 -94 -27 -357 -34 -476 -12 -110 19 -127 21
-173 13z m62 -53 c-8 -50 -9 -52 -23 -43 -10 5 -8 32 5 73 2 6 8 12 14 12 6 0
8 -15 4 -42z m650 26 c9 -22 7 -74 -2 -74 -4 0 -12 20 -18 45 -8 34 -7 45 2
45 6 0 15 -7 18 -16z m-709 -3 c-19 -4 -31 -13 -33 -26 -2 -11 -8 -24 -14 -30
-6 -7 -7 0 -2 20 10 43 12 45 47 44 l32 -1 -30 -7z m135 -1 c12 0 15 -9 12
-41 -4 -39 -5 -40 -36 -33 -43 9 -43 8 -38 49 4 32 7 36 26 31 11 -3 28 -6 36
-6z m534 -6 c3 -9 6 -26 6 -39 0 -19 -7 -24 -41 -29 -23 -4 -43 -5 -44 -4 -2
2 -6 20 -10 40 -7 36 -6 37 27 41 18 2 38 5 44 5 7 1 15 -5 18 -14z m125 -21
c6 -20 8 -39 6 -41 -5 -5 -12 13 -17 43 -2 13 -14 22 -33 26 l-30 7 32 1 c29
1 33 -3 42 -36z m-603 11 c-3 -9 -6 -31 -6 -50 0 -24 -5 -34 -15 -34 -16 0
-19 19 -9 69 4 18 13 31 21 31 10 0 13 -6 9 -16z m368 0 c3 -9 6 -31 6 -50 0
-40 -24 -48 -26 -9 -1 14 -5 36 -8 50 -7 28 17 36 28 9z m-548 -38 c-6 -64
-27 -126 -43 -126 -21 0 -25 22 -13 71 7 24 14 56 17 72 3 18 12 27 24 27 16
0 18 -6 15 -44z m274 34 c34 0 35 -1 35 -41 l0 -41 -58 5 c-32 3 -60 7 -62 9
-3 2 -2 21 2 42 5 32 9 37 27 32 12 -3 37 -6 56 -6z m236 -26 c9 -47 -3 -54
-93 -54 -40 0 -76 -1 -80 -2 -5 -2 -9 16 -11 39 l-3 42 83 4 c46 1 86 4 90 5
4 1 10 -14 14 -34z m252 6 c2 -14 8 -29 12 -35 4 -5 10 -30 11 -55 3 -35 1
-45 -13 -48 -12 -2 -20 10 -32 51 -22 76 -21 119 2 115 9 -2 19 -14 20 -28z
m-665 -49 c16 -1 16 -3 2 -31 -14 -27 -91 -78 -101 -67 -2 2 1 27 7 55 12 50
13 51 43 48 17 -2 39 -4 49 -5z m623 -46 c7 -27 11 -51 9 -53 -7 -7 -115 46
-115 57 0 5 -3 16 -6 24 -4 11 2 17 23 19 69 10 76 6 89 -47z m-595 3 c-11
-29 -51 -60 -100 -77 -54 -18 -47 -6 16 25 38 19 63 39 71 57 17 34 26 30 13
-5z m475 4 c7 -19 26 -35 55 -48 24 -11 55 -26 69 -32 25 -12 25 -12 -5 -6
-64 12 -115 42 -130 76 -15 35 -19 29 -8 -11 4 -17 24 -32 69 -52 35 -16 70
-29 79 -29 16 0 17 -6 35 -115 7 -38 14 -77 16 -86 3 -12 -7 -21 -36 -33 -22
-9 -40 -17 -40 -19 0 -1 9 -81 20 -177 21 -185 26 -200 76 -200 19 0 22 -7 27
-52 2 -29 3 -56 1 -60 -3 -4 -17 1 -33 9 -26 16 -33 15 -94 -1 -68 -18 -89
-34 -105 -76 -9 -24 -10 -23 -17 15 -5 22 -41 139 -81 260 -40 121 -72 221
-71 222 2 1 44 -32 96 -73 51 -41 95 -73 98 -71 5 5 -148 129 -198 161 -30 19
-31 19 -20 0 11 -18 149 -440 169 -516 6 -23 7 -40 1 -44 -5 -3 -9 8 -9 23 0
16 -6 37 -14 48 -7 11 -17 36 -21 55 -4 19 -25 81 -46 138 -51 133 -100 305
-91 313 4 4 57 -6 117 -22 61 -16 117 -28 125 -26 14 3 -33 17 -215 64 l-70
18 -3 40 c-2 34 1 42 20 50 37 16 48 52 48 161 l0 101 40 7 c22 3 51 4 64 0
14 -3 33 -1 43 5 26 15 27 14 39 -17z m-281 6 c1 -2 5 -80 8 -175 l5 -172 -23
9 c-13 5 -60 27 -105 50 -45 23 -84 39 -87 36 -6 -6 127 -75 182 -94 22 -8 42
-16 44 -18 9 -8 -63 -234 -74 -234 -9 0 -2 33 21 108 19 59 32 112 30 117 -3
6 -5 2 -5 -7 -1 -10 -7 -15 -15 -12 -14 5 -54 -15 -126 -62 -68 -45 -37 -37
45 11 42 25 79 45 80 43 7 -6 -50 -188 -58 -188 -5 0 -46 17 -90 39 -45 21
-96 44 -114 51 -17 6 -30 17 -28 23 2 7 6 35 9 63 l6 52 -41 16 c-40 16 -41
17 -34 54 4 20 13 68 19 106 12 67 13 70 47 82 69 23 101 45 114 78 l14 34 87
-3 c47 -2 87 -5 89 -7z m82 -80 c-4 -46 -7 -100 -7 -120 0 -28 -5 -40 -21 -48
-11 -7 -22 -10 -24 -8 -2 2 -6 60 -10 131 l-7 127 37 0 38 0 -6 -82z m-410
-283 c2 -1 -6 -19 -17 -40 -11 -22 -20 -46 -20 -53 0 -10 -7 -12 -27 -7 -41
10 -46 19 -33 62 19 58 26 63 63 51 18 -6 33 -12 34 -13z m827 -7 c28 -68 28
-74 1 -86 -38 -17 -41 -16 -53 27 -7 21 -19 44 -28 52 -13 11 -11 14 18 25 48
17 48 17 62 -18z m-830 -153 c-23 -191 -22 -190 -67 -189 -59 2 -62 9 -48 126
7 56 15 106 17 109 2 4 17 2 32 -3 27 -11 28 -14 22 -52 -15 -83 -21 -166 -12
-166 5 0 12 39 16 88 4 48 8 98 10 112 4 29 35 105 40 99 2 -2 -3 -58 -10
-124z m772 61 c3 -17 12 -80 19 -141 l15 -110 -5 96 c-2 52 -7 102 -10 110 -4
10 5 18 24 26 26 9 31 8 35 -6 10 -33 26 -202 21 -211 -9 -15 -74 -23 -89 -11
-8 7 -18 56 -25 134 -7 67 -15 136 -18 152 -4 29 -4 29 11 11 9 -11 18 -33 22
-50z m-716 -71 c0 -19 -18 -38 -29 -31 -6 4 -11 20 -11 37 0 27 2 28 20 17 11
-7 20 -17 20 -23z m55 -4 c6 -10 -14 -61 -24 -61 -3 0 -12 4 -20 9 -12 8 -13
14 -3 35 12 26 36 34 47 17z m112 -56 c61 -24 68 -32 54 -54 -7 -11 -18 -10
-62 7 -118 44 -111 40 -99 62 12 23 15 23 107 -15z m-120 -25 c6 0 121 -39
130 -45 2 -1 -3 -15 -9 -32 l-11 -30 -48 22 c-27 12 -54 27 -61 32 -7 6 -32
17 -55 24 -40 11 -43 15 -43 46 l0 34 45 -26 c24 -15 48 -26 52 -25z m-81 -38
c15 -9 -1 -56 -16 -47 -12 7 -14 55 -2 55 4 0 12 -4 18 -8z m64 -33 c0 -6 -5
-19 -10 -30 -9 -15 -15 -17 -30 -9 -16 8 -17 14 -7 39 9 24 14 28 29 20 10 -5
18 -14 18 -20z m180 16 c0 -12 -24 -55 -32 -55 -10 0 -10 3 2 34 8 22 30 37
30 21z m-32 -89 c2 -9 -3 -18 -10 -21 -18 -7 -133 40 -132 54 1 6 2 17 3 25 2
19 135 -36 139 -58z m-201 29 c15 -8 56 -25 91 -37 53 -19 62 -26 58 -43 -2
-11 -10 -40 -16 -64 -18 -72 -5 -70 14 2 10 37 22 67 27 67 11 0 2 -44 -17
-82 -8 -15 -14 -36 -14 -48 0 -33 -14 -23 -38 25 -24 49 -41 59 -129 78 -45
10 -55 9 -71 -6 -25 -23 -32 -8 -25 56 5 39 9 47 27 47 11 0 28 5 36 10 20 13
24 13 57 -5z m18 -131 c48 -15 54 -21 78 -70 23 -47 26 -61 20 -116 -6 -56
-11 -67 -49 -105 -37 -38 -47 -43 -88 -43 -53 0 -104 18 -126 45 -31 38 -2
235 41 281 26 28 54 30 124 8z m773 -7 c41 -43 71 -248 41 -283 -32 -39 -135
-58 -181 -33 -80 43 -108 152 -64 252 23 52 28 57 73 71 71 22 106 20 131 -7z
m-904 -328 c50 -22 111 -24 150 -4 15 8 30 15 33 15 4 0 -2 -46 -13 -97 -2
-12 -27 -48 -54 -79 -50 -57 -58 -75 -23 -55 10 6 14 11 10 11 -5 0 10 21 32
46 44 50 61 95 61 161 0 23 5 45 10 48 18 11 11 -67 -15 -160 -14 -49 -25
-115 -25 -146 0 -91 -58 -141 -104 -90 -23 25 -72 45 -92 37 -15 -6 -15 -8 1
-26 10 -11 23 -20 28 -20 6 0 2 10 -9 21 l-19 21 39 -16 c21 -9 40 -16 42 -16
2 0 4 -5 4 -11 0 -16 -117 -3 -146 16 -32 20 -39 66 -18 107 11 21 20 71 25
138 4 58 10 116 15 129 6 21 8 21 16 6 6 -9 29 -25 52 -36z m716 -10 c0 -66
12 -98 52 -144 22 -25 34 -45 26 -45 -7 -1 0 -8 15 -16 16 -9 30 -14 33 -12 2
2 -21 31 -50 65 -45 52 -54 68 -59 114 -4 29 -5 54 -3 56 2 2 16 -3 32 -12 53
-28 149 -12 189 31 l23 24 11 -44 c6 -25 11 -76 11 -115 0 -47 7 -87 20 -121
18 -45 19 -54 6 -84 -11 -27 -22 -35 -59 -45 -56 -14 -107 -14 -107 -1 0 6 2
10 4 10 2 0 21 7 42 16 l39 16 -20 -22 -20 -23 22 12 c55 29 30 50 -32 27 -24
-10 -46 -24 -49 -31 -8 -22 -50 -18 -73 8 -15 17 -22 41 -27 102 -3 44 -15
109 -26 143 -21 66 -28 170 -10 142 5 -8 10 -31 10 -51z m-670 -379 l55 -8
-61 -1 c-71 -1 -124 7 -124 20 0 5 17 7 38 3 20 -3 62 -9 92 -14z m950 11 c0
-11 -63 -21 -130 -20 l-55 1 75 13 c99 16 110 17 110 6z m-1003 -41 c2 0 3 -9
3 -20 0 -14 -5 -18 -16 -13 -13 5 -13 7 -2 14 10 7 9 9 -4 9 -9 0 -24 3 -34 7
-11 4 -15 3 -10 -5 3 -6 2 -13 -4 -17 -11 -7 -13 5 -4 28 4 12 12 13 37 6 18
-5 33 -9 34 -9z m1003 -17 c0 -7 -5 -13 -11 -13 -6 0 -9 7 -5 15 6 16 -9 21
-19 5 -3 -5 -11 -7 -19 -4 -7 3 -13 -2 -13 -11 0 -10 6 -14 15 -10 24 9 48 -4
49 -27 1 -13 -1 -18 -5 -13 -4 6 -13 10 -19 11 -7 1 -19 2 -26 3 -8 0 -19 11
-26 24 -10 18 -11 13 -6 -33 7 -80 22 -123 55 -165 l30 -37 -25 -30 c-14 -16
-25 -34 -25 -39 0 -6 -13 -2 -30 8 -16 9 -30 24 -30 32 0 8 -9 33 -19 55 -10
23 -22 70 -25 106 -3 36 -9 83 -12 104 l-7 39 46 -5 c26 -3 47 -2 47 3 0 12
64 16 72 4 4 -5 8 -16 8 -22z m-915 -15 c-13 -74 -22 -164 -18 -174 2 -6 -3
-17 -12 -24 -8 -7 -18 -29 -21 -49 -4 -27 -14 -41 -35 -53 -29 -17 -29 -17
-44 12 -8 15 -20 30 -27 33 -9 3 -3 18 19 49 33 46 63 143 63 206 0 31 2 32
40 32 41 0 41 0 35 -32z m-111 -4 c23 -9 20 -21 -6 -27 -27 -8 -56 12 -36 24
16 10 22 11 42 3z m-44 -34 c0 -5 -5 -10 -11 -10 -5 0 -7 5 -4 10 3 6 8 10 11
10 2 0 4 -4 4 -10z m1014 -11 c-6 -11 -24 -2 -24 11 0 5 7 7 15 4 8 -4 12 -10
9 -15z m-954 1 c0 -5 -8 -7 -17 -4 -16 5 -16 4 1 -10 18 -14 17 -15 -8 -22
-16 -4 -32 -1 -42 7 -15 12 -14 15 12 26 36 15 54 16 54 3z m1004 -16 c18 -18
21 -34 5 -34 -5 0 -7 5 -3 12 4 7 3 8 -5 4 -7 -5 -24 -5 -38 -1 -24 6 -25 7
-7 20 24 18 29 18 48 -1z m-1069 -24 c3 -5 1 -10 -4 -10 -6 0 -11 5 -11 10 0
6 2 10 4 10 3 0 8 -4 11 -10z m48 -31 c-6 -6 -23 -11 -39 -12 -16 -1 -32 -6
-36 -12 -5 -7 -8 -7 -8 0 0 29 45 52 67 33 8 -6 13 -7 12 -2 -3 17 3 29 8 16
3 -8 1 -18 -4 -23z m982 21 c3 -5 -1 -10 -9 -10 -9 0 -16 5 -16 10 0 6 4 10 9
10 6 0 13 -4 16 -10z m63 -23 c7 -6 11 -16 8 -23 -3 -7 2 -15 11 -19 29 -10
-1 -26 -37 -19 l-33 7 21 18 c25 20 28 27 10 26 -41 -1 -50 3 -38 17 11 15 33
12 58 -7z m-1048 -26 c0 -25 -89 -48 -97 -25 -6 17 46 27 64 13 8 -7 13 -8 12
-3 -3 16 1 24 11 24 6 0 10 -4 10 -9z m1000 0 c0 -17 -18 -21 -24 -6 -3 9 0
15 9 15 8 0 15 -4 15 -9z m-1080 -59 c34 -28 22 -40 -25 -26 -36 12 -38 13
-17 20 18 5 20 9 10 15 -8 5 -9 9 -2 9 7 0 22 -8 34 -18z m50 9 c0 -14 -18
-23 -30 -16 -6 4 -8 11 -5 16 8 12 35 12 35 0z m1075 0 c10 -18 -17 -23 -33
-7 -15 15 -15 16 5 16 12 0 24 -4 28 -9z m47 0 c-10 -6 -8 -10 10 -16 22 -7
22 -7 -8 -14 -17 -4 -36 -11 -42 -15 -6 -3 -13 -2 -16 3 -7 10 40 51 58 51 6
0 5 -4 -2 -9z m-1001 -74 c-19 -19 -23 1 -10 40 l14 38 3 -34 c2 -18 -1 -38
-7 -44z m813 16 c6 -17 3 -23 -8 -23 -12 0 -16 10 -16 38 1 38 10 32 24 -15z
m-1005 11 c32 -7 91 -53 91 -72 0 -16 -56 -22 -135 -15 -70 5 -75 8 -75 29 0
25 43 64 70 64 10 0 32 -3 49 -6z m1269 -14 c21 -13 32 -27 32 -43 0 -21 -5
-24 -52 -27 -84 -7 -146 -5 -154 2 -12 12 26 59 59 73 45 20 77 18 115 -5z
m-1068 -44 c0 -18 -11 -25 -47 -30 -15 -2 -46 -12 -68 -21 -31 -14 -57 -16
-119 -12 -43 3 -83 11 -90 17 -8 9 13 10 89 5 98 -6 101 -6 155 24 62 34 80
38 80 17z m858 -17 c62 -30 67 -31 153 -24 54 4 89 3 89 -3 0 -25 -155 -29
-208 -6 -20 9 -48 18 -62 19 -14 1 -31 3 -37 4 -13 1 -19 41 -6 41 3 0 35 -14
71 -31z"/>
<path d="M1473 2314 c-3 -8 -1 -20 5 -26 16 -16 42 -2 42 22 0 24 -38 28 -47
4z m35 -5 c-2 -6 -8 -10 -13 -10 -5 0 -11 4 -13 10 -2 6 4 11 13 11 9 0 15 -5
13 -11z"/>
<path d="M1902 2260 c0 -14 2 -19 5 -12 2 6 2 18 0 25 -3 6 -5 1 -5 -13z"/>
<path d="M1854 2080 c4 -30 13 -78 21 -105 13 -45 14 -46 9 -10 -3 22 -10 66
-14 99 -11 75 -25 89 -16 16z"/>
<path d="M1654 2041 c-45 -21 -85 -44 -89 -51 -6 -10 -3 -11 11 -6 10 5 24 9
31 9 7 0 10 5 6 10 -3 5 4 6 18 2 16 -4 19 -3 11 3 -9 6 5 17 48 36 34 15 64
25 67 22 3 -3 -18 -17 -48 -30 -30 -14 -48 -25 -41 -25 19 -1 112 48 112 59 0
20 -46 9 -126 -29z"/>
<path d="M1652 1980 c-51 -9 -96 -21 -100 -25 -4 -4 7 -5 23 -2 17 3 74 13
128 23 53 9 97 18 97 20 0 7 -55 1 -148 -16z"/>
<path d="M1931 1470 c0 -14 7 -36 15 -50 10 -17 13 -18 8 -5 -3 11 -10 34 -14
50 -7 27 -8 28 -9 5z"/>
<path d="M1120 2025 c-9 -52 -12 -95 -9 -95 8 0 33 162 28 178 -2 7 -11 -31
-19 -83z"/>
<path d="M1221 2046 c9 -9 172 -76 176 -73 4 5 -155 77 -170 77 -5 0 -8 -2 -6
-4z"/>
<path d="M1400 1891 c-8 -5 -47 -16 -87 -26 -39 -9 -80 -23 -90 -30 -12 -10 3
-8 47 5 36 11 84 24 108 30 23 6 42 15 42 20 0 12 -1 12 -20 1z"/>
<path d="M1046 1833 c-12 -12 -6 -33 9 -33 8 0 15 6 15 14 0 17 -14 28 -24 19z"/>
<path d="M1924 1829 c-10 -17 13 -36 27 -22 12 12 4 33 -11 33 -5 0 -12 -5
-16 -11z"/>
<path d="M1022 1640 c0 -19 2 -27 5 -17 2 9 2 25 0 35 -3 9 -5 1 -5 -18z"/>
<path d="M1972 1620 c0 -14 2 -19 5 -12 2 6 2 18 0 25 -3 6 -5 1 -5 -13z"/>
<path d="M1061 1475 c0 -17 -6 -36 -13 -43 -6 -6 -9 -14 -6 -18 11 -10 29 36
25 64 -4 26 -4 26 -6 -3z"/>
<path d="M1065 1354 c-29 -30 -48 -78 -53 -140 -4 -57 -2 -65 21 -87 28 -29
88 -44 125 -31 44 16 65 56 66 126 1 93 -7 113 -54 132 -51 20 -84 20 -105 0z
m127 -34 c11 -14 18 -39 18 -65 0 -125 -44 -167 -138 -134 -60 21 -65 125 -10
202 19 27 25 29 67 24 30 -3 51 -12 63 -27z"/>
<path d="M1051 1273 c-1 -6 -4 -20 -7 -30 -5 -17 -5 -17 6 0 6 10 9 23 6 30
-3 9 -5 9 -5 0z"/>
<path d="M1252 1190 c0 -14 2 -19 5 -12 2 6 2 18 0 25 -3 6 -5 1 -5 -13z"/>
<path d="M1837 1360 c-43 -13 -55 -28 -63 -76 -9 -65 3 -129 33 -165 24 -29
31 -31 74 -27 94 9 123 58 100 164 -22 97 -65 128 -144 104z m112 -64 c31 -63
33 -129 3 -159 -17 -16 -34 -21 -74 -22 -51 0 -54 2 -70 35 -18 36 -25 144
-10 167 12 19 54 32 92 30 31 -2 38 -7 59 -51z"/>
<path d="M1941 1260 c0 -8 4 -24 9 -35 5 -13 9 -14 9 -5 0 8 -4 24 -9 35 -5
13 -9 14 -9 5z"/>
<path d="M1742 1180 c0 -14 2 -19 5 -12 2 6 2 18 0 25 -3 6 -5 1 -5 -13z"/>
<path d="M986 1045 c-3 -9 -6 -49 -6 -88 -1 -40 -7 -90 -15 -112 -19 -51 -18
-57 2 -20 10 18 19 69 23 130 8 103 7 117 -4 90z"/>
<path d="M1021 876 c-1 -15 40 -75 62 -91 39 -27 39 -16 0 23 -21 20 -43 46
-50 57 -6 11 -12 16 -12 11z"/>
<path d="M1180 798 c0 -28 -8 -52 -26 -77 l-26 -36 31 33 c25 26 31 41 31 77
0 25 -2 45 -5 45 -3 0 -5 -19 -5 -42z"/>
<path d="M948 738 c5 -5 16 -8 23 -6 8 3 3 7 -10 11 -17 4 -21 3 -13 -5z"/>
<path d="M2006 962 c2 -68 8 -111 19 -131 21 -42 25 -39 9 7 -7 20 -14 71 -14
112 -1 41 -5 84 -9 94 -4 11 -6 -26 -5 -82z"/>
<path d="M1960 862 c0 -7 -18 -30 -40 -52 -40 -40 -43 -54 -4 -22 28 22 59 71
50 79 -3 3 -6 1 -6 -5z"/>
<path d="M1811 794 c-1 -45 2 -53 31 -80 l33 -29 -25 28 c-16 19 -27 46 -31
80 l-6 52 -2 -51z"/>
<path d="M2033 740 c-13 -5 -23 -11 -23 -14 0 -7 40 6 46 15 6 10 6 10 -23 -1z"/>
<path d="M832 333 c-7 -2 -17 -14 -23 -26 -10 -21 -10 -21 5 -3 9 11 35 23 58
27 41 6 41 7 8 7 -19 0 -41 -2 -48 -5z"/>
<path d="M2105 331 c11 -5 26 -6 33 -3 7 2 22 -4 32 -13 11 -10 20 -13 20 -7
0 17 -35 32 -72 31 -27 0 -29 -2 -13 -8z"/>
</g>
</svg>
