<?xml version="1.0" standalone="no"?>
<!DOCTYPE svg PUBLIC "-//W3C//DTD SVG 20010904//EN"
 "http://www.w3.org/TR/2001/REC-SVG-20010904/DTD/svg10.dtd">
<svg version="1.0" xmlns="http://www.w3.org/2000/svg"
 width="300.000000pt" height="300.000000pt" viewBox="0 0 300.000000 300.000000"
 preserveAspectRatio="xMidYMid meet">
<metadata>
Created by potrace 1.10, written by Peter Selinger 2001-2011
</metadata>
<g transform="translate(0.000000,300.000000) scale(0.100000,-0.100000)"
fill="#d8d4d5" stroke="none">
<path d="M1070 2470 c-86 -12 -138 -29 -153 -50 -8 -11 -28 -23 -45 -26 -19
-4 -45 -21 -63 -42 -34 -39 -34 -33 -6 -222 25 -170 29 -279 18 -571 -11 -315
-21 -373 -96 -533 -52 -114 -69 -187 -69 -314 -1 -83 1 -95 19 -105 37 -22 69
-28 183 -34 92 -5 112 -3 112 8 0 12 2 12 9 0 10 -16 131 -28 159 -15 9 4 40
6 67 5 65 -3 184 16 211 34 17 11 23 28 28 87 5 48 3 84 -4 103 -7 18 -14 105
-16 215 -1 102 -6 338 -9 525 -7 354 4 577 31 663 23 70 18 101 -20 137 -19
18 -55 41 -80 51 -25 11 -46 25 -46 31 0 19 -69 50 -125 56 -27 3 -75 2 -105
-3z m176 -36 c43 -20 43 -30 0 -38 -38 -7 -62 -29 -71 -68 -7 -28 -8 -28 -91
-28 -75 0 -84 2 -84 19 0 24 -37 71 -56 71 -8 0 -14 4 -14 9 0 42 245 69 316
35z m-286 -74 c11 -11 20 -31 20 -45 0 -24 -3 -25 -34 -20 -29 6 -35 4 -41
-14 -10 -33 2 -56 38 -66 22 -7 33 -17 35 -32 3 -20 -1 -23 -27 -23 -62 0 -63
-71 -1 -84 29 -5 31 -8 28 -43 -3 -35 -6 -38 -33 -38 -27 0 -30 -4 -33 -33 -3
-33 -1 -35 51 -46 20 -5 27 -12 27 -31 0 -19 -7 -26 -32 -33 -23 -6 -34 -15
-36 -31 -4 -26 14 -52 31 -46 7 3 18 1 26 -4 18 -12 -3 -51 -27 -51 -10 0 -23
-5 -30 -12 -15 -15 -16 -58 -2 -58 20 0 25 6 23 28 -2 19 7 27 40 42 43 20 89
27 72 12 -6 -5 -31 -16 -56 -26 -28 -10 -46 -22 -46 -33 0 -13 2 -13 14 3 11
16 13 13 12 -27 -1 -37 -2 -40 -9 -19 l-8 25 -1 -27 c-1 -15 -10 -33 -22 -42
-25 -17 -34 -72 -14 -80 8 -3 19 1 25 9 9 11 7 12 -12 8 -20 -4 -19 -2 7 16
16 11 30 19 31 18 2 -1 0 -21 -3 -44 -4 -29 -11 -44 -23 -48 -10 -3 -24 -13
-32 -22 -11 -14 -11 -16 0 -9 11 7 12 4 3 -13 -10 -17 -9 -22 4 -27 9 -4 21
-2 27 4 8 8 4 9 -13 5 -27 -7 -24 -1 9 16 20 11 22 10 22 -18 0 -22 -7 -34
-29 -47 -29 -17 -31 -39 -7 -56 7 -5 5 -8 -5 -8 -28 0 -28 4 -34 460 -2 107
-7 288 -11 403 l-9 207 35 1 35 2 -40 7 -40 7 38 2 c25 1 43 -5 57 -19z m330
13 c-62 -9 -72 -15 -85 -46 -12 -27 -14 -28 -15 -9 0 37 34 62 83 61 24 -1 31
-3 17 -6z m-430 -66 c0 -56 -3 -65 -22 -76 l-23 -12 23 5 c14 3 22 -1 22 -10
0 -8 -2 -14 -4 -14 -2 0 -11 -3 -19 -6 -11 -4 -18 7 -26 46 -6 28 -11 55 -11
60 0 9 49 70 56 70 2 0 4 -29 4 -63z m526 33 c24 -17 46 -41 50 -54 8 -32 -14
-106 -31 -106 -26 0 -85 33 -85 48 0 13 3 12 18 -1 10 -9 34 -19 53 -23 31 -5
30 -4 -15 18 l-50 24 0 62 c-1 34 3 62 7 62 5 0 28 -14 53 -30z m-80 -2 c-19
-93 -22 -465 -6 -653 8 -92 7 -133 -5 -208 -15 -94 -18 -219 -6 -272 7 -30 -5
-75 -20 -75 -15 0 -69 52 -69 67 0 12 2 12 16 -1 20 -20 40 -20 48 -1 9 25 -5
46 -35 52 -23 4 -29 11 -30 32 -1 25 -2 25 -9 -4 l-8 -30 -1 37 c-1 46 12 55
33 23 17 -26 40 -33 51 -15 4 6 1 18 -7 27 -11 14 -11 16 2 8 13 -8 13 -6 2 8
-8 9 -22 19 -33 22 -14 5 -19 16 -20 43 l-2 37 -7 -35 -7 -35 -2 38 c0 20 -4
37 -8 37 -5 -1 -28 -5 -53 -10 -48 -9 -130 -3 -130 11 0 4 23 15 50 24 40 13
57 15 83 6 63 -22 84 -35 93 -55 9 -22 44 -35 44 -17 0 6 -6 8 -14 5 -8 -3
-17 -1 -21 5 -3 7 0 8 9 5 11 -4 16 0 17 12 0 18 1 17 9 -1 7 -16 9 -17 9 -3
1 9 -12 26 -28 37 -20 15 -30 31 -33 56 -2 19 0 35 4 35 4 0 8 -6 8 -14 0 -7
6 -19 14 -25 11 -9 18 -8 30 4 19 19 19 21 6 45 -5 10 -21 21 -35 24 -22 6
-25 11 -24 54 0 38 2 43 9 25 5 -13 18 -23 29 -23 47 0 38 61 -11 75 -26 8
-33 15 -33 35 0 15 6 26 15 26 8 1 20 2 26 3 16 1 26 30 19 52 -4 13 -16 19
-35 19 -44 0 -58 8 -53 34 5 22 55 61 65 50 3 -2 11 3 18 11 20 25 -3 69 -33
61 -25 -6 -41 2 -50 26 -7 20 22 48 49 48 26 0 44 19 44 45 0 31 -19 45 -51
38 -24 -4 -29 -2 -29 14 0 25 19 43 47 43 33 0 49 35 29 64 -11 18 -21 22 -40
19 -19 -4 -26 -1 -26 10 0 26 30 47 66 47 30 0 34 -3 30 -22z m11 -55 c-3 -10
-5 -2 -5 17 0 19 2 27 5 18 2 -10 2 -26 0 -35z m-363 -16 c-2 -20 57 -53 145
-82 45 -15 55 -15 63 -4 8 11 9 10 5 -3 -4 -12 3 -18 29 -22 36 -7 44 -20 18
-30 -8 -3 -13 -2 -10 2 2 4 -26 16 -62 27 -80 22 -170 61 -194 82 -20 18 -25
38 -6 27 7 -4 8 -3 4 4 -13 21 -28 13 -24 -13 3 -13 1 -22 -3 -19 -11 6 -12
38 -2 48 13 12 38 1 37 -17z m275 7 c2 -2 -56 -3 -130 -2 l-134 2 105 6 c96 5
148 3 159 -6z m45 1 c8 -22 -4 -47 -21 -41 -21 8 -71 -24 -68 -43 1 -9 0 -11
-2 -4 -3 8 -16 10 -36 7 l-32 -5 37 21 c21 11 36 26 34 33 -1 6 -1 9 1 5 3 -5
9 -8 14 -8 6 0 7 5 3 12 -4 7 -3 8 5 4 6 -4 18 -2 26 4 12 10 15 9 15 -6 0
-14 2 -16 13 -5 10 10 8 15 -7 27 -16 11 -17 14 -4 14 9 0 18 -7 22 -15z
m-104 -30 c0 -6 -16 -19 -36 -28 -33 -16 -38 -16 -85 0 -27 10 -49 22 -49 28
0 6 34 10 85 10 54 0 85 -4 85 -10z m191 -66 c56 -24 55 -23 39 -154 -5 -44
-11 -115 -12 -157 l-3 -77 -30 29 c-45 44 -55 37 -12 -8 l37 -38 11 -133 c9
-113 8 -158 -4 -140 -1 2 -16 22 -33 44 -29 37 -32 49 -42 165 -11 136 -16
490 -7 490 4 0 29 -10 56 -21z m-491 -81 c1 -51 5 -127 10 -168 7 -66 6 -77
-11 -98 l-19 -25 -1 64 c0 35 -6 118 -13 184 -12 121 -10 134 22 135 9 0 12
-25 12 -92z m155 82 c3 -5 -1 -10 -9 -10 -9 0 -16 5 -16 10 0 6 4 10 9 10 6 0
13 -4 16 -10z m15 -27 c-19 -9 -52 -17 -72 -18 -45 -1 -55 -9 -38 -30 7 -8 8
-15 2 -15 -14 0 -23 27 -15 46 3 9 13 14 24 11 10 -3 35 1 56 9 55 19 88 17
43 -3z m125 -38 c0 -9 -17 -27 -37 -38 l-37 -22 -45 23 c-25 12 -46 28 -46 35
0 7 21 20 48 28 56 17 117 4 117 -26z m103 2 c-2 -11 -10 -23 -18 -25 -13 -5
-13 -3 -1 12 13 15 13 21 1 39 -12 20 -12 21 4 8 9 -8 16 -23 14 -34z m-293 1
c5 4 5 2 2 -4 -4 -7 13 -21 41 -35 60 -30 56 -28 50 -34 -12 -12 -138 57 -138
75 0 7 6 7 19 1 10 -6 22 -7 26 -3z m275 4 c0 -10 -134 -89 -217 -127 -106
-49 -81 -19 28 34 57 28 120 62 139 75 37 27 50 31 50 18z m-221 -81 c11 -7 9
-11 -8 -20 -18 -10 -21 -9 -21 9 0 22 7 25 29 11z m141 -6 c0 -9 -6 -12 -16
-8 -13 5 -13 7 -2 14 17 11 18 11 18 -6z m65 -39 c18 4 25 1 30 -16 4 -12 2
-27 -4 -33 -8 -8 -11 -8 -11 1 0 8 -14 3 -37 -12 -20 -14 -81 -44 -135 -67
-64 -27 -95 -45 -91 -53 4 -6 -1 -4 -11 4 -17 13 -15 16 30 37 27 12 90 41
139 65 50 23 96 42 103 41 6 0 12 3 12 8 0 14 -20 21 -33 11 -14 -11 -120 25
-112 39 3 4 26 -1 51 -11 26 -12 56 -17 69 -14z m-102 -6 c49 -19 47 -41 -5
-67 l-43 -20 -42 20 c-24 12 -43 26 -43 32 0 10 79 56 90 52 3 -1 22 -9 43
-17z m-192 -9 c-8 -5 -12 -18 -8 -30 3 -12 1 -19 -4 -15 -20 12 -8 54 15 54 6
0 5 -4 -3 -9z m40 -25 c8 4 9 3 5 -5 -5 -8 6 -18 33 -29 40 -17 53 -32 28 -32
-20 0 -107 58 -107 71 0 8 4 8 15 -1 8 -6 20 -8 26 -4z m229 10 c0 -2 -7 -6
-15 -10 -8 -3 -15 -1 -15 4 0 6 7 10 15 10 8 0 15 -2 15 -4z m-186 -87 c-8
-14 -24 -10 -24 6 0 9 6 12 15 9 8 -4 12 -10 9 -15z m143 -6 c-3 -3 -11 -2
-17 2 -9 6 -9 10 1 16 14 8 27 -7 16 -18z m11 -21 c23 -10 52 -26 64 -36 20
-18 21 -18 15 3 -3 12 -1 19 4 15 15 -9 6 -37 -11 -39 -8 -2 -38 -12 -67 -24
-31 -12 -55 -17 -58 -11 -3 6 -2 10 4 10 5 0 31 9 58 21 l48 21 -50 19 c-27
11 -59 24 -70 29 -41 18 17 10 63 -8z m-13 -42 c0 -7 -18 -20 -40 -28 -36 -13
-44 -13 -78 1 -47 20 -47 41 0 60 33 13 41 13 78 -3 22 -9 40 -23 40 -30z
m-280 -103 c-5 -98 -11 -130 -26 -153 l-20 -29 7 135 c5 100 11 141 23 157 9
11 18 19 20 17 2 -2 0 -59 -4 -127z m60 104 c0 -16 -3 -27 -7 -24 -5 2 -8 15
-8 29 0 13 3 24 8 24 4 0 7 -13 7 -29z m185 -71 c63 -22 122 -42 130 -44 22
-4 19 -40 -4 -44 -14 -3 -17 0 -13 12 4 9 5 16 3 16 -3 0 -11 3 -20 6 -12 4
-15 -4 -18 -38 l-3 -45 -30 13 c-26 11 -28 13 -11 20 11 4 21 2 26 -6 5 -7 9
4 12 29 l4 41 -106 35 c-105 35 -150 58 -150 75 0 5 15 1 33 -10 17 -10 84
-37 147 -60z m-115 10 c3 -5 1 -10 -4 -10 -6 0 -11 5 -11 10 0 6 2 10 4 10 3
0 8 -4 11 -10z m165 0 c0 -5 -5 -10 -11 -10 -5 0 -7 5 -4 10 3 6 8 10 11 10 2
0 4 -4 4 -10z m17 -12 c-3 -8 -6 -5 -6 6 -1 11 2 17 5 13 3 -3 4 -12 1 -19z
m-32 -38 c23 -9 27 -13 15 -20 -31 -17 -96 -20 -145 -6 -47 13 -49 14 -25 23
14 6 32 13 40 16 20 8 78 2 115 -13z m-233 -17 c-3 -16 -7 -22 -10 -15 -4 13
4 42 11 42 2 0 2 -12 -1 -27z m116 -23 c6 0 12 -5 12 -11 0 -13 -50 -3 -65 13
-7 8 -2 9 15 4 14 -3 31 -6 38 -6z m71 -25 c-87 -26 -134 -49 -166 -78 -13
-11 -23 -15 -23 -9 0 33 164 110 235 111 20 0 4 -8 -46 -24z m-99 -5 c-19 -13
-30 -13 -30 0 0 6 10 10 23 10 18 0 19 -2 7 -10z m180 -40 c63 -32 66 -36 49
-60 -9 -13 -10 -12 -5 2 6 19 -35 44 -113 73 -28 11 -31 14 -13 14 12 1 49
-13 82 -29z m-42 -10 c23 -10 42 -23 42 -28 0 -15 -106 -23 -159 -11 -28 6
-51 16 -51 22 0 18 71 46 100 41 14 -3 44 -14 68 -24z m-268 -68 c-1 -24 -9
-47 -25 -67 l-25 -30 0 48 c0 30 6 57 18 72 22 30 32 23 32 -23z m498 -109 c0
-45 3 -86 6 -91 3 -6 -1 -43 -10 -84 -9 -40 -16 -84 -16 -98 0 -24 -2 -23 -34
14 -19 22 -34 44 -34 50 0 6 14 -5 30 -24 40 -48 38 -28 -2 23 l-33 41 1 114
c1 62 5 116 9 120 4 4 22 -11 41 -33 18 -22 34 -36 34 -30 0 5 -16 26 -36 46
-32 33 -35 40 -28 74 l7 38 33 -39 c31 -37 33 -42 32 -121z m-283 116 c22 2
53 3 70 4 22 2 30 -3 31 -16 2 -13 1 -14 -3 -2 -4 12 -12 15 -36 9 -48 -10
-147 -44 -189 -66 -21 -10 -38 -15 -38 -10 0 5 12 14 26 20 14 7 23 16 20 20
-9 15 11 34 30 30 17 -4 16 -6 -6 -16 -14 -6 -20 -11 -14 -11 7 -1 27 5 45 13
l32 14 -41 7 c-23 4 -42 10 -42 15 0 4 17 3 38 -2 20 -6 55 -10 77 -9z m85
-19 c0 -5 -2 -10 -4 -10 -3 0 -8 5 -11 10 -3 6 -1 10 4 10 6 0 11 -4 11 -10z
m32 -37 c47 -29 31 -35 -19 -8 -27 14 -54 25 -61 25 -7 0 -11 4 -7 10 6 10 40
0 87 -27z m-338 -123 l-9 -65 -5 75 c-3 42 -1 83 5 93 9 16 10 14 13 -10 2
-15 0 -57 -4 -93z m117 60 c6 0 7 -5 3 -11 -9 -15 -24 9 -22 36 1 17 1 17 5
-2 2 -13 9 -23 14 -23z m42 9 c-8 -8 -16 -8 -30 0 -16 9 -14 10 12 11 21 0 26
-3 18 -11z m67 -13 c-41 -12 -93 -31 -115 -43 -38 -20 -39 -22 -36 -66 2 -45
2 -46 -31 -49 -23 -2 -34 -9 -36 -22 -6 -30 14 -42 43 -26 30 16 41 8 25 -17
-11 -17 -11 -17 -6 1 5 14 -3 10 -29 -13 -20 -17 -40 -31 -45 -31 -6 0 -10 19
-9 43 0 51 27 175 28 134 1 -24 5 -28 24 -25 22 3 31 27 13 39 -26 19 152 98
219 98 20 0 5 -8 -45 -23z m-260 -160 c-6 -28 -21 -65 -35 -81 l-24 -30 15 50
c8 28 19 87 24 132 5 46 12 89 17 95 13 20 15 -108 3 -166z m330 154 c0 -5 -4
-10 -9 -10 -6 0 -13 5 -16 10 -3 6 1 10 9 10 9 0 16 -4 16 -10z m6 -27 c45
-22 53 -30 48 -46 -5 -16 -3 -19 10 -14 9 4 16 2 16 -4 0 -6 -8 -9 -17 -7 -10
2 -17 11 -17 20 1 11 -18 25 -57 43 -33 14 -59 28 -59 31 0 10 24 3 76 -23z
m-46 -9 c22 -9 40 -19 40 -23 0 -4 -23 -12 -51 -17 -52 -11 -139 0 -139 18 0
11 59 36 87 37 13 1 41 -6 63 -15z m-163 -91 c-2 -16 -4 -5 -4 22 0 28 2 40 4
28 2 -13 2 -35 0 -50z m73 31 c0 -2 -13 -4 -30 -4 -16 0 -30 4 -30 8 0 5 14 7
30 4 17 -2 30 -6 30 -8z m119 3 c-8 -6 -124 -39 -154 -43 -44 -7 59 36 110 45
37 7 55 6 44 -2z m-8 -24 c-9 -4 -10 -8 -2 -12 6 -4 -15 -7 -47 -8 l-57 0 50
12 c53 13 79 17 56 8z m47 -39 c50 -14 14 -19 -133 -19 -141 0 -185 7 -110 18
48 7 218 7 243 1z m48 -33 c-4 -6 -13 -11 -19 -11 -8 0 -7 3 2 9 8 5 10 14 6
22 -6 11 -5 11 5 2 7 -6 9 -16 6 -22z m143 -69 c-2 -48 0 -93 4 -99 4 -7 0
-10 -10 -8 -10 1 -17 8 -15 15 3 14 -16 40 -30 40 -5 0 -6 -6 -2 -12 4 -8 3
-10 -2 -5 -5 5 -9 14 -9 19 0 6 -5 13 -12 15 -20 7 -8 -27 16 -44 38 -26 71
-109 71 -178 l0 -60 -19 40 c-21 45 -54 79 -91 93 -44 17 -241 35 -304 28
-195 -21 -249 -46 -290 -136 l-16 -35 4 56 c3 35 15 76 32 110 16 30 29 57 30
62 1 4 3 9 4 12 1 3 3 8 5 13 7 28 26 60 41 72 9 8 25 28 34 43 l17 28 0 -42
c0 -36 -4 -44 -33 -61 -19 -11 -32 -24 -29 -28 3 -5 -4 -14 -16 -20 -11 -7
-19 -14 -16 -16 2 -3 33 12 68 33 49 30 75 38 114 39 27 1 70 7 95 13 39 11
53 10 105 -7 42 -14 67 -17 83 -11 17 6 30 5 45 -6 12 -8 25 -15 28 -15 13 0
3 34 -11 38 -8 3 -10 0 -5 -8 6 -9 3 -9 -14 -1 -24 13 -29 23 -7 15 8 -3 17 0
21 5 3 6 11 9 16 6 5 -3 6 2 3 12 -3 10 16 -4 42 -32 26 -27 44 -41 40 -31 -7
19 2 136 11 136 2 0 3 -40 2 -88z m-229 58 c0 -19 36 -60 53 -60 6 0 -2 11
-17 25 -14 13 -26 32 -25 42 0 14 2 15 6 3 3 -8 16 -26 29 -40 16 -18 20 -30
14 -40 -8 -12 -15 -13 -57 -1 -80 23 -113 24 -175 6 -53 -17 -60 -17 -74 -3
-12 12 -13 17 -3 23 8 5 10 4 5 -3 -4 -7 -3 -12 2 -12 14 0 50 38 57 60 6 18
15 20 96 20 82 0 89 -2 89 -20z m-243 4 c-3 -3 -12 -4 -19 -1 -8 3 -5 6 6 6
11 1 17 -2 13 -5z m-27 -69 c0 -2 -10 -9 -22 -15 -22 -11 -22 -10 -4 4 21 17
26 19 26 11z m-50 -30 c0 -2 -10 -9 -22 -15 -22 -11 -22 -10 -4 4 21 17 26 19
26 11z m424 -154 c49 -12 91 -52 112 -108 16 -40 16 -46 2 -60 -9 -8 -37 -18
-62 -20 -41 -5 -48 -3 -75 26 -33 35 -28 34 -221 31 l-135 -2 -32 -30 c-29
-28 -36 -30 -75 -24 -24 4 -53 13 -65 21 -19 13 -21 19 -12 44 6 16 25 46 43
67 29 33 42 39 117 56 67 14 112 17 224 13 77 -3 157 -9 179 -14z m-531 -191
c16 -5 42 -10 58 -10 16 0 29 -4 29 -9 0 -13 -74 -61 -96 -61 -34 0 -64 29
-64 60 l0 29 43 -19 c23 -11 53 -19 67 -19 16 0 8 5 -23 13 -52 14 -87 40 -87
65 0 11 7 8 23 -11 12 -15 35 -32 50 -38z m483 35 c18 -15 15 -16 -31 -11 -27
3 -112 2 -188 -2 -75 -4 -137 -4 -137 -1 0 19 60 28 191 28 117 1 149 -2 165
-14z m199 -44 c-3 -61 -9 -71 -43 -71 -29 0 -102 44 -102 60 0 6 20 10 45 10
35 0 51 5 68 24 12 13 25 24 28 25 4 1 5 -21 4 -48z m-165 -3 c11 -12 20 -25
20 -29 0 -19 72 -51 106 -47 30 4 34 1 32 -16 -2 -11 -9 -21 -17 -24 -8 -3
-11 0 -7 7 4 6 2 11 -3 11 -6 0 -11 -6 -11 -14 0 -8 -7 -16 -15 -20 -10 -4
-15 1 -15 16 0 20 -1 20 -12 5 -12 -15 -23 -16 -108 -6 -69 8 -142 8 -270 -1
-162 -10 -175 -10 -187 6 -12 16 -13 16 -13 -4 0 -26 -29 -20 -31 7 -1 14 -2
14 -6 -1 -5 -22 -23 -24 -23 -3 0 8 -7 15 -15 15 -8 0 -15 9 -15 19 0 19 2 19
33 6 41 -17 75 -4 135 54 l42 41 180 0 c172 0 180 -1 200 -22z m-305 -138 c-3
-5 -36 -9 -73 -8 l-67 2 70 6 c39 4 71 7 73 8 2 1 0 -2 -3 -8z m190 0 c-3 -5
-37 -10 -76 -10 -39 0 -69 4 -69 10 0 6 32 10 76 10 47 0 73 -4 69 -10z m144
-6 c2 -2 -21 -4 -52 -4 -31 0 -59 5 -63 11 -4 7 11 9 52 4 33 -4 61 -9 63 -11z"/>
<path d="M1043 2413 c-40 -2 -73 -8 -73 -13 0 -9 30 -8 190 9 74 8 74 8 15 8
-33 -1 -93 -3 -132 -4z"/>
<path d="M1256 1675 c-3 -8 -1 -15 4 -15 6 0 10 7 10 15 0 8 -2 15 -4 15 -2 0
-6 -7 -10 -15z"/>
<path d="M841 1134 c0 -11 3 -14 6 -6 3 7 2 16 -1 19 -3 4 -6 -2 -5 -13z"/>
<path d="M1403 749 c-5 -5 -32 -14 -59 -18 l-49 -9 41 -1 c28 -1 50 5 65 19
13 10 22 19 19 20 -4 0 -11 -5 -17 -11z"/>
<path d="M1805 2474 c-43 -10 -95 -38 -100 -53 -3 -9 -24 -24 -48 -34 -59 -24
-117 -78 -117 -109 0 -13 6 -47 14 -74 16 -56 36 -259 39 -384 3 -160 -14
-845 -23 -950 -6 -58 -10 -138 -10 -177 0 -64 3 -74 23 -87 26 -18 151 -38
217 -35 25 1 53 -2 63 -6 25 -10 151 2 155 15 3 7 9 7 18 -1 17 -14 196 -6
256 11 52 15 60 36 55 138 -7 130 -21 187 -71 298 -78 171 -86 217 -96 554 -8
288 -3 425 22 580 20 124 20 147 4 177 -14 27 -68 63 -95 63 -5 0 -21 11 -34
24 -15 15 -45 28 -78 34 -69 14 -168 22 -194 16z m176 -34 c29 -6 64 -17 77
-26 l25 -16 -30 -13 c-21 -9 -35 -24 -43 -49 l-12 -36 -84 0 c-77 0 -84 2 -84
19 0 29 -40 69 -80 79 l-35 9 35 21 c40 25 137 30 231 12z m-201 -70 c10 -5
23 -24 29 -41 l11 -32 -40 6 c-35 4 -43 2 -56 -18 -19 -29 -4 -65 26 -65 34 0
50 -12 50 -37 0 -23 -3 -25 -30 -19 -26 5 -32 2 -42 -19 -6 -13 -8 -31 -5 -40
7 -16 13 -19 60 -30 25 -5 28 -10 25 -38 -3 -29 -6 -32 -37 -32 -21 0 -36 -6
-39 -15 -4 -12 -3 -13 10 -2 9 7 22 10 31 6 9 -3 36 3 61 15 25 11 48 16 51
12 2 -5 -18 -18 -47 -30 -39 -16 -54 -18 -65 -10 -11 9 -17 8 -28 -7 -8 -10
-15 -22 -15 -25 0 -11 26 -29 33 -23 3 3 15 0 27 -6 31 -17 24 -64 -10 -68
-47 -6 -51 -9 -40 -39 9 -26 9 -27 -5 -9 -8 11 -15 15 -15 9 0 -17 30 -44 41
-38 14 9 49 -14 48 -33 0 -14 -2 -14 -9 3 -8 19 -9 19 -9 -2 -1 -17 -9 -24
-35 -29 -37 -6 -50 -25 -41 -55 8 -25 45 -24 52 1 9 33 33 24 33 -12 0 -23 3
-29 9 -19 6 9 16 11 27 7 17 -7 15 -9 -11 -20 -30 -13 -30 -12 -36 23 l-6 36
-2 -41 c-1 -36 -5 -43 -31 -54 -32 -13 -37 -28 -17 -49 10 -11 10 -13 0 -7 -7
4 -13 2 -13 -4 0 -19 45 -6 48 14 3 14 0 17 -11 13 -10 -4 -14 -1 -11 7 6 17
109 66 137 65 17 0 13 -4 -14 -14 -20 -7 -50 -20 -66 -29 -29 -14 -30 -18 -23
-56 7 -38 5 -42 -20 -55 -21 -11 -27 -20 -23 -35 4 -13 11 -19 20 -16 8 4 11
1 8 -5 -4 -6 -13 -8 -21 -5 -8 3 -14 1 -14 -4 0 -14 24 -12 38 2 18 18 15 38
-5 31 -39 -15 12 30 55 48 49 21 52 22 52 12 0 -5 -19 -16 -43 -25 -41 -18
-42 -19 -39 -60 3 -39 0 -45 -27 -60 -34 -19 -42 -54 -14 -65 11 -4 23 3 37
20 30 37 36 34 34 -15 -1 -42 -1 -43 -6 -8 l-5 35 -6 -34 c-4 -23 -12 -35 -25
-37 -27 -4 -48 -28 -40 -47 8 -22 40 -22 53 1 9 15 10 15 11 0 0 -18 -21 -42
-52 -59 -16 -8 -23 -8 -29 2 -8 13 -4 177 6 257 2 18 0 30 -4 27 -15 -9 -27
139 -20 246 19 278 18 566 -1 554 -4 -3 -6 26 -4 63 2 56 1 61 -6 27 l-8 -40
1 45 c0 25 2 48 4 53 6 10 71 9 93 -3z m338 3 c-10 -2 -26 -2 -35 0 -10 3 -2
5 17 5 19 0 27 -2 18 -5z m-447 -50 c1 -27 3 -62 5 -79 3 -27 -1 -32 -41 -52
-42 -20 -45 -20 -53 -4 -17 32 -22 98 -9 115 13 18 77 66 90 67 4 0 8 -21 8
-47z m454 33 c0 0 -3 -98 -8 -216 -7 -187 -17 -650 -16 -749 0 -18 8 -76 18
-128 17 -83 18 -133 4 -133 -3 0 -19 10 -36 22 -18 13 -36 23 -42 23 -5 0 -11
9 -12 20 -3 20 -3 20 6 0 6 -13 10 -15 10 -5 1 11 4 11 13 2 14 -14 48 -16 48
-3 0 5 -10 7 -22 5 -23 -5 -23 -4 0 6 34 14 22 34 -24 40 -38 5 -38 6 -41 50
-2 34 0 40 7 25 5 -12 9 -14 9 -6 1 17 16 5 16 -12 0 -7 10 -13 23 -15 12 -2
22 1 22 6 0 6 -10 8 -22 6 l-23 -5 23 10 c12 6 22 15 22 21 0 6 -5 8 -12 4 -6
-4 -8 -3 -5 3 3 5 -7 17 -24 27 -16 10 -26 22 -23 28 4 7 2 8 -4 4 -7 -4 -12
-1 -12 6 0 16 20 47 20 32 0 -14 33 -14 42 0 13 19 9 27 -22 37 -24 9 -30 18
-35 53 l-7 43 -50 -13 c-31 -8 -73 -11 -109 -7 l-59 6 -1 -29 c-1 -23 -3 -24
-6 -7 -7 37 13 59 74 82 56 21 61 21 98 6 22 -9 51 -28 64 -43 13 -15 20 -20
16 -12 -7 12 -5 13 6 3 18 -18 26 -16 32 7 3 13 -3 24 -19 35 -17 11 -24 25
-24 47 0 24 3 29 11 21 13 -13 39 -6 39 9 0 6 -8 4 -17 -3 -15 -12 -15 -10 1
8 24 29 16 49 -23 56 -22 5 -31 12 -31 27 0 11 5 21 10 21 6 1 15 3 20 4 6 1
14 3 19 4 14 2 20 39 7 54 -6 8 -23 17 -38 21 -49 11 -32 60 22 68 21 2 25 8
25 38 0 28 -4 35 -20 36 -11 1 -26 2 -32 3 -8 1 -13 15 -13 36 0 31 3 36 30
41 42 9 56 28 42 59 -9 19 -19 25 -42 25 -27 0 -31 3 -28 23 2 15 13 25 36 32
34 10 50 40 38 71 -5 13 -14 15 -41 10 -30 -6 -35 -4 -35 13 0 11 7 26 15 34
8 8 12 17 9 20 -3 3 14 3 38 0 24 -3 43 -6 43 -7z m75 -69 c0 -12 -5 -39 -11
-60 -9 -33 -12 -36 -29 -27 -11 6 -20 16 -20 22 0 7 4 7 14 -1 9 -8 16 -8 20
-2 4 5 -3 12 -14 16 -17 6 -20 15 -20 73 l1 67 29 -33 c17 -18 30 -42 30 -55z
m-456 -11 c-16 -13 -17 -17 -5 -28 12 -11 13 -10 8 5 -7 18 8 24 18 6 4 -6 14
-8 22 -5 8 3 11 1 8 -4 -4 -6 17 -21 47 -35 40 -18 47 -24 29 -24 -13 -1 -44
10 -68 25 -24 14 -48 22 -54 18 -10 -6 -28 12 -29 28 0 11 32 39 38 33 3 -3
-3 -12 -14 -19z m341 -17 c0 -15 -6 -24 -15 -24 -8 0 -35 -11 -60 -24 -55 -30
-221 -81 -235 -73 -5 4 6 11 26 17 24 7 34 15 32 25 -4 12 -3 12 5 1 8 -11 18
-11 63 4 67 22 145 61 155 77 5 8 10 6 15 -8 7 -17 8 -17 8 4 1 21 -13 30 -22
15 -3 -5 -70 -6 -149 -4 -178 4 -146 16 40 15 l137 -1 0 -24z m-83 -16 c-2 -4
-24 -16 -48 -25 -41 -16 -47 -17 -84 -2 -66 27 -50 39 47 37 49 -1 86 -5 85
-10z m-302 -211 l0 -169 -39 -31 -38 -31 -12 127 c-6 70 -14 150 -17 178 l-6
51 48 20 c27 12 52 22 57 22 4 1 7 -75 7 -167z m117 146 c-3 -8 -6 -5 -6 6 -1
11 2 17 5 13 3 -3 4 -12 1 -19z m183 2 c0 -5 -7 -10 -16 -10 -8 0 -12 5 -9 10
3 6 10 10 16 10 5 0 9 -4 9 -10z m166 2 c8 -5 6 -57 -5 -185 -13 -142 -19
-175 -29 -165 -17 17 -15 -2 2 -21 10 -11 16 -56 21 -146 6 -129 6 -130 -13
-106 -25 31 -36 196 -23 337 5 54 13 143 16 197 7 96 9 104 31 89z m-170 -23
c24 -6 44 -16 44 -21 0 -11 -37 -4 -84 17 -39 17 -19 19 40 4z m-239 -6 c-13
-13 15 -33 39 -27 14 4 24 2 24 -5 0 -6 -8 -8 -17 -5 -42 13 27 -30 132 -83
61 -31 105 -58 98 -60 -12 -4 -163 68 -230 110 -23 15 -46 34 -52 44 -8 15
-10 15 -11 3 0 -9 6 -22 13 -29 10 -11 9 -13 -3 -9 -20 6 -25 35 -10 53 7 8
15 15 18 15 3 0 2 -3 -1 -7z m248 -39 c-1 -5 -20 -20 -44 -33 l-43 -24 -45 22
c-53 26 -54 48 -3 65 29 10 44 9 85 -4 28 -9 50 -21 50 -26z m79 20 c3 -9 2
-23 -4 -32 -5 -10 -10 -12 -10 -5 0 6 -25 -4 -57 -23 -52 -31 -83 -42 -83 -29
0 2 23 16 50 30 31 16 48 30 44 37 -4 7 -3 8 5 4 14 -9 43 12 35 25 -3 5 -1 9
4 9 6 0 13 -7 16 -16z m-229 -94 c3 -5 4 -10 1 -10 -2 0 -11 -2 -19 -5 -8 -4
-14 0 -14 10 0 17 22 21 32 5z m145 -10 c0 -18 -3 -19 -21 -9 -17 9 -19 13 -8
20 22 14 29 11 29 -11z m-45 -42 c25 -12 45 -27 45 -33 0 -6 -19 -20 -43 -32
l-43 -21 -47 24 c-26 14 -47 30 -47 37 0 8 4 7 10 -3 9 -13 10 -13 10 1 0 12
40 41 67 48 1 1 23 -9 48 -21z m120 -29 c0 -14 -5 -23 -13 -21 -7 1 -33 -9
-57 -24 -25 -14 -50 -24 -57 -21 -7 2 10 16 39 30 28 15 55 32 59 39 5 8 10 6
15 -8 7 -18 8 -18 8 3 1 12 -4 24 -9 26 -6 3 -5 4 2 3 7 -2 13 -14 13 -27z
m-272 -1 c2 4 3 2 1 -4 -2 -11 77 -51 179 -89 27 -10 51 -24 54 -32 3 -7 9
-13 15 -13 5 0 6 5 3 10 -3 6 -2 10 3 10 6 0 13 -7 16 -16 3 -8 2 -12 -4 -9
-6 3 -13 0 -16 -8 -6 -17 -80 -51 -158 -74 -93 -27 -145 -54 -139 -70 4 -11 0
-14 -13 -11 -23 4 -26 40 -4 44 30 5 275 97 288 107 18 15 9 21 -99 66 -107
44 -169 78 -169 92 0 6 8 5 19 -1 11 -5 21 -7 24 -2z m-49 -14 c3 -8 2 -12 -4
-9 -6 3 -10 10 -10 16 0 14 7 11 14 -7z m106 -64 c0 -4 -8 -10 -18 -12 -12 -3
-18 1 -19 12 -1 13 4 16 18 13 10 -3 19 -9 19 -13z m137 -7 c-3 -3 -11 -2 -17
2 -9 6 -9 10 1 16 14 8 27 -7 16 -18z m-98 -7 c-10 -10 -112 -46 -117 -42 -7
8 78 46 102 46 11 0 17 -2 15 -4z m64 -26 c54 -20 44 -40 -35 -65 l-67 -22
-48 21 c-44 19 -67 35 -58 44 1 2 13 -3 24 -10 18 -11 23 -11 32 2 9 13 10 13
6 -1 -6 -18 30 -40 61 -38 10 0 3 7 -15 15 -18 8 -33 18 -33 24 0 9 79 50 90
47 3 -1 22 -9 43 -17z m-274 -126 c-11 -118 -14 -132 -40 -165 -38 -48 -37
-64 1 -20 l29 34 6 -37 c7 -33 3 -40 -34 -81 l-42 -46 4 186 4 186 38 39 c21
22 40 38 42 36 2 -2 -1 -62 -8 -132z m146 36 c3 -5 1 -10 -4 -10 -6 0 -11 5
-11 10 0 6 2 10 4 10 3 0 8 -4 11 -10z m165 0 c0 -5 -5 -10 -11 -10 -5 0 -7 5
-4 10 3 6 8 10 11 10 2 0 4 -4 4 -10z m17 -29 c23 -11 44 -17 46 -14 3 2 8 -1
13 -8 4 -8 3 -10 -4 -5 -11 6 -16 -6 -13 -26 0 -5 -4 -7 -11 -5 -7 1 -15 -11
-19 -28 -6 -28 -7 -27 -8 12 -1 36 2 42 17 37 9 -3 1 4 -18 15 -19 11 -43 20
-52 21 -9 0 -20 5 -23 10 -10 16 26 11 72 -9z m-32 -21 l30 -13 -50 -13 c-48
-14 -113 -11 -144 6 -20 11 66 40 104 36 17 -3 44 -10 60 -16z m-100 -51 c73
-19 147 -53 170 -80 l20 -23 -34 24 c-32 22 -189 80 -218 80 -7 0 -13 4 -13
10 0 5 6 8 13 6 6 -2 35 -10 62 -17z m125 11 c0 -5 -6 -10 -12 -10 -7 0 -23
-3 -35 -6 -13 -4 -23 -2 -23 4 0 9 20 17 58 21 6 0 12 -3 12 -9z m0 -30 c0 -5
-4 -10 -9 -10 -6 0 -13 5 -16 10 -3 6 1 10 9 10 9 0 16 -4 16 -10z m150 -166
l0 -49 -25 37 c-19 28 -23 44 -18 72 l6 35 18 -23 c13 -16 19 -40 19 -72z
m-151 62 c-11 -10 -69 -17 -69 -7 0 5 15 11 33 13 32 3 44 1 36 -6z m-71 -25
c81 -29 138 -58 129 -67 -3 -3 -24 4 -47 16 -23 11 -80 34 -128 50 -48 16 -76
29 -62 29 14 1 62 -12 108 -28z m-108 5 c0 -3 -4 -8 -10 -11 -5 -3 -10 -1 -10
4 0 6 5 11 10 11 6 0 10 -2 10 -4z m180 -6 c0 -13 -11 -13 -30 0 -12 8 -11 10
8 10 12 0 22 -4 22 -10z m-41 -41 c28 -12 51 -25 51 -30 0 -15 -41 -31 -58
-23 -13 6 -9 9 18 15 28 5 23 7 -25 6 -33 -1 -79 2 -102 7 l-43 8 0 -36 c0
-38 8 -43 41 -25 11 6 25 8 32 6 7 -2 -15 -17 -48 -33 -81 -38 -84 -39 -55
-14 19 17 24 30 21 59 -3 41 6 52 54 69 44 15 57 14 114 -9z m-265 -35 c3 -26
6 -80 6 -120 0 -70 -2 -76 -35 -113 -19 -21 -35 -42 -35 -47 1 -5 14 6 30 25
l30 35 -5 -37 c-3 -21 0 -39 7 -43 7 -5 8 -3 3 7 -8 12 -6 12 8 1 9 -8 21 -11
27 -7 5 3 10 4 10 1 0 -3 -10 -10 -21 -17 -16 -8 -20 -8 -14 1 12 19 -48 -15
-77 -45 -15 -15 -25 -32 -22 -40 3 -7 1 -15 -3 -18 -5 -3 -9 47 -10 111 -1
104 0 111 8 62 6 -30 8 -68 5 -84 -5 -24 -4 -27 8 -17 16 13 14 54 -7 151 -18
84 -8 142 33 195 19 24 38 44 41 45 4 0 9 -21 13 -46z m427 -65 c-4 -68 -5
-71 -12 -34 -4 22 -8 63 -8 90 0 41 2 47 12 34 8 -10 11 -41 8 -90z m-216 47
c28 -8 59 -17 69 -22 14 -5 17 -4 12 4 -4 7 -2 12 4 12 7 0 10 -6 7 -13 -3 -8
9 -21 29 -32 19 -10 34 -22 34 -28 0 -5 -20 3 -44 17 -24 14 -81 37 -127 50
-87 26 -72 36 16 12z m249 -28 c3 -18 7 -60 10 -93 3 -33 12 -80 21 -104 8
-24 13 -46 11 -48 -9 -9 -56 85 -56 111 0 15 -3 25 -7 23 -5 -3 -7 28 -5 69 4
76 17 99 26 42z m-319 12 c-3 -5 -10 -10 -16 -10 -5 0 -9 5 -9 10 0 6 7 10 16
10 8 0 12 -4 9 -10z m129 -35 c20 -8 36 -19 36 -23 0 -17 -90 -30 -133 -19
-61 14 -64 23 -15 40 56 20 68 20 112 2z m-208 -51 c9 3 12 1 9 -4 -12 -19
-35 -10 -34 13 1 18 2 18 6 4 3 -11 11 -16 19 -13z m199 -34 c36 -15 42 -19
20 -16 -48 8 -155 40 -155 47 0 10 82 -8 135 -31z m45 30 c0 -5 -15 -9 -32 -9
l-33 1 30 8 c17 4 31 8 33 9 1 0 2 -3 2 -9z m-120 -34 l55 -13 -60 0 c-33 0
-54 2 -46 5 11 4 11 6 0 13 -18 11 -15 11 51 -5z m179 -41 c7 -7 -45 -10 -144
-10 -143 0 -183 5 -137 19 30 9 271 1 281 -9z m-315 -9 c-3 -8 2 -16 13 -19
15 -4 16 -5 1 -6 -19 -1 -32 14 -23 29 9 15 15 12 9 -4z m52 -54 c-14 -15 -15
-13 -3 17 8 23 13 28 15 16 2 -10 -3 -25 -12 -33z m214 31 c0 -18 38 -63 53
-63 6 0 2 9 -9 21 -11 12 5 5 36 -16 67 -45 75 -53 31 -30 -18 9 -31 12 -27 7
9 -14 128 -83 134 -78 3 3 -3 9 -12 12 -12 4 -14 9 -7 14 7 4 -3 14 -24 26
-19 10 -35 25 -35 34 0 8 -3 26 -7 40 -5 20 2 15 35 -23 23 -27 43 -52 43 -58
2 -12 6 -28 9 -34 1 -3 3 -8 4 -12 1 -5 9 -19 18 -33 26 -38 48 -108 48 -149
l-1 -36 -16 30 c-21 40 -52 74 -83 89 -28 15 -115 32 -206 42 -64 7 -245 -9
-300 -27 -37 -11 -77 -51 -98 -99 l-16 -35 4 73 c3 50 12 85 25 108 23 39 26
48 11 39 -18 -11 -10 1 17 26 14 13 23 18 19 12 -10 -18 6 -16 30 3 17 14 17
15 1 10 -11 -4 -16 -2 -12 5 4 6 14 8 22 5 9 -4 22 -1 30 5 10 9 20 9 37 1 19
-8 37 -6 85 10 59 20 64 20 121 5 74 -21 94 -21 110 -2 15 18 7 19 -19 4 -14
-9 -29 -8 -66 5 -60 20 -100 20 -155 1 -23 -8 -50 -15 -60 -15 -21 0 -34 26
-18 36 7 4 8 3 4 -4 -10 -17 6 -15 32 4 12 8 22 26 22 40 0 24 1 24 95 24 82
0 95 -2 95 -17z m176 -119 c18 -14 18 -14 -6 -3 -31 14 -36 19 -24 19 6 0 19
-7 30 -16z m-83 -130 c99 -18 135 -41 168 -106 23 -45 19 -55 -27 -74 -53 -22
-86 -18 -116 16 -25 29 -30 30 -110 30 -45 1 -108 3 -140 6 -69 7 -121 -8
-143 -43 -15 -23 -22 -25 -67 -21 -27 3 -57 12 -66 21 -14 15 -14 20 8 66 35
77 59 94 148 107 112 17 244 16 345 -2z m201 -175 c-9 -11 -38 -26 -63 -34
-37 -12 -39 -14 -12 -10 19 3 47 12 63 19 27 14 28 14 28 -11 0 -34 -27 -63
-57 -63 -23 0 -102 47 -103 61 0 3 13 6 28 7 45 1 111 32 118 55 5 14 9 17 12
9 2 -7 -4 -22 -14 -33z m-209 19 c14 -6 25 -17 25 -23 0 -17 84 -93 116 -105
19 -8 34 -7 55 4 28 14 29 14 29 -12 0 -19 -3 -23 -9 -14 -6 10 -10 8 -15 -10
-4 -14 -9 -18 -13 -10 -7 17 -23 15 -23 -3 0 -8 -7 -15 -15 -15 -9 0 -15 9
-15 22 0 20 -1 20 -12 5 -12 -16 -27 -16 -188 -6 -120 7 -205 7 -270 0 -84 -8
-96 -8 -109 7 -12 15 -12 15 -6 -5 7 -25 5 -26 -19 -17 -9 3 -16 14 -16 23 0
13 -2 13 -9 2 -11 -17 -31 -6 -31 18 0 14 6 17 30 13 43 -6 86 15 121 59 l31
39 181 2 182 1 -145 8 c-80 5 -163 6 -185 3 -38 -6 -39 -5 -20 10 16 12 49 15
162 16 87 0 152 -4 168 -12z m-430 -48 c55 0 56 -13 5 -48 -22 -14 -46 -22
-65 -20 -26 3 -31 8 -36 42 -4 21 -4 47 -2 56 4 15 7 15 28 -6 18 -18 35 -24
70 -24z m150 -140 c-3 -5 -32 -9 -63 -9 -55 2 -56 2 -17 9 62 11 87 11 80 0z
m185 -2 c0 -4 -34 -8 -75 -8 -47 0 -75 4 -75 11 0 7 27 9 75 8 41 -2 75 -7 75
-11z m137 -5 c-20 -2 -52 -2 -70 0 -17 2 0 4 38 4 39 0 53 -2 32 -4z"/>
<path d="M1895 2406 c66 -7 124 -9 130 -4 5 4 -11 8 -35 8 -25 0 -83 2 -130 5
-70 3 -63 2 35 -9z"/>
<path d="M1710 2363 c58 -9 71 -15 80 -36 6 -16 9 -18 9 -5 1 25 -38 48 -79
47 -26 -1 -28 -3 -10 -6z"/>
<path d="M1623 2223 c-45 -23 -42 -37 3 -18 20 8 38 15 40 15 2 0 4 5 4 10 0
13 -9 12 -47 -7z"/>
<path d="M2065 1520 c-19 -8 -19 -9 3 -9 12 -1 22 4 22 9 0 6 -1 10 -2 9 -2 0
-12 -4 -23 -9z"/>
<path d="M2050 1398 c0 -4 9 -8 20 -8 11 0 20 4 20 8 0 4 -9 8 -20 8 -11 0
-20 -4 -20 -8z"/>
<path d="M1730 1675 c0 -8 4 -15 10 -15 5 0 7 7 4 15 -4 8 -8 15 -10 15 -2 0
-4 -7 -4 -15z"/>
<path d="M1660 1135 c-13 -14 -19 -25 -13 -25 6 0 18 11 27 25 9 14 15 25 13
25 -2 0 -14 -11 -27 -25z"/>
<path d="M1599 741 c17 -15 36 -21 70 -20 l46 2 -45 6 c-25 4 -56 13 -70 20
l-25 12 24 -20z"/>
</g>
</svg>
