<?xml version="1.0" standalone="no"?>
<!DOCTYPE svg PUBLIC "-//W3C//DTD SVG 20010904//EN"
 "http://www.w3.org/TR/2001/REC-SVG-20010904/DTD/svg10.dtd">
<svg version="1.0" xmlns="http://www.w3.org/2000/svg"
 width="300.000000pt" height="300.000000pt" viewBox="0 0 300.000000 300.000000"
 preserveAspectRatio="xMidYMid meet">
<metadata>
Created by potrace 1.10, written by Peter Selinger 2001-2011
</metadata>
<g transform="translate(0.000000,300.000000) scale(0.100000,-0.100000)"
fill="#d8d4d5" stroke="none">
<path d="M973 2305 c-28 -15 -62 -40 -76 -58 l-24 -32 18 -160 c20 -178 27
-599 9 -610 -6 -3 -10 -19 -10 -35 0 -22 -4 -27 -18 -23 -28 7 -70 -34 -83
-79 -12 -48 -13 -147 -2 -343 l8 -139 34 -23 c18 -13 60 -28 92 -35 33 -7 59
-15 59 -20 0 -12 125 -47 230 -65 131 -22 449 -22 580 0 112 19 230 54 230 67
0 6 8 10 18 10 33 0 119 30 144 49 21 18 24 29 31 158 11 184 10 295 -3 343
-12 43 -55 84 -82 77 -14 -4 -18 1 -18 23 0 16 -4 32 -10 35 -25 15 -2 663 26
744 8 23 -36 80 -83 108 -51 29 -137 41 -161 21 -7 -7 -42 -68 -77 -137 -35
-70 -72 -138 -82 -152 l-18 -27 -205 0 -205 0 -33 51 c-18 29 -55 97 -81 153
-27 56 -54 105 -62 110 -31 19 -95 14 -146 -11z m103 -22 c10 -49 48 -133 54
-124 3 5 13 -4 22 -20 17 -29 17 -29 -6 -29 -13 0 -50 -13 -82 -30 -32 -16
-59 -28 -60 -27 -13 18 -24 48 -15 42 6 -3 -1 18 -16 49 -14 30 -30 53 -33 51
-4 -3 -12 7 -18 20 -10 21 -8 27 18 45 36 25 89 49 112 50 11 0 20 -10 24 -27z
m96 -106 c33 -67 69 -134 79 -148 l19 -27 -28 -5 c-38 -7 -55 10 -48 48 5 25
-5 54 -49 144 -30 62 -55 114 -55 117 0 21 30 -26 82 -129z m683 13 c-44 -90
-54 -120 -49 -145 7 -38 -10 -55 -48 -48 l-28 5 19 27 c10 14 44 78 76 141 58
116 74 144 82 137 2 -3 -21 -55 -52 -117z m182 84 c53 -31 58 -39 34 -61 -22
-21 -78 -128 -61 -118 9 5 9 1 0 -16 -7 -13 -14 -25 -15 -27 -1 -2 -20 7 -40
20 -21 12 -57 27 -80 32 l-42 11 19 30 c17 28 18 28 16 6 -3 -20 3 -26 32 -33
19 -6 46 -18 61 -29 30 -21 44 -25 34 -9 -10 16 -82 50 -105 50 -25 0 -25 -2
5 66 14 31 25 64 25 73 0 47 43 48 117 5z m-149 -69 c-6 -14 -13 -23 -15 -21
-5 5 15 46 22 46 3 0 -1 -11 -7 -25z m-896 -195 c-3 -8 13 2 36 22 44 40 110
65 139 53 16 -7 15 -8 -7 -15 -35 -10 -112 -49 -133 -68 -13 -12 -23 -13 -34
-6 -19 12 -103 205 -95 219 8 13 100 -187 94 -205z m1115 192 c-11 -22 -47
-102 -47 -106 0 -2 -9 -26 -21 -52 -14 -34 -23 -44 -28 -35 -10 16 78 213 91
205 4 -3 7 -8 5 -12z m-979 -17 c-3 -3 -9 2 -12 12 -6 14 -5 15 5 6 7 -7 10
-15 7 -18z m-171 -180 c12 -22 30 -69 41 -105 l20 -65 -24 -93 c-27 -108 -48
-253 -41 -288 3 -16 0 -23 -7 -21 -8 3 -11 75 -12 238 -1 202 -8 313 -29 444
-3 19 2 11 14 -20 10 -28 27 -68 38 -90z m1126 25 c-10 -62 -16 -182 -16 -344
-2 -181 -5 -250 -14 -253 -7 -3 -9 3 -6 17 8 31 -15 198 -42 297 l-23 87 28
81 c29 83 82 216 86 212 1 -1 -5 -45 -13 -97z m-168 40 c45 -22 92 -66 82 -77
-4 -3 -15 1 -24 9 -25 22 -119 68 -138 68 -9 0 -13 5 -10 10 10 16 45 12 90
-10z m-735 -35 c0 -15 -37 -45 -55 -45 -5 1 2 8 18 16 15 8 27 22 26 32 0 11
-2 12 -6 4 -7 -17 -101 -64 -113 -57 -6 4 -10 1 -10 -6 0 -11 10 -10 55 6 11
3 7 -1 -8 -10 -29 -17 -57 -14 -57 5 0 12 132 80 143 73 4 -2 7 -10 7 -18z
m790 -56 c0 -7 9 -9 21 -6 13 4 18 1 15 -6 -3 -7 -11 -31 -18 -54 -12 -44 -28
-57 -28 -25 0 10 -6 24 -12 31 -11 10 -10 14 5 22 20 12 23 31 3 23 -15 -6
-120 38 -131 55 -4 7 -4 19 -1 27 4 12 19 8 76 -21 38 -19 70 -40 70 -46z
m-745 -20 c22 -22 33 -39 25 -38 -23 5 -77 -28 -102 -61 -12 -17 -24 -30 -28
-30 -8 0 -31 63 -25 69 3 2 5 0 5 -5 0 -5 4 -15 9 -23 7 -11 19 -6 56 25 26
22 51 38 56 37 18 -5 9 14 -18 38 -20 17 -23 18 -10 3 9 -11 17 -23 17 -26 0
-5 -85 -68 -93 -68 -2 0 -10 13 -17 30 -7 16 -16 27 -21 24 -5 -3 -9 -1 -9 5
0 11 86 60 105 61 6 0 29 -18 50 -41z m650 17 c30 -14 55 -29 55 -33 0 -12
-20 -39 -20 -28 0 6 -5 3 -10 -5 -5 -8 -7 -24 -3 -35 4 -15 -6 -11 -43 19 -27
22 -53 43 -58 47 -6 5 -2 18 10 31 12 15 6 12 -16 -7 l-35 -30 29 33 c17 17
31 32 33 32 1 0 27 -11 58 -24z m-128 -27 l-22 -28 -223 0 -223 -1 -24 28 -23
27 241 5 c133 3 254 3 269 1 l28 -3 -23 -29z m-708 0 c18 -15 21 -23 13 -31
-7 -7 -12 -20 -12 -30 0 -34 -15 -18 -31 32 -17 55 -10 62 30 29z m798 -54
c29 -22 52 -46 53 -52 0 -20 -8 -16 -49 27 -22 23 -51 43 -69 46 -18 4 -30 10
-27 14 10 16 43 3 92 -35z m-744 -42 l17 -42 -45 -86 -45 -85 0 -115 c0 -118
-4 -128 -39 -106 -11 7 -13 25 -8 85 11 126 81 417 97 399 4 -4 14 -27 23 -50z
m714 30 c26 -17 92 -114 130 -191 22 -46 27 -70 31 -173 l5 -119 -28 0 -28 0
6 116 c4 64 4 114 1 112 -3 -3 -9 -59 -13 -124 l-8 -119 -2 126 c-1 110 -4
134 -25 181 -29 65 -86 161 -93 155 -2 -3 10 -27 26 -54 35 -57 75 -143 69
-149 -3 -2 -26 39 -51 90 -26 52 -54 102 -63 110 -23 24 -505 24 -524 1 -9
-11 -15 -13 -20 -5 -9 14 -59 -62 -94 -143 -23 -51 -26 -72 -27 -185 l-2 -127
-8 119 c-4 65 -10 121 -14 124 -3 3 -2 -47 1 -111 l7 -117 -26 0 -27 0 0 93
c0 51 6 115 13 142 15 56 94 198 106 190 5 -2 17 5 27 18 l19 22 -22 -19 c-32
-26 -29 -5 3 25 25 24 30 24 247 29 267 6 355 2 384 -17z m173 -131 c41 -155
60 -320 40 -332 -36 -23 -40 -13 -40 105 l0 115 -45 85 c-47 90 -46 82 -14
163 l11 27 9 -23 c5 -13 23 -76 39 -140z m-362 81 c-64 -2 -172 -2 -240 0 -68
1 -15 3 117 3 132 0 187 -2 123 -3z m171 -55 l23 -38 -30 0 c-29 0 -30 2 -34
50 -3 54 2 53 41 -12z m-620 -48 c-27 -52 -47 -84 -43 -70 12 45 82 175 90
167 2 -1 -19 -45 -47 -97z m78 13 c-3 -2 -17 -3 -31 -1 l-26 3 28 45 27 45 3
-44 c2 -23 1 -45 -1 -48z m151 -131 l127 2 -122 3 -123 4 0 99 0 100 220 0
220 0 0 -100 0 -99 -77 -4 -78 -3 82 -2 82 -2 4 88 3 87 0 -90 -1 -90 -235 0
-235 0 -1 110 0 110 3 -107 4 -108 127 2z m-148 73 l0 -45 -55 0 -55 0 22 45
c19 40 26 45 55 45 32 0 33 -1 33 -45z m588 0 l22 -45 -55 0 -55 0 0 45 c0 44
1 45 33 45 29 0 36 -5 55 -45z m-588 -75 c0 -18 9 -19 183 -22 100 -2 212 -1
250 0 58 3 67 6 67 23 0 17 8 19 70 19 l70 0 0 -28 0 -29 -122 -6 c-156 -9
-483 -9 -581 -1 -76 7 -77 7 -77 35 l0 29 70 0 c63 0 70 -2 70 -20z m-30 -100
l0 -40 -55 0 -55 0 0 40 0 40 55 0 55 0 0 -40z m140 -6 c0 -38 -3 -45 -16 -40
-9 3 -36 6 -60 6 l-44 0 0 40 0 40 60 0 60 0 0 -46z m130 4 l0 -43 -60 0 -60
0 0 43 0 42 60 0 60 0 0 -42z m140 0 l0 -43 -61 2 -62 1 -1 41 -1 41 63 0 62
0 0 -42z m130 -2 c0 -43 0 -44 40 -50 22 -3 52 -3 65 0 23 6 25 3 25 -25 0
-24 -4 -31 -19 -31 -11 0 -26 -3 -35 -6 -10 -4 -17 2 -22 20 -3 14 -14 28 -24
31 -17 5 -174 -23 -251 -45 -19 -6 -51 -10 -71 -10 -32 0 -38 4 -38 20 0 31
-22 34 -128 15 -53 -9 -118 -19 -144 -22 -47 -5 -48 -5 -48 23 l0 29 311 -3
c234 -3 314 -1 323 8 8 10 -2 11 -46 7 l-58 -6 0 45 0 44 60 0 60 0 0 -44z
m130 4 l0 -40 -55 0 -55 0 0 40 0 40 55 0 55 0 0 -40z m-901 -114 c30 -9 77
-17 105 -17 28 -1 41 -4 29 -6 -20 -4 -23 -11 -23 -53 0 -47 1 -48 36 -55 47
-8 39 -16 -9 -8 -28 4 -37 10 -37 25 0 26 -42 66 -77 74 -99 22 -103 24 -103
51 0 19 3 23 13 15 6 -5 36 -17 66 -26z m795 28 c39 -15 8 -31 -115 -58 -98
-22 -133 -26 -142 -17 -18 18 2 29 108 55 111 27 126 29 149 20z m303 -40 c-2
-3 -35 -13 -73 -24 -70 -19 -104 -45 -104 -80 0 -13 -11 -19 -41 -24 -23 -4
-44 -5 -46 -2 -2 2 14 7 37 11 l42 7 -4 54 -3 54 30 0 c39 0 135 26 149 40 8
8 12 5 14 -10 2 -12 2 -24 -1 -26z m-677 18 c0 -16 -16 -21 -112 -36 -62 -10
-120 -18 -128 -19 -8 -1 -16 6 -18 15 -3 14 3 16 30 14 18 -2 24 -1 13 2 -22
6 127 39 183 41 25 1 32 -3 32 -17z m95 -32 c4 -6 -12 -10 -40 -10 -28 0 -44
4 -40 10 3 6 21 10 40 10 19 0 37 -4 40 -10z m289 -37 c4 -27 9 -60 12 -75 5
-23 2 -28 -14 -28 -16 0 -21 11 -29 68 l-11 67 4 -70 c4 -79 -1 -77 -16 5 l-9
55 4 -62 5 -63 -44 0 -43 0 -6 51 c-4 29 -4 55 -2 59 3 4 24 11 47 15 64 12
69 13 76 19 13 14 20 3 26 -41z m56 37 l-35 -7 33 -2 c30 -1 32 -3 32 -40 0
-34 -3 -39 -27 -44 -16 -3 -29 -5 -29 -4 -1 1 -5 26 -9 55 l-7 52 39 -1 38 -2
-35 -7z m-936 -11 c22 -6 48 -14 56 -17 18 -7 29 -9 52 -11 29 -2 48 -30 47
-69 l-1 -37 -8 39 c-11 60 -54 75 -88 31 -14 -17 -21 -48 -26 -112 -10 -120
-40 -148 -116 -108 -34 18 -43 43 -37 106 3 42 4 42 5 -11 3 -65 8 -75 47 -90
39 -15 74 -5 79 23 9 41 12 157 4 144 -4 -6 -8 -42 -8 -78 0 -46 -5 -70 -15
-79 -16 -14 -68 -5 -84 14 -6 7 -12 58 -13 115 -3 102 -3 103 25 127 33 28 28
27 81 13z m500 -41 c9 -80 8 -88 -13 -88 -15 0 -19 11 -25 62 -4 45 -3 64 6
70 22 13 25 9 32 -44z m753 28 c28 -24 28 -25 25 -127 -1 -57 -7 -108 -13
-115 -16 -19 -68 -28 -84 -14 -10 9 -15 33 -15 79 0 36 -4 72 -8 78 -8 13 -5
-103 3 -144 6 -28 37 -37 80 -23 37 12 42 23 48 100 3 45 4 45 5 -8 2 -65 -8
-87 -49 -101 -78 -27 -95 -9 -105 110 -5 73 -11 96 -29 117 -17 19 -27 24 -48
18 -20 -5 -28 -15 -35 -49 l-10 -42 -1 36 c-1 23 5 41 17 51 32 28 50 28 84 0
31 -26 31 -16 0 21 -14 16 -13 17 14 18 16 0 38 4 49 9 32 14 42 12 72 -14z
m-1027 -1 c0 -8 5 -15 10 -15 6 0 10 -13 10 -29 0 -24 -3 -28 -23 -24 -20 4
-22 9 -19 44 4 36 22 57 22 24z m224 -31 c14 -104 2 -129 -13 -28 l-10 59 2
-58 2 -57 -47 0 -48 0 0 39 c0 22 -3 46 -6 54 -4 12 7 17 48 25 29 5 56 10 59
11 4 0 9 -20 13 -45z m150 23 c7 -7 16 -25 20 -40 6 -27 6 -27 -43 -27 -42 0
-49 3 -55 23 -13 48 -8 57 30 57 19 0 41 -6 48 -13z m-275 -71 c1 -54 -5 -42
-12 24 -4 36 -3 48 3 35 5 -11 9 -38 9 -59z m395 37 c3 -21 6 -47 6 -57 0 -32
-13 -9 -21 37 l-8 42 2 -47 c2 -40 -1 -48 -15 -48 -11 0 -18 8 -18 19 0 10 -3
32 -6 49 -5 26 -3 31 17 35 13 2 27 5 30 6 4 0 9 -16 13 -36z m-420 -4 c11
-54 8 -69 -14 -69 -16 0 -20 7 -20 34 0 19 -3 41 -6 50 -4 11 0 16 14 16 14 0
21 -9 26 -31z m354 -49 c1 -23 0 -23 -8 -5 -5 11 -8 36 -8 55 l0 35 8 -30 c4
-16 8 -41 8 -55z m-530 14 c3 -31 -13 -43 -55 -44 -18 0 -16 31 3 58 22 32 48
24 52 -14z m976 14 c19 -27 21 -58 4 -58 -39 1 -58 13 -58 39 0 47 28 56 54
19z m-559 -27 c3 -5 1 -12 -5 -16 -5 -3 -10 1 -10 9 0 18 6 21 15 7z m67 -7
c-12 -8 -28 -12 -34 -8 -9 6 -5 10 12 15 41 11 46 10 22 -7z m-420 -106 c-2
-62 1 -170 5 -240 8 -121 7 -128 -10 -128 -13 0 -17 5 -13 16 3 9 6 117 6 240
0 123 3 224 8 224 4 0 6 -51 4 -112z m810 -186 c3 -170 2 -182 -15 -182 -13 0
-17 5 -13 18 3 9 8 114 11 232 3 118 6 220 7 225 3 18 8 -109 10 -293z m-608
258 c105 0 156 4 164 12 8 8 12 8 12 1 0 -29 -29 -34 -181 -28 -118 5 -150 4
-136 -5 10 -7 29 -9 43 -6 13 4 73 3 134 0 l110 -7 0 -210 c0 -116 2 -208 5
-205 3 3 5 98 5 211 1 118 5 209 10 212 6 4 9 -66 9 -178 1 -101 3 -191 7
-200 3 -10 -4 -26 -19 -41 -23 -23 -28 -24 -128 -20 -176 8 -189 11 -204 47
-19 45 -21 397 -3 398 10 0 10 2 1 6 -7 2 -13 14 -13 25 0 18 1 18 16 4 13
-13 43 -16 168 -16z m576 10 c0 -11 -6 -20 -12 -20 -10 0 -10 -2 0 -9 11 -7
13 -46 11 -187 -1 -99 -7 -191 -12 -206 -12 -37 -50 -46 -200 -50 -115 -3
-119 -2 -138 21 -11 13 -17 31 -14 39 3 8 5 98 6 199 0 112 3 182 9 178 5 -3
9 -94 10 -212 0 -113 2 -208 5 -211 3 -3 5 90 5 206 l0 212 73 2 c39 1 104 2
144 3 39 0 75 4 80 9 5 5 -57 6 -146 2 -152 -6 -181 -2 -181 27 0 7 4 7 12 -1
8 -8 58 -12 159 -12 148 0 184 4 173 21 -3 5 0 9 5 9 6 0 11 -9 11 -20z m-810
-204 l0 -204 -49 -17 c-52 -17 -113 -10 -171 20 -35 18 -40 32 -40 111 0 61 1
64 19 54 11 -5 31 -10 45 -10 23 0 26 4 26 33 1 22 8 37 25 50 l25 18 0 -104
c0 -57 5 -119 11 -136 11 -30 14 -32 43 -27 16 4 35 11 41 18 7 8 5 9 -10 3
-56 -22 -60 -17 -65 83 -4 77 -3 92 10 92 8 0 25 3 37 6 21 6 22 2 26 -57 2
-35 3 8 3 96 0 123 -1 139 -5 70 l-6 -90 -37 -3 c-35 -3 -38 -1 -39 25 -1 15
-1 31 -1 34 1 3 2 31 3 62 2 54 4 57 28 58 14 0 35 4 46 9 11 5 23 9 28 9 4 1
7 -91 7 -203z m931 187 l35 -5 3 -90 2 -89 -38 3 -38 3 -6 90 c-4 69 -5 53 -5
-70 0 -88 1 -131 3 -96 4 59 5 63 26 57 12 -3 29 -6 37 -6 13 0 14 -15 10 -92
-5 -100 -9 -105 -65 -83 -14 6 -17 5 -10 -3 6 -6 22 -13 36 -17 44 -11 54 14
58 146 l3 118 24 -17 c16 -12 23 -27 24 -49 0 -29 3 -33 26 -33 14 0 34 5 45
10 18 10 19 7 19 -47 0 -79 -8 -101 -40 -118 -56 -29 -114 -36 -169 -19 l-51
15 0 205 c0 192 1 206 18 199 9 -4 33 -9 53 -12z m-496 -162 c-4 -86 -8 -158
-11 -160 -2 -2 -4 71 -4 163 0 117 3 165 11 161 7 -5 9 -56 4 -164z m-676 -8
c1 27 36 17 35 -10 0 -12 3 -20 8 -17 4 3 8 -2 8 -10 0 -13 -5 -14 -27 -5 -32
12 -43 26 -42 54 1 16 2 16 9 -5 6 -18 8 -20 9 -7z m1358 -5 c-3 -7 -5 -2 -5
12 0 14 2 19 5 13 2 -7 2 -19 0 -25z m-15 -3 c4 -19 0 -26 -24 -34 -27 -10
-28 -9 -22 17 9 36 13 42 28 42 8 0 16 -11 18 -25z m-1102 -235 c0 -5 -8 -10
-17 -10 -15 0 -16 2 -3 10 19 12 20 12 20 0z m875 0 c3 -5 1 -10 -4 -10 -6 0
-11 5 -11 10 0 6 2 10 4 10 3 0 8 -4 11 -10z m-824 -39 c51 -13 112 -19 199
-20 372 -3 482 0 535 14 73 20 149 30 142 18 -9 -15 -109 -41 -222 -58 -130
-19 -419 -20 -545 0 -109 16 -211 42 -224 56 -16 15 34 11 115 -10z m394 9 c3
-5 -3 -10 -15 -10 -12 0 -18 5 -15 10 3 6 10 10 15 10 5 0 12 -4 15 -10z"/>
<path d="M1074 2120 c-34 -15 -64 -33 -68 -39 -11 -17 3 -13 34 9 16 11 42 23
59 26 29 6 48 20 40 29 -2 2 -32 -9 -65 -25z"/>
<path d="M1831 2037 c-1 -12 17 -25 55 -42 63 -28 74 -30 74 -14 0 5 -4 8 -10
4 -12 -7 -106 40 -113 57 -3 8 -6 6 -6 -5z"/>
<path d="M1293 1873 c42 -2 112 -2 155 0 42 1 7 3 -78 3 -85 0 -120 -2 -77 -3z"/>
<path d="M1570 1873 c109 -7 218 -7 213 0 -2 4 -61 6 -131 5 -70 -1 -107 -3
-82 -5z"/>
<path d="M1823 1838 c28 -28 74 -105 94 -156 l14 -37 -6 34 c-5 36 -92 172
-113 179 -7 2 -2 -7 11 -20z"/>
<path d="M1110 1759 c-17 -28 -33 -65 -36 -82 -5 -31 -5 -31 9 5 8 20 26 57
41 82 37 63 25 59 -14 -5z"/>
<path d="M1748 1413 c7 -3 16 -2 19 1 4 3 -2 6 -13 5 -11 0 -14 -3 -6 -6z"/>
<path d="M1623 1387 c-46 -11 -83 -24 -83 -27 0 -6 152 31 184 44 27 11 -26 2
-101 -17z"/>
<path d="M1358 1403 c6 -2 18 -2 25 0 6 3 1 5 -13 5 -14 0 -19 -2 -12 -5z"/>
<path d="M1255 1390 c-42 -11 -1 -11 50 -1 34 7 35 9 10 9 -16 0 -43 -4 -60
-8z"/>
<path d="M949 1308 c-12 -23 -12 -23 10 -4 23 21 26 26 11 26 -5 0 -15 -10
-21 -22z"/>
<path d="M845 1311 c31 -13 93 -24 75 -12 -8 5 -33 12 -55 15 -27 4 -34 4 -20
-3z"/>
<path d="M811 1274 c0 -11 3 -14 6 -6 3 7 2 16 -1 19 -3 4 -6 -2 -5 -13z"/>
<path d="M2095 1305 l-30 -14 30 3 c17 2 41 8 55 14 l25 11 -25 0 c-14 0 -38
-6 -55 -14z"/>
<path d="M2182 1270 c0 -14 2 -19 5 -12 2 6 2 18 0 25 -3 6 -5 1 -5 -13z"/>
<path d="M1130 1032 c0 -116 11 -237 19 -223 4 6 20 7 46 1 22 -5 87 -9 145
-8 94 2 97 2 28 5 l-78 4 0 43 0 42 59 -4 c32 -2 67 1 77 7 15 8 -5 10 -83 11
-56 0 -125 5 -153 11 l-50 11 0 40 c0 30 3 39 14 35 8 -3 73 -9 144 -13 l131
-7 4 -31 c2 -17 4 -4 4 29 0 33 -2 50 -4 38 -4 -20 -10 -23 -58 -23 -76 0 -85
5 -85 51 l0 39 78 1 c67 2 61 3 -48 10 -69 5 -140 13 -157 18 l-33 9 0 -96z
m96 68 l54 0 0 -45 c0 -44 -1 -45 -32 -45 -18 0 -50 3 -70 6 -37 7 -38 7 -38
51 0 37 3 44 16 39 9 -3 40 -6 70 -6z m2 -197 l52 -6 0 -42 0 -42 -62 9 c-34
4 -62 9 -63 11 -1 1 -5 21 -8 45 -5 38 -3 43 11 37 10 -4 41 -9 70 -12z"/>
<path d="M1835 1118 c-17 -4 -87 -11 -155 -16 -111 -8 -116 -9 -47 -11 l77 -1
0 -39 c0 -46 -9 -51 -85 -51 -43 0 -54 4 -58 18 -3 9 -4 -8 -4 -38 0 -30 2
-41 4 -24 l4 31 131 7 c71 4 136 10 144 13 11 4 14 -5 14 -35 l0 -40 -50 -11
c-28 -6 -97 -11 -153 -12 -79 0 -96 -3 -77 -10 14 -6 49 -9 78 -7 l52 5 0 -43
0 -43 -77 -4 c-73 -3 -72 -3 22 -5 55 0 120 3 145 8 30 5 47 5 51 -2 8 -13 22
199 17 268 l-3 50 -30 -8z m22 -52 c-2 -42 -3 -44 -37 -50 -19 -3 -50 -6 -67
-6 -32 0 -33 1 -33 43 l0 44 57 2 c32 1 60 4 62 7 13 13 19 -1 18 -40z m-5
-191 l-4 -44 -46 -6 c-26 -3 -55 -8 -64 -10 -15 -3 -18 4 -18 41 l0 44 38 1
c20 1 48 5 62 9 14 4 27 8 30 9 3 1 4 -19 2 -44z"/>
</g>
</svg>
